<ttFont>
<head>
    <!-- Most of this table will be recalculated by the compiler -->
    <tableVersion value="1.0"/>
    <fontRevision value="1.0"/>
    <checkSumAdjustment value="0xb70ac15"/>
    <magicNumber value="0x5f0f3cf5"/>
    <flags value="00000000 00011001"/>
    <unitsPerEm value="1000"/>
    <created value="Thu Dec 23 11:28:55 2010"/>
    <modified value="Thu Dec 23 21:22:55 2010"/>
    <xMin value="-261"/>
    <yMin value="-286"/>
    <xMax value="1182"/>
    <yMax value="1019"/>
    <macStyle value="00000000 00000011"/>
    <lowestRecPPEM value="9"/>
    <fontDirectionHint value="2"/>
    <indexToLocFormat value="0"/>
    <glyphDataFormat value="0"/>
  </head>
    <TTGlyph name=".notdef" xMin="50" yMin="0" xMax="700" yMax="700">
      <contour>
        <pt x="50" y="700" on="1"/>
        <pt x="700" y="700" on="1"/>
        <pt x="700" y="0" on="1"/>
        <pt x="50" y="0" on="1"/>
      </contour>
      <contour>
        <pt x="570" y="650" on="1"/>
        <pt x="375" y="433" on="1"/>
        <pt x="180" y="650" on="1"/>
        <pt x="130" y="600" on="1"/>
        <pt x="327" y="380" on="1"/>
        <pt x="130" y="160" on="1"/>
        <pt x="180" y="110" on="1"/>
        <pt x="375" y="327" on="1"/>
        <pt x="570" y="110" on="1"/>
        <pt x="620" y="160" on="1"/>
        <pt x="422" y="380" on="1"/>
        <pt x="620" y="600" on="1"/>
      </contour>
      <contour>
        <pt x="162" y="68" on="1"/>
        <pt x="127" y="68" on="1"/>
        <pt x="127" y="61" on="1"/>
        <pt x="140" y="61" on="1"/>
        <pt x="140" y="26" on="1"/>
        <pt x="149" y="26" on="1"/>
        <pt x="149" y="61" on="1"/>
        <pt x="162" y="61" on="1"/>
      </contour>
      <contour>
        <pt x="271" y="58" on="1"/>
        <pt x="269" y="58" on="1"/>
        <pt x="268" y="58" on="0"/>
        <pt x="267" y="59" on="1"/>
        <pt x="263" y="59" on="0"/>
        <pt x="258" y="54" on="1"/>
        <pt x="258" y="58" on="1"/>
        <pt x="251" y="58" on="1"/>
        <pt x="251" y="26" on="1"/>
        <pt x="259" y="26" on="1"/>
        <pt x="259" y="46" on="1"/>
        <pt x="262" y="51" on="0"/>
        <pt x="266" y="51" on="1"/>
        <pt x="268" y="51" on="0"/>
        <pt x="270" y="50" on="1"/>
      </contour>
      <contour>
        <pt x="276" y="65" on="1"/>
        <pt x="276" y="60" on="0"/>
        <pt x="280" y="60" on="1"/>
        <pt x="285" y="60" on="0"/>
        <pt x="285" y="64" on="1"/>
        <pt x="285" y="69" on="0"/>
        <pt x="280" y="69" on="1"/>
        <pt x="276" y="69" on="0"/>
      </contour>
      <contour>
        <pt x="276" y="26" on="1"/>
        <pt x="285" y="26" on="1"/>
        <pt x="285" y="58" on="1"/>
        <pt x="276" y="58" on="1"/>
      </contour>
      <contour>
        <pt x="291" y="51" on="1"/>
        <pt x="296" y="51" on="1"/>
        <pt x="296" y="26" on="1"/>
        <pt x="304" y="26" on="1"/>
        <pt x="304" y="51" on="1"/>
        <pt x="312" y="51" on="1"/>
        <pt x="312" y="58" on="1"/>
        <pt x="304" y="58" on="1"/>
        <pt x="304" y="60" on="0"/>
        <pt x="305" y="61" on="1"/>
        <pt x="306" y="62" on="0"/>
        <pt x="308" y="62" on="1"/>
        <pt x="311" y="62" on="1"/>
        <pt x="314" y="62" on="1"/>
        <pt x="315" y="68" on="1"/>
        <pt x="315" y="69" on="0"/>
        <pt x="311" y="69" on="1"/>
        <pt x="306" y="69" on="1"/>
        <pt x="302" y="69" on="1"/>
        <pt x="301" y="69" on="0"/>
        <pt x="297" y="66" on="0"/>
        <pt x="297" y="65" on="1"/>
        <pt x="296" y="63" on="0"/>
        <pt x="296" y="60" on="1"/>
        <pt x="296" y="58" on="1"/>
        <pt x="291" y="58" on="1"/>
      </contour>
      <contour>
        <pt x="331" y="45" on="1"/>
        <pt x="331" y="20" on="0"/>
        <pt x="354" y="20" on="1"/>
        <pt x="365" y="20" on="0"/>
        <pt x="378" y="32" on="0"/>
        <pt x="378" y="45" on="1"/>
        <pt x="378" y="68" on="0"/>
        <pt x="354" y="68" on="1"/>
        <pt x="344" y="68" on="0"/>
        <pt x="331" y="56" on="0"/>
      </contour>
      <contour>
        <pt x="338" y="45" on="1"/>
        <pt x="338" y="62" on="0"/>
        <pt x="354" y="62" on="1"/>
        <pt x="371" y="62" on="0"/>
        <pt x="371" y="45" on="1"/>
        <pt x="371" y="27" on="0"/>
        <pt x="354" y="27" on="1"/>
        <pt x="338" y="27" on="0"/>
      </contour>
      <contour>
        <pt x="361" y="40" on="1"/>
        <pt x="359" y="39" on="0"/>
        <pt x="357" y="39" on="1"/>
        <pt x="352" y="39" on="0"/>
        <pt x="352" y="45" on="1"/>
        <pt x="352" y="49" on="0"/>
        <pt x="357" y="49" on="1"/>
        <pt x="360" y="49" on="1"/>
        <pt x="363" y="54" on="1"/>
        <pt x="359" y="56" on="0"/>
        <pt x="354" y="56" on="1"/>
        <pt x="344" y="56" on="0"/>
        <pt x="344" y="45" on="1"/>
        <pt x="344" y="32" on="0"/>
        <pt x="354" y="32" on="1"/>
        <pt x="359" y="32" on="0"/>
        <pt x="363" y="34" on="1"/>
      </contour>
      <contour>
        <pt x="402" y="27" on="1"/>
        <pt x="411" y="27" on="1"/>
        <pt x="411" y="41" on="1"/>
        <pt x="416" y="41" on="1"/>
        <pt x="423" y="41" on="0"/>
        <pt x="434" y="47" on="0"/>
        <pt x="434" y="55" on="1"/>
        <pt x="434" y="65" on="0"/>
        <pt x="422" y="69" on="0"/>
        <pt x="415" y="69" on="1"/>
        <pt x="402" y="69" on="1"/>
      </contour>
      <contour>
        <pt x="416" y="62" on="1"/>
        <pt x="425" y="62" on="0"/>
        <pt x="425" y="56" on="1"/>
        <pt x="425" y="50" on="0"/>
        <pt x="420" y="49" on="0"/>
        <pt x="415" y="49" on="1"/>
        <pt x="411" y="49" on="1"/>
        <pt x="411" y="62" on="1"/>
      </contour>
      <contour>
        <pt x="440" y="51" on="1"/>
        <pt x="443" y="52" on="0"/>
        <pt x="448" y="53" on="0"/>
        <pt x="451" y="53" on="1"/>
        <pt x="456" y="53" on="0"/>
        <pt x="456" y="48" on="1"/>
        <pt x="456" y="46" on="1"/>
        <pt x="455" y="46" on="0"/>
        <pt x="453" y="47" on="0"/>
        <pt x="451" y="47" on="1"/>
        <pt x="436" y="47" on="0"/>
        <pt x="436" y="35" on="1"/>
        <pt x="436" y="26" on="0"/>
        <pt x="446" y="26" on="1"/>
        <pt x="453" y="26" on="0"/>
        <pt x="456" y="32" on="1"/>
        <pt x="459" y="27" on="1"/>
        <pt x="466" y="27" on="1"/>
        <pt x="465" y="28" on="0"/>
        <pt x="465" y="35" on="1"/>
        <pt x="465" y="48" on="1"/>
        <pt x="465" y="60" on="0"/>
        <pt x="453" y="60" on="1"/>
        <pt x="448" y="60" on="0"/>
        <pt x="440" y="57" on="0"/>
        <pt x="438" y="56" on="1"/>
      </contour>
      <contour>
        <pt x="450" y="33" on="1"/>
        <pt x="445" y="33" on="0"/>
        <pt x="445" y="38" on="1"/>
        <pt x="445" y="42" on="0"/>
        <pt x="451" y="42" on="1"/>
        <pt x="453" y="42" on="0"/>
        <pt x="455" y="41" on="0"/>
        <pt x="456" y="41" on="1"/>
        <pt x="456" y="38" on="1"/>
        <pt x="455" y="33" on="0"/>
      </contour>
      <contour>
        <pt x="494" y="59" on="1"/>
        <pt x="492" y="60" on="0"/>
        <pt x="489" y="60" on="1"/>
        <pt x="484" y="60" on="0"/>
        <pt x="482" y="54" on="1"/>
        <pt x="481" y="54" on="1"/>
        <pt x="480" y="59" on="1"/>
        <pt x="473" y="59" on="1"/>
        <pt x="473" y="27" on="1"/>
        <pt x="482" y="27" on="1"/>
        <pt x="482" y="47" on="1"/>
        <pt x="482" y="52" on="0"/>
        <pt x="489" y="52" on="1"/>
        <pt x="490" y="52" on="0"/>
        <pt x="490" y="51" on="0"/>
        <pt x="491" y="51" on="1"/>
        <pt x="492" y="51" on="1"/>
      </contour>
      <contour>
        <pt x="499" y="51" on="1"/>
        <pt x="509" y="53" on="0"/>
        <pt x="510" y="53" on="1"/>
        <pt x="516" y="53" on="0"/>
        <pt x="516" y="48" on="1"/>
        <pt x="516" y="46" on="1"/>
        <pt x="514" y="46" on="0"/>
        <pt x="512" y="47" on="0"/>
        <pt x="510" y="47" on="1"/>
        <pt x="495" y="47" on="0"/>
        <pt x="495" y="35" on="1"/>
        <pt x="495" y="26" on="0"/>
        <pt x="505" y="26" on="1"/>
        <pt x="513" y="26" on="0"/>
        <pt x="516" y="32" on="1"/>
        <pt x="517" y="32" on="1"/>
        <pt x="518" y="27" on="1"/>
        <pt x="525" y="27" on="1"/>
        <pt x="524" y="28" on="0"/>
        <pt x="524" y="35" on="1"/>
        <pt x="524" y="48" on="1"/>
        <pt x="524" y="60" on="0"/>
        <pt x="512" y="60" on="1"/>
        <pt x="507" y="60" on="0"/>
        <pt x="501" y="57" on="0"/>
        <pt x="498" y="56" on="1"/>
      </contour>
      <contour>
        <pt x="509" y="33" on="1"/>
        <pt x="504" y="33" on="0"/>
        <pt x="504" y="38" on="1"/>
        <pt x="504" y="42" on="0"/>
        <pt x="510" y="42" on="1"/>
        <pt x="512" y="42" on="0"/>
        <pt x="514" y="41" on="0"/>
        <pt x="516" y="41" on="1"/>
        <pt x="516" y="38" on="1"/>
        <pt x="513" y="33" on="0"/>
      </contour>
      <contour>
        <pt x="557" y="69" on="1"/>
        <pt x="521" y="69" on="1"/>
        <pt x="521" y="62" on="1"/>
        <pt x="535" y="62" on="1"/>
        <pt x="535" y="27" on="1"/>
        <pt x="543" y="27" on="1"/>
        <pt x="543" y="62" on="1"/>
        <pt x="557" y="62" on="1"/>
      </contour>
      <contour>
        <pt x="567" y="59" on="1"/>
        <pt x="557" y="59" on="1"/>
        <pt x="571" y="27" on="1"/>
        <pt x="569" y="22" on="0"/>
        <pt x="566" y="22" on="1"/>
        <pt x="564" y="23" on="1"/>
        <pt x="562" y="16" on="1"/>
        <pt x="563" y="15" on="0"/>
        <pt x="568" y="15" on="1"/>
        <pt x="575" y="15" on="0"/>
        <pt x="579" y="30" on="1"/>
        <pt x="591" y="59" on="1"/>
        <pt x="582" y="59" on="1"/>
        <pt x="576" y="41" on="1"/>
        <pt x="576" y="35" on="1"/>
        <pt x="575" y="35" on="1"/>
        <pt x="574" y="41" on="1"/>
      </contour>
      <contour>
        <pt x="595" y="15" on="1"/>
        <pt x="604" y="15" on="1"/>
        <pt x="604" y="28" on="1"/>
        <pt x="606" y="26" on="0"/>
        <pt x="610" y="26" on="1"/>
        <pt x="626" y="26" on="0"/>
        <pt x="626" y="44" on="1"/>
        <pt x="626" y="60" on="0"/>
        <pt x="613" y="60" on="1"/>
        <pt x="607" y="60" on="0"/>
        <pt x="603" y="55" on="1"/>
        <pt x="601" y="55" on="1"/>
        <pt x="600" y="59" on="1"/>
        <pt x="595" y="59" on="1"/>
      </contour>
      <contour>
        <pt x="611" y="53" on="1"/>
        <pt x="617" y="53" on="0"/>
        <pt x="617" y="44" on="1"/>
        <pt x="617" y="33" on="0"/>
        <pt x="608" y="33" on="1"/>
        <pt x="606" y="33" on="0"/>
        <pt x="604" y="35" on="1"/>
        <pt x="604" y="47" on="1"/>
        <pt x="604" y="53" on="0"/>
      </contour>
      <contour>
        <pt x="656" y="35" on="1"/>
        <pt x="654" y="33" on="0"/>
        <pt x="648" y="33" on="1"/>
        <pt x="640" y="33" on="0"/>
        <pt x="640" y="40" on="1"/>
        <pt x="661" y="40" on="1"/>
        <pt x="661" y="47" on="1"/>
        <pt x="661" y="60" on="0"/>
        <pt x="647" y="60" on="1"/>
        <pt x="631" y="60" on="0"/>
        <pt x="631" y="42" on="1"/>
        <pt x="631" y="26" on="0"/>
        <pt x="647" y="26" on="1"/>
        <pt x="655" y="26" on="0"/>
        <pt x="659" y="30" on="1"/>
      </contour>
      <contour>
        <pt x="647" y="53" on="1"/>
        <pt x="654" y="53" on="0"/>
        <pt x="653" y="46" on="1"/>
        <pt x="640" y="46" on="1"/>
        <pt x="640" y="53" on="0"/>
      </contour>
      <contour>
        <pt x="92" y="27" on="1"/>
        <pt x="101" y="27" on="1"/>
        <pt x="101" y="41" on="1"/>
        <pt x="106" y="41" on="1"/>
        <pt x="113" y="41" on="0"/>
        <pt x="124" y="47" on="0"/>
        <pt x="124" y="55" on="1"/>
        <pt x="124" y="65" on="0"/>
        <pt x="112" y="69" on="0"/>
        <pt x="105" y="69" on="1"/>
        <pt x="92" y="69" on="1"/>
      </contour>
      <contour>
        <pt x="106" y="62" on="1"/>
        <pt x="115" y="62" on="0"/>
        <pt x="115" y="56" on="1"/>
        <pt x="115" y="50" on="0"/>
        <pt x="110" y="49" on="0"/>
        <pt x="105" y="49" on="1"/>
        <pt x="101" y="49" on="1"/>
        <pt x="101" y="62" on="1"/>
      </contour>
      <contour>
        <pt x="200" y="38" on="1"/>
        <pt x="200" y="33" on="0"/>
        <pt x="192" y="33" on="1"/>
        <pt x="189" y="33" on="0"/>
        <pt x="185" y="34" on="0"/>
        <pt x="181" y="36" on="1"/>
        <pt x="178" y="27" on="1"/>
        <pt x="182" y="26" on="0"/>
        <pt x="188" y="25" on="0"/>
        <pt x="193" y="25" on="1"/>
        <pt x="209" y="25" on="0"/>
        <pt x="209" y="39" on="1"/>
        <pt x="209" y="44" on="0"/>
        <pt x="202" y="49" on="0"/>
        <pt x="195" y="52" on="0"/>
        <pt x="188" y="55" on="0"/>
        <pt x="188" y="58" on="1"/>
        <pt x="188" y="61" on="0"/>
        <pt x="195" y="61" on="1"/>
        <pt x="198" y="61" on="0"/>
        <pt x="203" y="60" on="0"/>
        <pt x="206" y="59" on="1"/>
        <pt x="208" y="67" on="1"/>
        <pt x="204" y="68" on="0"/>
        <pt x="198" y="69" on="0"/>
        <pt x="195" y="69" on="1"/>
        <pt x="179" y="69" on="0"/>
        <pt x="179" y="56" on="1"/>
        <pt x="179" y="51" on="0"/>
        <pt x="186" y="46" on="0"/>
        <pt x="193" y="43" on="0"/>
        <pt x="200" y="40" on="0"/>
      </contour>
      <contour>
        <pt x="239" y="34" on="1"/>
        <pt x="237" y="32" on="0"/>
        <pt x="231" y="32" on="1"/>
        <pt x="223" y="32" on="0"/>
        <pt x="223" y="39" on="1"/>
        <pt x="244" y="39" on="1"/>
        <pt x="244" y="46" on="1"/>
        <pt x="244" y="59" on="0"/>
        <pt x="230" y="59" on="1"/>
        <pt x="214" y="59" on="0"/>
        <pt x="214" y="41" on="1"/>
        <pt x="214" y="25" on="0"/>
        <pt x="230" y="25" on="1"/>
        <pt x="238" y="25" on="0"/>
        <pt x="242" y="29" on="1"/>
      </contour>
      <contour>
        <pt x="230" y="52" on="1"/>
        <pt x="237" y="52" on="0"/>
        <pt x="236" y="45" on="1"/>
        <pt x="223" y="45" on="1"/>
        <pt x="223" y="52" on="0"/>
      </contour>
    </TTGlyph>
    <TTGlyph name="A" xMin="-44" yMin="0" xMax="692" yMax="712">
      <contour>
        <pt x="205" y="0" on="1"/>
        <pt x="-44" y="0" on="1"/>
        <pt x="-37" y="38" on="1"/>
        <pt x="-19" y="48" on="0"/>
        <pt x="21" y="63" on="0"/>
        <pt x="41" y="67" on="1"/>
        <pt x="437" y="712" on="1"/>
        <pt x="510" y="712" on="1"/>
        <pt x="623" y="67" on="1"/>
        <pt x="642" y="63" on="0"/>
        <pt x="679" y="47" on="0"/>
        <pt x="692" y="38" on="1"/>
        <pt x="684" y="0" on="1"/>
        <pt x="376" y="0" on="1"/>
        <pt x="383" y="38" on="1"/>
        <pt x="404" y="48" on="0"/>
        <pt x="451" y="63" on="0"/>
        <pt x="472" y="67" on="1"/>
        <pt x="448" y="226" on="1"/>
        <pt x="227" y="226" on="1"/>
        <pt x="132" y="67" on="1"/>
        <pt x="153" y="64" on="0"/>
        <pt x="195" y="49" on="0"/>
        <pt x="212" y="38" on="1"/>
      </contour>
      <contour>
        <pt x="261" y="291" on="1"/>
        <pt x="440" y="291" on="1"/>
        <pt x="412" y="482" on="1"/>
        <pt x="412" y="568" on="1"/>
        <pt x="410" y="568" on="1"/>
        <pt x="372" y="480" on="1"/>
      </contour>
    </TTGlyph>
    <TTGlyph name="AE" xMin="-44" yMin="0" xMax="1001" yMax="700">
      <contour>
        <pt x="1001" y="700" on="1"/>
        <pt x="991" y="655" on="0"/>
        <pt x="960" y="559" on="0"/>
        <pt x="943" y="517" on="1"/>
        <pt x="901" y="517" on="1"/>
        <pt x="880" y="635" on="1"/>
        <pt x="693" y="635" on="1"/>
        <pt x="641" y="390" on="1"/>
        <pt x="764" y="390" on="1"/>
        <pt x="824" y="467" on="1"/>
        <pt x="855" y="467" on="1"/>
        <pt x="853" y="443" on="0"/>
        <pt x="844" y="386" on="0"/>
        <pt x="832" y="328" on="0"/>
        <pt x="817" y="271" on="0"/>
        <pt x="809" y="246" on="1"/>
        <pt x="777" y="246" on="1"/>
        <pt x="750" y="325" on="1"/>
        <pt x="627" y="325" on="1"/>
        <pt x="572" y="65" on="1"/>
        <pt x="767" y="65" on="1"/>
        <pt x="847" y="192" on="1"/>
        <pt x="889" y="192" on="1"/>
        <pt x="889" y="173" on="0"/>
        <pt x="886" y="125" on="0"/>
        <pt x="881" y="74" on="0"/>
        <pt x="873" y="22" on="0"/>
        <pt x="868" y="0" on="1"/>
        <pt x="332" y="0" on="1"/>
        <pt x="339" y="38" on="1"/>
        <pt x="357" y="46" on="0"/>
        <pt x="400" y="62" on="0"/>
        <pt x="423" y="67" on="1"/>
        <pt x="461" y="244" on="1"/>
        <pt x="279" y="244" on="1"/>
        <pt x="141" y="67" on="1"/>
        <pt x="179" y="58" on="0"/>
        <pt x="211" y="38" on="1"/>
        <pt x="204" y="0" on="1"/>
        <pt x="-44" y="0" on="1"/>
        <pt x="-37" y="38" on="1"/>
        <pt x="-19" y="48" on="0"/>
        <pt x="21" y="63" on="0"/>
        <pt x="40" y="67" on="1"/>
        <pt x="508" y="638" on="1"/>
        <pt x="494" y="643" on="0"/>
        <pt x="466" y="654" on="0"/>
        <pt x="455" y="662" on="1"/>
        <pt x="463" y="700" on="1"/>
      </contour>
      <contour>
        <pt x="329" y="309" on="1"/>
        <pt x="476" y="309" on="1"/>
        <pt x="540" y="594" on="1"/>
        <pt x="538" y="594" on="1"/>
        <pt x="484" y="504" on="1"/>
      </contour>
    </TTGlyph>
    <TTGlyph name="Aacute" xMin="-44" yMin="0" xMax="708" yMax="899">
      <component glyphName="A" x="0" y="0" flags="0x204"/>
      <component glyphName="uniF6C9" x="78" y="0" flags="0x4"/>
    </TTGlyph>
    <TTGlyph name="Acircumflex" xMin="-44" yMin="0" xMax="692" yMax="895">
      <component glyphName="A" x="0" y="0" flags="0x204"/>
      <component glyphName="uniF408" x="38" y="0" flags="0x4"/>
    </TTGlyph>
    <TTGlyph name="Adieresis" xMin="-44" yMin="0" xMax="692" yMax="857">
      <component glyphName="A" x="0" y="0" flags="0x204"/>
      <component glyphName="uniF6CB" x="62" y="0" flags="0x4"/>
    </TTGlyph>
    <TTGlyph name="Agrave" xMin="-44" yMin="0" xMax="692" yMax="901">
      <component glyphName="A" x="0" y="0" flags="0x204"/>
      <component glyphName="uniF6CE" x="74" y="0" flags="0x4"/>
    </TTGlyph>
    <TTGlyph name="Aring" xMin="-44" yMin="0" xMax="692" yMax="878">
      <contour>
        <pt x="356" y="777" on="1"/>
        <pt x="356" y="798" on="0"/>
        <pt x="378" y="835" on="0"/>
        <pt x="418" y="862" on="0"/>
        <pt x="475" y="878" on="0"/>
        <pt x="510" y="878" on="1"/>
        <pt x="558" y="878" on="0"/>
        <pt x="616" y="844" on="0"/>
        <pt x="616" y="806" on="1"/>
        <pt x="616" y="768" on="0"/>
        <pt x="555" y="716" on="0"/>
        <pt x="510" y="709" on="1"/>
        <pt x="623" y="67" on="1"/>
        <pt x="642" y="63" on="0"/>
        <pt x="679" y="47" on="0"/>
        <pt x="692" y="38" on="1"/>
        <pt x="684" y="0" on="1"/>
        <pt x="376" y="0" on="1"/>
        <pt x="383" y="38" on="1"/>
        <pt x="404" y="48" on="0"/>
        <pt x="451" y="63" on="0"/>
        <pt x="472" y="67" on="1"/>
        <pt x="448" y="226" on="1"/>
        <pt x="227" y="226" on="1"/>
        <pt x="132" y="67" on="1"/>
        <pt x="153" y="64" on="0"/>
        <pt x="195" y="49" on="0"/>
        <pt x="212" y="38" on="1"/>
        <pt x="205" y="0" on="1"/>
        <pt x="-44" y="0" on="1"/>
        <pt x="-37" y="38" on="1"/>
        <pt x="-19" y="48" on="0"/>
        <pt x="21" y="63" on="0"/>
        <pt x="41" y="67" on="1"/>
        <pt x="434" y="706" on="1"/>
        <pt x="356" y="715" on="0"/>
      </contour>
      <contour>
        <pt x="261" y="291" on="1"/>
        <pt x="440" y="291" on="1"/>
        <pt x="412" y="482" on="1"/>
        <pt x="412" y="568" on="1"/>
        <pt x="410" y="568" on="1"/>
        <pt x="372" y="480" on="1"/>
      </contour>
      <contour>
        <pt x="439" y="785" on="1"/>
        <pt x="439" y="769" on="0"/>
        <pt x="464" y="754" on="0"/>
        <pt x="479" y="754" on="1"/>
        <pt x="503" y="754" on="0"/>
        <pt x="533" y="776" on="0"/>
        <pt x="533" y="792" on="1"/>
        <pt x="533" y="812" on="0"/>
        <pt x="511" y="828" on="0"/>
        <pt x="492" y="828" on="1"/>
        <pt x="469" y="828" on="0"/>
        <pt x="439" y="805" on="0"/>
      </contour>
    </TTGlyph>
    <TTGlyph name="Atilde" xMin="-44" yMin="0" xMax="692" yMax="876">
      <component glyphName="A" x="0" y="0" flags="0x204"/>
      <component glyphName="uniF40D" x="-23" y="0" flags="0x4"/>
    </TTGlyph>
    <TTGlyph name="B" xMin="-24" yMin="-7" xMax="653" yMax="705">
      <contour>
        <pt x="-24" y="-1" on="1"/>
        <pt x="-17" y="37" on="1"/>
        <pt x="5" y="48" on="0"/>
        <pt x="51" y="64" on="0"/>
        <pt x="72" y="66" on="1"/>
        <pt x="192" y="632" on="1"/>
        <pt x="172" y="636" on="0"/>
        <pt x="132" y="651" on="0"/>
        <pt x="116" y="661" on="1"/>
        <pt x="124" y="699" on="1"/>
        <pt x="283" y="699" on="1"/>
        <pt x="321" y="699" on="0"/>
        <pt x="392" y="705" on="0"/>
        <pt x="436" y="705" on="1"/>
        <pt x="484" y="705" on="0"/>
        <pt x="564" y="690" on="0"/>
        <pt x="621" y="659" on="0"/>
        <pt x="653" y="608" on="0"/>
        <pt x="653" y="572" on="1"/>
        <pt x="653" y="530" on="0"/>
        <pt x="624" y="464" on="0"/>
        <pt x="573" y="414" on="0"/>
        <pt x="503" y="382" on="0"/>
        <pt x="462" y="374" on="1"/>
        <pt x="462" y="370" on="1"/>
        <pt x="489" y="368" on="0"/>
        <pt x="543" y="352" on="0"/>
        <pt x="586" y="320" on="0"/>
        <pt x="613" y="271" on="0"/>
        <pt x="613" y="237" on="1"/>
        <pt x="613" y="183" on="0"/>
        <pt x="570" y="94" on="0"/>
        <pt x="486" y="29" on="0"/>
        <pt x="360" y="-7" on="0"/>
        <pt x="277" y="-7" on="1"/>
        <pt x="256" y="-7" on="0"/>
        <pt x="207" y="-5" on="0"/>
        <pt x="157" y="-3" on="0"/>
        <pt x="111" y="-1" on="0"/>
        <pt x="95" y="-1" on="1"/>
      </contour>
      <contour>
        <pt x="290" y="58" on="1"/>
        <pt x="327" y="58" on="0"/>
        <pt x="389" y="84" on="0"/>
        <pt x="433" y="131" on="0"/>
        <pt x="458" y="194" on="0"/>
        <pt x="458" y="231" on="1"/>
        <pt x="458" y="286" on="0"/>
        <pt x="387" y="322" on="0"/>
        <pt x="323" y="322" on="1"/>
        <pt x="270" y="322" on="1"/>
        <pt x="216" y="65" on="1"/>
        <pt x="229" y="62" on="0"/>
        <pt x="259" y="58" on="0"/>
      </contour>
      <contour>
        <pt x="316" y="387" on="1"/>
        <pt x="333" y="387" on="0"/>
        <pt x="368" y="390" on="0"/>
        <pt x="383" y="392" on="1"/>
        <pt x="443" y="415" on="0"/>
        <pt x="503" y="501" on="0"/>
        <pt x="503" y="558" on="1"/>
        <pt x="503" y="597" on="0"/>
        <pt x="457" y="640" on="0"/>
        <pt x="405" y="640" on="1"/>
        <pt x="384" y="640" on="0"/>
        <pt x="351" y="638" on="0"/>
        <pt x="337" y="636" on="1"/>
        <pt x="284" y="387" on="1"/>
      </contour>
    </TTGlyph>
    <TTGlyph name="C" xMin="59" yMin="-12" xMax="695" yMax="712">
      <contour>
        <pt x="561" y="210" on="1"/>
        <pt x="603" y="210" on="1"/>
        <pt x="603" y="194" on="0"/>
        <pt x="601" y="149" on="0"/>
        <pt x="595" y="98" on="0"/>
        <pt x="587" y="48" on="0"/>
        <pt x="582" y="28" on="1"/>
        <pt x="561" y="17" on="0"/>
        <pt x="510" y="2" on="0"/>
        <pt x="458" y="-8" on="0"/>
        <pt x="410" y="-12" on="0"/>
        <pt x="392" y="-12" on="1"/>
        <pt x="300" y="-12" on="0"/>
        <pt x="174" y="38" on="0"/>
        <pt x="94" y="118" on="0"/>
        <pt x="59" y="218" on="0"/>
        <pt x="59" y="269" on="1"/>
        <pt x="59" y="368" on="0"/>
        <pt x="117" y="531" on="0"/>
        <pt x="228" y="648" on="0"/>
        <pt x="389" y="712" on="0"/>
        <pt x="491" y="712" on="1"/>
        <pt x="557" y="712" on="0"/>
        <pt x="662" y="693" on="0"/>
        <pt x="695" y="677" on="1"/>
        <pt x="692" y="661" on="0"/>
        <pt x="678" y="611" on="0"/>
        <pt x="660" y="556" on="0"/>
        <pt x="640" y="503" on="0"/>
        <pt x="631" y="485" on="1"/>
        <pt x="589" y="485" on="1"/>
        <pt x="566" y="636" on="1"/>
        <pt x="557" y="641" on="0"/>
        <pt x="515" y="647" on="0"/>
        <pt x="494" y="647" on="1"/>
        <pt x="436" y="647" on="0"/>
        <pt x="339" y="591" on="0"/>
        <pt x="268" y="489" on="0"/>
        <pt x="229" y="344" on="0"/>
        <pt x="229" y="255" on="1"/>
        <pt x="229" y="199" on="0"/>
        <pt x="261" y="122" on="0"/>
        <pt x="312" y="74" on="0"/>
        <pt x="373" y="53" on="0"/>
        <pt x="402" y="53" on="1"/>
        <pt x="431" y="53" on="0"/>
        <pt x="473" y="64" on="0"/>
        <pt x="483" y="70" on="1"/>
      </contour>
    </TTGlyph>
    <TTGlyph name="Ccedilla" xMin="59" yMin="-285" xMax="695" yMax="712">
      <contour>
        <pt x="561" y="210" on="1"/>
        <pt x="603" y="210" on="1"/>
        <pt x="603" y="194" on="0"/>
        <pt x="601" y="149" on="0"/>
        <pt x="595" y="98" on="0"/>
        <pt x="587" y="48" on="0"/>
        <pt x="582" y="28" on="1"/>
        <pt x="563" y="18" on="0"/>
        <pt x="517" y="3" on="0"/>
        <pt x="469" y="-6" on="0"/>
        <pt x="423" y="-11" on="0"/>
        <pt x="404" y="-12" on="1"/>
        <pt x="369" y="-70" on="1"/>
        <pt x="427" y="-72" on="0"/>
        <pt x="477" y="-112" on="0"/>
        <pt x="477" y="-147" on="1"/>
        <pt x="477" y="-185" on="0"/>
        <pt x="426" y="-237" on="0"/>
        <pt x="354" y="-270" on="0"/>
        <pt x="274" y="-285" on="0"/>
        <pt x="245" y="-285" on="1"/>
        <pt x="245" y="-239" on="1"/>
        <pt x="263" y="-237" on="0"/>
        <pt x="298" y="-227" on="0"/>
        <pt x="327" y="-209" on="0"/>
        <pt x="344" y="-184" on="0"/>
        <pt x="344" y="-167" on="1"/>
        <pt x="343" y="-149" on="0"/>
        <pt x="323" y="-127" on="0"/>
        <pt x="288" y="-125" on="1"/>
        <pt x="342" y="-10" on="1"/>
        <pt x="264" y="-3" on="0"/>
        <pt x="157" y="50" on="0"/>
        <pt x="89" y="128" on="0"/>
        <pt x="59" y="222" on="0"/>
        <pt x="59" y="269" on="1"/>
        <pt x="59" y="368" on="0"/>
        <pt x="117" y="531" on="0"/>
        <pt x="228" y="648" on="0"/>
        <pt x="389" y="712" on="0"/>
        <pt x="491" y="712" on="1"/>
        <pt x="557" y="712" on="0"/>
        <pt x="662" y="693" on="0"/>
        <pt x="695" y="677" on="1"/>
        <pt x="692" y="661" on="0"/>
        <pt x="678" y="611" on="0"/>
        <pt x="660" y="556" on="0"/>
        <pt x="640" y="503" on="0"/>
        <pt x="631" y="485" on="1"/>
        <pt x="589" y="485" on="1"/>
        <pt x="566" y="636" on="1"/>
        <pt x="557" y="641" on="0"/>
        <pt x="515" y="647" on="0"/>
        <pt x="494" y="647" on="1"/>
        <pt x="436" y="647" on="0"/>
        <pt x="339" y="591" on="0"/>
        <pt x="268" y="489" on="0"/>
        <pt x="229" y="344" on="0"/>
        <pt x="229" y="255" on="1"/>
        <pt x="229" y="199" on="0"/>
        <pt x="261" y="122" on="0"/>
        <pt x="312" y="74" on="0"/>
        <pt x="373" y="53" on="0"/>
        <pt x="402" y="53" on="1"/>
        <pt x="431" y="53" on="0"/>
        <pt x="473" y="64" on="0"/>
        <pt x="483" y="70" on="1"/>
      </contour>
    </TTGlyph>
    <TTGlyph name="D" xMin="-24" yMin="-9" xMax="739" yMax="708">
      <contour>
        <pt x="-24" y="0" on="1"/>
        <pt x="-17" y="38" on="1"/>
        <pt x="2" y="48" on="0"/>
        <pt x="48" y="63" on="0"/>
        <pt x="72" y="67" on="1"/>
        <pt x="192" y="633" on="1"/>
        <pt x="169" y="638" on="0"/>
        <pt x="130" y="653" on="0"/>
        <pt x="116" y="662" on="1"/>
        <pt x="124" y="700" on="1"/>
        <pt x="240" y="700" on="1"/>
        <pt x="257" y="700" on="0"/>
        <pt x="308" y="702" on="0"/>
        <pt x="363" y="705" on="0"/>
        <pt x="414" y="708" on="0"/>
        <pt x="432" y="708" on="1"/>
        <pt x="516" y="708" on="0"/>
        <pt x="633" y="672" on="0"/>
        <pt x="706" y="606" on="0"/>
        <pt x="739" y="515" on="0"/>
        <pt x="739" y="460" on="1"/>
        <pt x="739" y="403" on="0"/>
        <pt x="719" y="290" on="0"/>
        <pt x="673" y="186" on="0"/>
        <pt x="601" y="96" on="0"/>
        <pt x="496" y="29" on="0"/>
        <pt x="358" y="-9" on="0"/>
        <pt x="269" y="-9" on="1"/>
        <pt x="256" y="-9" on="0"/>
        <pt x="211" y="-6" on="0"/>
        <pt x="159" y="-3" on="0"/>
        <pt x="108" y="0" on="0"/>
        <pt x="89" y="0" on="1"/>
      </contour>
      <contour>
        <pt x="409" y="643" on="1"/>
        <pt x="391" y="643" on="0"/>
        <pt x="359" y="641" on="0"/>
        <pt x="345" y="639" on="1"/>
        <pt x="222" y="60" on="1"/>
        <pt x="237" y="58" on="0"/>
        <pt x="275" y="56" on="0"/>
        <pt x="286" y="56" on="1"/>
        <pt x="367" y="56" on="0"/>
        <pt x="477" y="133" on="0"/>
        <pt x="545" y="254" on="0"/>
        <pt x="574" y="402" on="0"/>
        <pt x="574" y="473" on="1"/>
        <pt x="574" y="514" on="0"/>
        <pt x="558" y="578" on="0"/>
        <pt x="520" y="621" on="0"/>
        <pt x="456" y="643" on="0"/>
      </contour>
    </TTGlyph>
    <TTGlyph name="E" xMin="-24" yMin="0" xMax="650" yMax="700">
      <contour>
        <pt x="650" y="700" on="1"/>
        <pt x="640" y="655" on="0"/>
        <pt x="610" y="559" on="0"/>
        <pt x="592" y="517" on="1"/>
        <pt x="550" y="517" on="1"/>
        <pt x="529" y="635" on="1"/>
        <pt x="342" y="635" on="1"/>
        <pt x="290" y="390" on="1"/>
        <pt x="413" y="390" on="1"/>
        <pt x="473" y="467" on="1"/>
        <pt x="504" y="467" on="1"/>
        <pt x="499" y="418" on="0"/>
        <pt x="474" y="298" on="0"/>
        <pt x="458" y="246" on="1"/>
        <pt x="426" y="246" on="1"/>
        <pt x="399" y="325" on="1"/>
        <pt x="276" y="325" on="1"/>
        <pt x="222" y="65" on="1"/>
        <pt x="416" y="65" on="1"/>
        <pt x="496" y="192" on="1"/>
        <pt x="538" y="192" on="1"/>
        <pt x="538" y="174" on="0"/>
        <pt x="535" y="126" on="0"/>
        <pt x="530" y="74" on="0"/>
        <pt x="522" y="22" on="0"/>
        <pt x="517" y="0" on="1"/>
        <pt x="-24" y="0" on="1"/>
        <pt x="-17" y="38" on="1"/>
        <pt x="3" y="47" on="0"/>
        <pt x="48" y="63" on="0"/>
        <pt x="72" y="67" on="1"/>
        <pt x="192" y="633" on="1"/>
        <pt x="172" y="637" on="0"/>
        <pt x="132" y="652" on="0"/>
        <pt x="116" y="662" on="1"/>
        <pt x="124" y="700" on="1"/>
      </contour>
    </TTGlyph>
    <TTGlyph name="Eacute" xMin="-24" yMin="0" xMax="650" yMax="899">
      <component glyphName="E" x="0" y="0" flags="0x204"/>
      <component glyphName="uniF6C9" x="-19" y="0" flags="0x4"/>
    </TTGlyph>
    <TTGlyph name="Ecircumflex" xMin="-24" yMin="0" xMax="650" yMax="895">
      <component glyphName="E" x="0" y="0" flags="0x204"/>
      <component glyphName="uniF408" x="-12" y="0" flags="0x4"/>
    </TTGlyph>
    <TTGlyph name="Edieresis" xMin="-24" yMin="0" xMax="650" yMax="857">
      <component glyphName="E" x="0" y="0" flags="0x204"/>
      <component glyphName="uniF6CB" x="-6" y="0" flags="0x4"/>
    </TTGlyph>
    <TTGlyph name="Egrave" xMin="-24" yMin="0" xMax="650" yMax="901">
      <component glyphName="E" x="0" y="0" flags="0x204"/>
      <component glyphName="uniF6CE" x="35" y="0" flags="0x4"/>
    </TTGlyph>
    <TTGlyph name="Eth" xMin="-24" yMin="-9" xMax="739" yMax="708">
      <contour>
        <pt x="-24" y="0" on="1"/>
        <pt x="-17" y="38" on="1"/>
        <pt x="2" y="48" on="0"/>
        <pt x="48" y="63" on="0"/>
        <pt x="72" y="67" on="1"/>
        <pt x="127" y="329" on="1"/>
        <pt x="40" y="329" on="1"/>
        <pt x="53" y="389" on="1"/>
        <pt x="140" y="389" on="1"/>
        <pt x="192" y="633" on="1"/>
        <pt x="169" y="638" on="0"/>
        <pt x="130" y="653" on="0"/>
        <pt x="116" y="662" on="1"/>
        <pt x="124" y="700" on="1"/>
        <pt x="240" y="700" on="1"/>
        <pt x="257" y="700" on="0"/>
        <pt x="308" y="702" on="0"/>
        <pt x="363" y="705" on="0"/>
        <pt x="414" y="708" on="0"/>
        <pt x="432" y="708" on="1"/>
        <pt x="516" y="708" on="0"/>
        <pt x="633" y="672" on="0"/>
        <pt x="706" y="606" on="0"/>
        <pt x="739" y="515" on="0"/>
        <pt x="739" y="460" on="1"/>
        <pt x="739" y="403" on="0"/>
        <pt x="719" y="290" on="0"/>
        <pt x="673" y="186" on="0"/>
        <pt x="601" y="96" on="0"/>
        <pt x="496" y="29" on="0"/>
        <pt x="358" y="-9" on="0"/>
        <pt x="269" y="-9" on="1"/>
        <pt x="256" y="-9" on="0"/>
        <pt x="211" y="-6" on="0"/>
        <pt x="159" y="-3" on="0"/>
        <pt x="108" y="0" on="0"/>
        <pt x="89" y="0" on="1"/>
      </contour>
      <contour>
        <pt x="409" y="643" on="1"/>
        <pt x="391" y="643" on="0"/>
        <pt x="351" y="641" on="0"/>
        <pt x="337" y="639" on="1"/>
        <pt x="283" y="389" on="1"/>
        <pt x="435" y="389" on="1"/>
        <pt x="422" y="329" on="1"/>
        <pt x="271" y="329" on="1"/>
        <pt x="214" y="60" on="1"/>
        <pt x="229" y="58" on="0"/>
        <pt x="275" y="56" on="0"/>
        <pt x="286" y="56" on="1"/>
        <pt x="367" y="56" on="0"/>
        <pt x="477" y="133" on="0"/>
        <pt x="545" y="254" on="0"/>
        <pt x="574" y="402" on="0"/>
        <pt x="574" y="473" on="1"/>
        <pt x="574" y="514" on="0"/>
        <pt x="558" y="578" on="0"/>
        <pt x="520" y="621" on="0"/>
        <pt x="456" y="643" on="0"/>
      </contour>
    </TTGlyph>
    <TTGlyph name="Euro" xMin="-37" yMin="-12" xMax="635" yMax="712">
      <contour>
        <pt x="221" y="381" on="1"/>
        <pt x="218" y="366" on="0"/>
        <pt x="215" y="334" on="0"/>
        <pt x="213" y="318" on="1"/>
        <pt x="417" y="318" on="1"/>
        <pt x="385" y="251" on="1"/>
        <pt x="210" y="251" on="1"/>
        <pt x="210" y="196" on="0"/>
        <pt x="232" y="121" on="0"/>
        <pt x="269" y="74" on="0"/>
        <pt x="318" y="53" on="0"/>
        <pt x="345" y="53" on="1"/>
        <pt x="374" y="53" on="0"/>
        <pt x="413" y="64" on="0"/>
        <pt x="423" y="70" on="1"/>
        <pt x="501" y="210" on="1"/>
        <pt x="543" y="210" on="1"/>
        <pt x="543" y="194" on="0"/>
        <pt x="541" y="149" on="0"/>
        <pt x="535" y="98" on="0"/>
        <pt x="527" y="48" on="0"/>
        <pt x="522" y="28" on="1"/>
        <pt x="501" y="17" on="0"/>
        <pt x="451" y="2" on="0"/>
        <pt x="400" y="-8" on="0"/>
        <pt x="352" y="-12" on="0"/>
        <pt x="334" y="-12" on="1"/>
        <pt x="254" y="-12" on="0"/>
        <pt x="149" y="34" on="0"/>
        <pt x="86" y="108" on="0"/>
        <pt x="60" y="202" on="0"/>
        <pt x="58" y="251" on="1"/>
        <pt x="-37" y="251" on="1"/>
        <pt x="-6" y="318" on="1"/>
        <pt x="60" y="318" on="1"/>
        <pt x="61" y="334" on="0"/>
        <pt x="65" y="365" on="0"/>
        <pt x="68" y="381" on="1"/>
        <pt x="-10" y="381" on="1"/>
        <pt x="22" y="448" on="1"/>
        <pt x="85" y="448" on="1"/>
        <pt x="104" y="507" on="0"/>
        <pt x="169" y="605" on="0"/>
        <pt x="258" y="674" on="0"/>
        <pt x="367" y="712" on="0"/>
        <pt x="432" y="712" on="1"/>
        <pt x="498" y="712" on="0"/>
        <pt x="602" y="693" on="0"/>
        <pt x="635" y="677" on="1"/>
        <pt x="632" y="661" on="0"/>
        <pt x="618" y="611" on="0"/>
        <pt x="600" y="556" on="0"/>
        <pt x="580" y="503" on="0"/>
        <pt x="571" y="485" on="1"/>
        <pt x="529" y="485" on="1"/>
        <pt x="506" y="636" on="1"/>
        <pt x="497" y="641" on="0"/>
        <pt x="457" y="647" on="0"/>
        <pt x="437" y="647" on="1"/>
        <pt x="371" y="647" on="0"/>
        <pt x="265" y="543" on="0"/>
        <pt x="237" y="448" on="1"/>
        <pt x="478" y="448" on="1"/>
        <pt x="446" y="381" on="1"/>
      </contour>
    </TTGlyph>
    <TTGlyph name="F" xMin="-24" yMin="0" xMax="647" yMax="700">
      <contour>
        <pt x="212" y="67" on="1"/>
        <pt x="257" y="61" on="0"/>
        <pt x="292" y="38" on="1"/>
        <pt x="285" y="0" on="1"/>
        <pt x="-24" y="0" on="1"/>
        <pt x="-17" y="38" on="1"/>
        <pt x="1" y="47" on="0"/>
        <pt x="40" y="62" on="0"/>
        <pt x="62" y="67" on="1"/>
        <pt x="182" y="633" on="1"/>
        <pt x="140" y="645" on="0"/>
        <pt x="116" y="662" on="1"/>
        <pt x="124" y="700" on="1"/>
        <pt x="647" y="700" on="1"/>
        <pt x="643" y="680" on="0"/>
        <pt x="630" y="633" on="0"/>
        <pt x="615" y="584" on="0"/>
        <pt x="598" y="537" on="0"/>
        <pt x="589" y="517" on="1"/>
        <pt x="547" y="517" on="1"/>
        <pt x="526" y="635" on="1"/>
        <pt x="332" y="635" on="1"/>
        <pt x="276" y="372" on="1"/>
        <pt x="414" y="372" on="1"/>
        <pt x="475" y="449" on="1"/>
        <pt x="506" y="449" on="1"/>
        <pt x="504" y="424" on="0"/>
        <pt x="495" y="366" on="0"/>
        <pt x="482" y="306" on="0"/>
        <pt x="466" y="250" on="0"/>
        <pt x="459" y="228" on="1"/>
        <pt x="428" y="228" on="1"/>
        <pt x="401" y="307" on="1"/>
        <pt x="263" y="307" on="1"/>
      </contour>
    </TTGlyph>
    <TTGlyph name="G" xMin="59" yMin="-12" xMax="726" yMax="712">
      <contour>
        <pt x="603" y="44" on="1"/>
        <pt x="578" y="31" on="0"/>
        <pt x="515" y="10" on="0"/>
        <pt x="450" y="-4" on="0"/>
        <pt x="390" y="-12" on="0"/>
        <pt x="368" y="-12" on="1"/>
        <pt x="300" y="-12" on="0"/>
        <pt x="186" y="22" on="0"/>
        <pt x="104" y="92" on="0"/>
        <pt x="59" y="198" on="0"/>
        <pt x="59" y="270" on="1"/>
        <pt x="59" y="369" on="0"/>
        <pt x="118" y="531" on="0"/>
        <pt x="229" y="648" on="0"/>
        <pt x="391" y="712" on="0"/>
        <pt x="493" y="712" on="1"/>
        <pt x="526" y="712" on="0"/>
        <pt x="591" y="707" on="0"/>
        <pt x="650" y="698" on="0"/>
        <pt x="698" y="685" on="0"/>
        <pt x="713" y="677" on="1"/>
        <pt x="710" y="662" on="0"/>
        <pt x="696" y="615" on="0"/>
        <pt x="678" y="561" on="0"/>
        <pt x="658" y="507" on="0"/>
        <pt x="648" y="485" on="1"/>
        <pt x="607" y="485" on="1"/>
        <pt x="584" y="637" on="1"/>
        <pt x="570" y="642" on="0"/>
        <pt x="519" y="647" on="0"/>
        <pt x="497" y="647" on="1"/>
        <pt x="430" y="647" on="0"/>
        <pt x="329" y="582" on="0"/>
        <pt x="262" y="472" on="0"/>
        <pt x="229" y="328" on="0"/>
        <pt x="229" y="249" on="1"/>
        <pt x="229" y="197" on="0"/>
        <pt x="253" y="123" on="0"/>
        <pt x="294" y="75" on="0"/>
        <pt x="349" y="53" on="0"/>
        <pt x="381" y="53" on="1"/>
        <pt x="410" y="53" on="0"/>
        <pt x="473" y="69" on="0"/>
        <pt x="491" y="80" on="1"/>
        <pt x="531" y="268" on="1"/>
        <pt x="506" y="270" on="0"/>
        <pt x="462" y="286" on="0"/>
        <pt x="445" y="297" on="1"/>
        <pt x="453" y="335" on="1"/>
        <pt x="726" y="335" on="1"/>
        <pt x="718" y="297" on="1"/>
        <pt x="707" y="288" on="0"/>
        <pt x="674" y="273" on="0"/>
        <pt x="650" y="268" on="1"/>
      </contour>
    </TTGlyph>
    <TTGlyph name="H" xMin="-24" yMin="0" xMax="853" yMax="700">
      <contour>
        <pt x="279" y="0" on="1"/>
        <pt x="-24" y="0" on="1"/>
        <pt x="-17" y="38" on="1"/>
        <pt x="3" y="48" on="0"/>
        <pt x="50" y="63" on="0"/>
        <pt x="72" y="67" on="1"/>
        <pt x="192" y="633" on="1"/>
        <pt x="169" y="637" on="0"/>
        <pt x="129" y="653" on="0"/>
        <pt x="116" y="662" on="1"/>
        <pt x="124" y="700" on="1"/>
        <pt x="427" y="700" on="1"/>
        <pt x="419" y="662" on="1"/>
        <pt x="404" y="651" on="0"/>
        <pt x="362" y="637" on="0"/>
        <pt x="342" y="633" on="1"/>
        <pt x="290" y="391" on="1"/>
        <pt x="555" y="391" on="1"/>
        <pt x="607" y="633" on="1"/>
        <pt x="564" y="644" on="0"/>
        <pt x="542" y="662" on="1"/>
        <pt x="550" y="700" on="1"/>
        <pt x="853" y="700" on="1"/>
        <pt x="845" y="662" on="1"/>
        <pt x="826" y="651" on="0"/>
        <pt x="779" y="636" on="0"/>
        <pt x="757" y="633" on="1"/>
        <pt x="637" y="67" on="1"/>
        <pt x="659" y="63" on="0"/>
        <pt x="698" y="47" on="0"/>
        <pt x="712" y="38" on="1"/>
        <pt x="705" y="0" on="1"/>
        <pt x="402" y="0" on="1"/>
        <pt x="409" y="38" on="1"/>
        <pt x="426" y="47" on="0"/>
        <pt x="466" y="63" on="0"/>
        <pt x="487" y="67" on="1"/>
        <pt x="541" y="326" on="1"/>
        <pt x="276" y="326" on="1"/>
        <pt x="222" y="67" on="1"/>
        <pt x="256" y="60" on="0"/>
        <pt x="286" y="38" on="1"/>
      </contour>
    </TTGlyph>
    <TTGlyph name="I" xMin="-14" yMin="0" xMax="446" yMax="700">
      <contour>
        <pt x="298" y="0" on="1"/>
        <pt x="-14" y="0" on="1"/>
        <pt x="-7" y="38" on="1"/>
        <pt x="40" y="60" on="0"/>
        <pt x="81" y="67" on="1"/>
        <pt x="201" y="633" on="1"/>
        <pt x="181" y="636" on="0"/>
        <pt x="142" y="651" on="0"/>
        <pt x="126" y="662" on="1"/>
        <pt x="134" y="700" on="1"/>
        <pt x="446" y="700" on="1"/>
        <pt x="438" y="662" on="1"/>
        <pt x="418" y="651" on="0"/>
        <pt x="371" y="636" on="0"/>
        <pt x="351" y="633" on="1"/>
        <pt x="231" y="67" on="1"/>
        <pt x="250" y="63" on="0"/>
        <pt x="290" y="49" on="0"/>
        <pt x="305" y="38" on="1"/>
      </contour>
    </TTGlyph>
    <TTGlyph name="Iacute" xMin="-14" yMin="0" xMax="463" yMax="899">
      <component glyphName="I" x="0" y="0" flags="0x204"/>
      <component glyphName="uniF6C9" x="-167" y="0" flags="0x4"/>
    </TTGlyph>
    <TTGlyph name="Icircumflex" xMin="-14" yMin="0" xMax="446" yMax="895">
      <component glyphName="I" x="0" y="0" flags="0x204"/>
      <component glyphName="uniF408" x="-140" y="0" flags="0x4"/>
    </TTGlyph>
    <TTGlyph name="Idieresis" xMin="-14" yMin="0" xMax="503" yMax="857">
      <component glyphName="I" x="0" y="0" flags="0x204"/>
      <component glyphName="uniF6CB" x="-120" y="0" flags="0x4"/>
    </TTGlyph>
    <TTGlyph name="Igrave" xMin="-14" yMin="0" xMax="446" yMax="901">
      <component glyphName="I" x="0" y="0" flags="0x204"/>
      <component glyphName="uniF6CE" x="-67" y="0" flags="0x4"/>
    </TTGlyph>
    <TTGlyph name="J" xMin="-43" yMin="-160" xMax="438" yMax="700">
      <contour>
        <pt x="129" y="700" on="1"/>
        <pt x="438" y="700" on="1"/>
        <pt x="430" y="662" on="1"/>
        <pt x="413" y="651" on="0"/>
        <pt x="366" y="636" on="0"/>
        <pt x="346" y="633" on="1"/>
        <pt x="238" y="121" on="1"/>
        <pt x="221" y="39" on="0"/>
        <pt x="150" y="-66" on="0"/>
        <pt x="69" y="-128" on="0"/>
        <pt x="-8" y="-156" on="0"/>
        <pt x="-31" y="-160" on="1"/>
        <pt x="-43" y="-134" on="1"/>
        <pt x="-24" y="-121" on="0"/>
        <pt x="11" y="-83" on="0"/>
        <pt x="44" y="-26" on="0"/>
        <pt x="74" y="56" on="0"/>
        <pt x="87" y="115" on="1"/>
        <pt x="196" y="633" on="1"/>
        <pt x="175" y="637" on="0"/>
        <pt x="135" y="652" on="0"/>
        <pt x="121" y="662" on="1"/>
      </contour>
    </TTGlyph>
    <TTGlyph name="K" xMin="-24" yMin="0" xMax="771" yMax="700">
      <contour>
        <pt x="499" y="700" on="1"/>
        <pt x="771" y="700" on="1"/>
        <pt x="763" y="662" on="1"/>
        <pt x="745" y="651" on="0"/>
        <pt x="698" y="636" on="0"/>
        <pt x="678" y="633" on="1"/>
        <pt x="436" y="390" on="1"/>
        <pt x="452" y="357" on="0"/>
        <pt x="498" y="277" on="0"/>
        <pt x="549" y="191" on="0"/>
        <pt x="604" y="103" on="0"/>
        <pt x="631" y="63" on="1"/>
        <pt x="673" y="34" on="1"/>
        <pt x="666" y="0" on="1"/>
        <pt x="498" y="0" on="1"/>
        <pt x="463" y="28" on="1"/>
        <pt x="445" y="58" on="0"/>
        <pt x="407" y="131" on="0"/>
        <pt x="371" y="210" on="0"/>
        <pt x="338" y="290" on="0"/>
        <pt x="325" y="328" on="1"/>
        <pt x="277" y="328" on="1"/>
        <pt x="222" y="67" on="1"/>
        <pt x="242" y="62" on="0"/>
        <pt x="275" y="46" on="0"/>
        <pt x="286" y="38" on="1"/>
        <pt x="279" y="0" on="1"/>
        <pt x="-24" y="0" on="1"/>
        <pt x="-17" y="38" on="1"/>
        <pt x="5" y="49" on="0"/>
        <pt x="50" y="63" on="0"/>
        <pt x="72" y="67" on="1"/>
        <pt x="192" y="633" on="1"/>
        <pt x="169" y="636" on="0"/>
        <pt x="129" y="652" on="0"/>
        <pt x="116" y="662" on="1"/>
        <pt x="124" y="700" on="1"/>
        <pt x="427" y="700" on="1"/>
        <pt x="419" y="662" on="1"/>
        <pt x="405" y="654" on="0"/>
        <pt x="364" y="638" on="0"/>
        <pt x="342" y="633" on="1"/>
        <pt x="288" y="379" on="1"/>
        <pt x="347" y="393" on="1"/>
        <pt x="558" y="633" on="1"/>
        <pt x="538" y="638" on="0"/>
        <pt x="503" y="653" on="0"/>
        <pt x="491" y="662" on="1"/>
      </contour>
    </TTGlyph>
    <TTGlyph name="L" xMin="-24" yMin="0" xMax="561" yMax="700">
      <contour>
        <pt x="124" y="700" on="1"/>
        <pt x="452" y="700" on="1"/>
        <pt x="444" y="662" on="1"/>
        <pt x="422" y="651" on="0"/>
        <pt x="367" y="636" on="0"/>
        <pt x="342" y="633" on="1"/>
        <pt x="222" y="65" on="1"/>
        <pt x="415" y="65" on="1"/>
        <pt x="519" y="244" on="1"/>
        <pt x="561" y="244" on="1"/>
        <pt x="561" y="221" on="0"/>
        <pt x="555" y="159" on="0"/>
        <pt x="545" y="91" on="0"/>
        <pt x="532" y="25" on="0"/>
        <pt x="525" y="0" on="1"/>
        <pt x="-24" y="0" on="1"/>
        <pt x="-17" y="38" on="1"/>
        <pt x="9" y="50" on="0"/>
        <pt x="53" y="64" on="0"/>
        <pt x="72" y="67" on="1"/>
        <pt x="192" y="633" on="1"/>
        <pt x="170" y="637" on="0"/>
        <pt x="130" y="651" on="0"/>
        <pt x="116" y="662" on="1"/>
      </contour>
    </TTGlyph>
    <TTGlyph name="M" xMin="-24" yMin="0" xMax="1013" yMax="700">
      <contour>
        <pt x="864" y="0" on="1"/>
        <pt x="565" y="0" on="1"/>
        <pt x="573" y="38" on="1"/>
        <pt x="595" y="48" on="0"/>
        <pt x="637" y="62" on="0"/>
        <pt x="660" y="67" on="1"/>
        <pt x="748" y="485" on="1"/>
        <pt x="778" y="602" on="1"/>
        <pt x="770" y="602" on="1"/>
        <pt x="715" y="495" on="1"/>
        <pt x="416" y="0" on="1"/>
        <pt x="371" y="0" on="1"/>
        <pt x="282" y="491" on="1"/>
        <pt x="270" y="608" on="1"/>
        <pt x="261" y="608" on="1"/>
        <pt x="235" y="481" on="1"/>
        <pt x="149" y="71" on="1"/>
        <pt x="167" y="67" on="0"/>
        <pt x="210" y="49" on="0"/>
        <pt x="227" y="38" on="1"/>
        <pt x="219" y="0" on="1"/>
        <pt x="-24" y="0" on="1"/>
        <pt x="-17" y="38" on="1"/>
        <pt x="0" y="47" on="0"/>
        <pt x="52" y="68" on="0"/>
        <pt x="75" y="72" on="1"/>
        <pt x="193" y="633" on="1"/>
        <pt x="173" y="637" on="0"/>
        <pt x="132" y="651" on="0"/>
        <pt x="117" y="662" on="1"/>
        <pt x="125" y="700" on="1"/>
        <pt x="396" y="700" on="1"/>
        <pt x="459" y="293" on="1"/>
        <pt x="467" y="197" on="1"/>
        <pt x="468" y="197" on="1"/>
        <pt x="515" y="295" on="1"/>
        <pt x="761" y="700" on="1"/>
        <pt x="1013" y="700" on="1"/>
        <pt x="1005" y="662" on="1"/>
        <pt x="987" y="651" on="0"/>
        <pt x="944" y="637" on="0"/>
        <pt x="923" y="633" on="1"/>
        <pt x="803" y="66" on="1"/>
        <pt x="823" y="62" on="0"/>
        <pt x="859" y="46" on="0"/>
        <pt x="872" y="38" on="1"/>
      </contour>
    </TTGlyph>
    <TTGlyph name="N" xMin="-24" yMin="-12" xMax="842" yMax="700">
      <contour>
        <pt x="595" y="700" on="1"/>
        <pt x="842" y="700" on="1"/>
        <pt x="834" y="662" on="1"/>
        <pt x="811" y="645" on="0"/>
        <pt x="763" y="624" on="0"/>
        <pt x="740" y="618" on="1"/>
        <pt x="606" y="-12" on="1"/>
        <pt x="525" y="-12" on="1"/>
        <pt x="277" y="498" on="1"/>
        <pt x="253" y="575" on="1"/>
        <pt x="250" y="575" on="1"/>
        <pt x="241" y="495" on="1"/>
        <pt x="152" y="78" on="1"/>
        <pt x="170" y="73" on="0"/>
        <pt x="215" y="50" on="0"/>
        <pt x="229" y="38" on="1"/>
        <pt x="222" y="0" on="1"/>
        <pt x="-24" y="0" on="1"/>
        <pt x="-17" y="38" on="1"/>
        <pt x="28" y="66" on="0"/>
        <pt x="76" y="78" on="1"/>
        <pt x="192" y="624" on="1"/>
        <pt x="175" y="631" on="0"/>
        <pt x="136" y="653" on="0"/>
        <pt x="125" y="663" on="1"/>
        <pt x="132" y="700" on="1"/>
        <pt x="344" y="700" on="1"/>
        <pt x="545" y="284" on="1"/>
        <pt x="575" y="198" on="1"/>
        <pt x="579" y="198" on="1"/>
        <pt x="594" y="284" on="1"/>
        <pt x="664" y="618" on="1"/>
        <pt x="642" y="626" on="0"/>
        <pt x="601" y="649" on="0"/>
        <pt x="587" y="662" on="1"/>
      </contour>
    </TTGlyph>
    <TTGlyph name="Ntilde" xMin="-24" yMin="-12" xMax="842" yMax="876">
      <component glyphName="N" x="0" y="0" flags="0x204"/>
      <component glyphName="uniF40D" x="-34" y="0" flags="0x4"/>
    </TTGlyph>
    <TTGlyph name="O" xMin="59" yMin="-12" xMax="756" yMax="712">
      <contour>
        <pt x="59" y="271" on="1"/>
        <pt x="59" y="363" on="0"/>
        <pt x="116" y="524" on="0"/>
        <pt x="223" y="643" on="0"/>
        <pt x="378" y="712" on="0"/>
        <pt x="476" y="712" on="1"/>
        <pt x="543" y="712" on="0"/>
        <pt x="647" y="673" on="0"/>
        <pt x="719" y="600" on="0"/>
        <pt x="756" y="496" on="0"/>
        <pt x="756" y="431" on="1"/>
        <pt x="756" y="349" on="0"/>
        <pt x="706" y="190" on="0"/>
        <pt x="604" y="65" on="0"/>
        <pt x="451" y="-12" on="0"/>
        <pt x="348" y="-12" on="1"/>
        <pt x="279" y="-12" on="0"/>
        <pt x="171" y="31" on="0"/>
        <pt x="97" y="107" on="0"/>
        <pt x="59" y="211" on="0"/>
      </contour>
      <contour>
        <pt x="229" y="252" on="1"/>
        <pt x="229" y="152" on="0"/>
        <pt x="304" y="53" on="0"/>
        <pt x="368" y="53" on="1"/>
        <pt x="425" y="53" on="0"/>
        <pt x="507" y="127" on="0"/>
        <pt x="561" y="242" on="0"/>
        <pt x="586" y="385" on="0"/>
        <pt x="586" y="454" on="1"/>
        <pt x="586" y="543" on="0"/>
        <pt x="525" y="647" on="0"/>
        <pt x="455" y="647" on="1"/>
        <pt x="416" y="647" on="0"/>
        <pt x="353" y="612" on="0"/>
        <pt x="302" y="552" on="0"/>
        <pt x="265" y="473" on="0"/>
        <pt x="241" y="385" on="0"/>
        <pt x="229" y="294" on="0"/>
      </contour>
    </TTGlyph>
    <TTGlyph name="OE" xMin="59" yMin="-12" xMax="1032" yMax="712">
      <contour>
        <pt x="441" y="0" on="1"/>
        <pt x="417" y="-5" on="0"/>
        <pt x="370" y="-12" on="0"/>
        <pt x="346" y="-12" on="1"/>
        <pt x="272" y="-12" on="0"/>
        <pt x="164" y="26" on="0"/>
        <pt x="94" y="97" on="0"/>
        <pt x="59" y="196" on="0"/>
        <pt x="59" y="258" on="1"/>
        <pt x="59" y="352" on="0"/>
        <pt x="114" y="518" on="0"/>
        <pt x="219" y="641" on="0"/>
        <pt x="372" y="712" on="0"/>
        <pt x="471" y="712" on="1"/>
        <pt x="481" y="712" on="0"/>
        <pt x="512" y="710" on="0"/>
        <pt x="545" y="707" on="0"/>
        <pt x="576" y="702" on="0"/>
        <pt x="588" y="700" on="1"/>
        <pt x="1032" y="700" on="1"/>
        <pt x="1021" y="655" on="0"/>
        <pt x="991" y="559" on="0"/>
        <pt x="974" y="517" on="1"/>
        <pt x="932" y="517" on="1"/>
        <pt x="911" y="635" on="1"/>
        <pt x="724" y="635" on="1"/>
        <pt x="672" y="390" on="1"/>
        <pt x="795" y="390" on="1"/>
        <pt x="855" y="467" on="1"/>
        <pt x="886" y="467" on="1"/>
        <pt x="881" y="418" on="0"/>
        <pt x="856" y="298" on="0"/>
        <pt x="840" y="246" on="1"/>
        <pt x="808" y="246" on="1"/>
        <pt x="781" y="325" on="1"/>
        <pt x="658" y="325" on="1"/>
        <pt x="603" y="65" on="1"/>
        <pt x="798" y="65" on="1"/>
        <pt x="878" y="192" on="1"/>
        <pt x="920" y="192" on="1"/>
        <pt x="920" y="173" on="0"/>
        <pt x="917" y="125" on="0"/>
        <pt x="912" y="74" on="0"/>
        <pt x="904" y="22" on="0"/>
        <pt x="899" y="0" on="1"/>
      </contour>
      <contour>
        <pt x="357" y="53" on="1"/>
        <pt x="381" y="53" on="0"/>
        <pt x="433" y="66" on="0"/>
        <pt x="456" y="77" on="1"/>
        <pt x="570" y="617" on="1"/>
        <pt x="550" y="630" on="0"/>
        <pt x="496" y="647" on="0"/>
        <pt x="465" y="647" on="1"/>
        <pt x="409" y="647" on="0"/>
        <pt x="322" y="576" on="0"/>
        <pt x="261" y="460" on="0"/>
        <pt x="229" y="312" on="0"/>
        <pt x="229" y="236" on="1"/>
        <pt x="229" y="195" on="0"/>
        <pt x="241" y="127" on="0"/>
        <pt x="271" y="79" on="0"/>
        <pt x="320" y="53" on="0"/>
      </contour>
    </TTGlyph>
    <TTGlyph name="Oacute" xMin="59" yMin="-12" xMax="756" yMax="899">
      <component glyphName="O" x="0" y="0" flags="0x204"/>
      <component glyphName="uniF6C9" x="33" y="0" flags="0x4"/>
    </TTGlyph>
    <TTGlyph name="Ocircumflex" xMin="59" yMin="-12" xMax="756" yMax="895">
      <component glyphName="O" x="0" y="0" flags="0x204"/>
      <component glyphName="uniF408" x="52" y="0" flags="0x4"/>
    </TTGlyph>
    <TTGlyph name="Odieresis" xMin="59" yMin="-12" xMax="756" yMax="857">
      <component glyphName="O" x="0" y="0" flags="0x204"/>
      <component glyphName="uniF6CB" x="68" y="0" flags="0x4"/>
    </TTGlyph>
    <TTGlyph name="Ograve" xMin="59" yMin="-12" xMax="756" yMax="901">
      <component glyphName="O" x="0" y="0" flags="0x204"/>
      <component glyphName="uniF6CE" x="123" y="0" flags="0x4"/>
    </TTGlyph>
    <TTGlyph name="Oslash" xMin="59" yMin="-18" xMax="756" yMax="718">
      <contour>
        <pt x="59" y="271" on="1"/>
        <pt x="59" y="363" on="0"/>
        <pt x="116" y="524" on="0"/>
        <pt x="223" y="643" on="0"/>
        <pt x="378" y="712" on="0"/>
        <pt x="476" y="712" on="1"/>
        <pt x="524" y="712" on="0"/>
        <pt x="604" y="692" on="0"/>
        <pt x="636" y="673" on="1"/>
        <pt x="674" y="718" on="1"/>
        <pt x="724" y="677" on="1"/>
        <pt x="687" y="633" on="1"/>
        <pt x="722" y="596" on="0"/>
        <pt x="756" y="494" on="0"/>
        <pt x="756" y="431" on="1"/>
        <pt x="756" y="349" on="0"/>
        <pt x="706" y="190" on="0"/>
        <pt x="604" y="65" on="0"/>
        <pt x="451" y="-12" on="0"/>
        <pt x="348" y="-12" on="1"/>
        <pt x="297" y="-12" on="0"/>
        <pt x="213" y="12" on="0"/>
        <pt x="180" y="33" on="1"/>
        <pt x="136" y="-18" on="1"/>
        <pt x="87" y="25" on="1"/>
        <pt x="129" y="74" on="1"/>
        <pt x="94" y="112" on="0"/>
        <pt x="59" y="212" on="0"/>
      </contour>
      <contour>
        <pt x="368" y="53" on="1"/>
        <pt x="421" y="53" on="0"/>
        <pt x="497" y="112" on="0"/>
        <pt x="548" y="208" on="0"/>
        <pt x="576" y="328" on="0"/>
        <pt x="581" y="389" on="1"/>
        <pt x="584" y="446" on="0"/>
        <pt x="573" y="498" on="1"/>
        <pt x="258" y="126" on="1"/>
        <pt x="292" y="53" on="0"/>
      </contour>
      <contour>
        <pt x="455" y="647" on="1"/>
        <pt x="402" y="647" on="0"/>
        <pt x="323" y="586" on="0"/>
        <pt x="268" y="489" on="0"/>
        <pt x="238" y="370" on="0"/>
        <pt x="234" y="312" on="1"/>
        <pt x="231" y="256" on="0"/>
        <pt x="242" y="207" on="1"/>
        <pt x="557" y="580" on="1"/>
        <pt x="543" y="612" on="0"/>
        <pt x="493" y="647" on="0"/>
      </contour>
    </TTGlyph>
    <TTGlyph name="Otilde" xMin="59" yMin="-12" xMax="756" yMax="876">
      <component glyphName="O" x="0" y="0" flags="0x204"/>
      <component glyphName="uniF40D" x="-29" y="0" flags="0x4"/>
    </TTGlyph>
    <TTGlyph name="P" xMin="-24" yMin="0" xMax="678" yMax="708">
      <contour>
        <pt x="222" y="67" on="1"/>
        <pt x="248" y="63" on="0"/>
        <pt x="297" y="48" on="0"/>
        <pt x="316" y="38" on="1"/>
        <pt x="309" y="0" on="1"/>
        <pt x="-24" y="0" on="1"/>
        <pt x="-17" y="38" on="1"/>
        <pt x="27" y="59" on="0"/>
        <pt x="72" y="67" on="1"/>
        <pt x="192" y="633" on="1"/>
        <pt x="170" y="637" on="0"/>
        <pt x="132" y="652" on="0"/>
        <pt x="116" y="662" on="1"/>
        <pt x="124" y="700" on="1"/>
        <pt x="250" y="700" on="1"/>
        <pt x="290" y="700" on="0"/>
        <pt x="395" y="708" on="0"/>
        <pt x="438" y="708" on="1"/>
        <pt x="490" y="708" on="0"/>
        <pt x="579" y="690" on="0"/>
        <pt x="642" y="651" on="0"/>
        <pt x="678" y="587" on="0"/>
        <pt x="678" y="541" on="1"/>
        <pt x="678" y="482" on="0"/>
        <pt x="634" y="381" on="0"/>
        <pt x="550" y="307" on="0"/>
        <pt x="428" y="264" on="0"/>
        <pt x="351" y="264" on="1"/>
        <pt x="346" y="264" on="0"/>
        <pt x="323" y="264" on="0"/>
        <pt x="296" y="265" on="0"/>
        <pt x="271" y="266" on="0"/>
        <pt x="264" y="267" on="1"/>
      </contour>
      <contour>
        <pt x="401" y="643" on="1"/>
        <pt x="381" y="643" on="0"/>
        <pt x="354" y="639" on="0"/>
        <pt x="343" y="637" on="1"/>
        <pt x="278" y="333" on="1"/>
        <pt x="287" y="331" on="0"/>
        <pt x="323" y="329" on="0"/>
        <pt x="334" y="329" on="1"/>
        <pt x="377" y="329" on="0"/>
        <pt x="443" y="360" on="0"/>
        <pt x="488" y="417" on="0"/>
        <pt x="512" y="494" on="0"/>
        <pt x="512" y="541" on="1"/>
        <pt x="512" y="564" on="0"/>
        <pt x="501" y="602" on="0"/>
        <pt x="476" y="629" on="0"/>
        <pt x="433" y="643" on="0"/>
      </contour>
    </TTGlyph>
    <TTGlyph name="Q" xMin="59" yMin="-210" xMax="756" yMax="712">
      <contour>
        <pt x="755" y="-112" on="1"/>
        <pt x="733" y="-131" on="0"/>
        <pt x="685" y="-166" on="0"/>
        <pt x="633" y="-194" on="0"/>
        <pt x="580" y="-210" on="0"/>
        <pt x="553" y="-210" on="1"/>
        <pt x="507" y="-210" on="0"/>
        <pt x="421" y="-177" on="0"/>
        <pt x="330" y="-134" on="0"/>
        <pt x="227" y="-94" on="0"/>
        <pt x="164" y="-86" on="1"/>
        <pt x="198" y="-42" on="1"/>
        <pt x="248" y="-33" on="0"/>
        <pt x="339" y="-42" on="0"/>
        <pt x="425" y="-63" on="0"/>
        <pt x="510" y="-89" on="0"/>
        <pt x="599" y="-105" on="0"/>
        <pt x="695" y="-104" on="0"/>
        <pt x="750" y="-87" on="1"/>
      </contour>
      <contour>
        <pt x="59" y="271" on="1"/>
        <pt x="59" y="363" on="0"/>
        <pt x="116" y="524" on="0"/>
        <pt x="223" y="643" on="0"/>
        <pt x="378" y="712" on="0"/>
        <pt x="476" y="712" on="1"/>
        <pt x="543" y="712" on="0"/>
        <pt x="647" y="673" on="0"/>
        <pt x="719" y="600" on="0"/>
        <pt x="756" y="496" on="0"/>
        <pt x="756" y="431" on="1"/>
        <pt x="756" y="349" on="0"/>
        <pt x="706" y="190" on="0"/>
        <pt x="604" y="65" on="0"/>
        <pt x="451" y="-12" on="0"/>
        <pt x="348" y="-12" on="1"/>
        <pt x="279" y="-12" on="0"/>
        <pt x="171" y="31" on="0"/>
        <pt x="97" y="107" on="0"/>
        <pt x="59" y="211" on="0"/>
      </contour>
      <contour>
        <pt x="229" y="252" on="1"/>
        <pt x="229" y="152" on="0"/>
        <pt x="304" y="53" on="0"/>
        <pt x="368" y="53" on="1"/>
        <pt x="425" y="53" on="0"/>
        <pt x="507" y="127" on="0"/>
        <pt x="561" y="242" on="0"/>
        <pt x="586" y="385" on="0"/>
        <pt x="586" y="454" on="1"/>
        <pt x="586" y="543" on="0"/>
        <pt x="525" y="647" on="0"/>
        <pt x="455" y="647" on="1"/>
        <pt x="416" y="647" on="0"/>
        <pt x="353" y="612" on="0"/>
        <pt x="302" y="552" on="0"/>
        <pt x="265" y="473" on="0"/>
        <pt x="241" y="385" on="0"/>
        <pt x="229" y="294" on="0"/>
      </contour>
    </TTGlyph>
    <TTGlyph name="R" xMin="-24" yMin="0" xMax="659" yMax="708">
      <contour>
        <pt x="222" y="67" on="1"/>
        <pt x="243" y="61" on="0"/>
        <pt x="277" y="46" on="0"/>
        <pt x="291" y="38" on="1"/>
        <pt x="284" y="0" on="1"/>
        <pt x="-24" y="0" on="1"/>
        <pt x="-17" y="38" on="1"/>
        <pt x="8" y="50" on="0"/>
        <pt x="51" y="63" on="0"/>
        <pt x="72" y="67" on="1"/>
        <pt x="192" y="633" on="1"/>
        <pt x="143" y="644" on="0"/>
        <pt x="116" y="662" on="1"/>
        <pt x="124" y="700" on="1"/>
        <pt x="230" y="700" on="1"/>
        <pt x="250" y="700" on="0"/>
        <pt x="301" y="702" on="0"/>
        <pt x="357" y="705" on="0"/>
        <pt x="415" y="708" on="0"/>
        <pt x="441" y="708" on="1"/>
        <pt x="552" y="708" on="0"/>
        <pt x="659" y="622" on="0"/>
        <pt x="659" y="543" on="1"/>
        <pt x="659" y="506" on="0"/>
        <pt x="635" y="437" on="0"/>
        <pt x="588" y="378" on="0"/>
        <pt x="519" y="333" on="0"/>
        <pt x="473" y="320" on="1"/>
        <pt x="499" y="257" on="0"/>
        <pt x="576" y="127" on="0"/>
        <pt x="613" y="66" on="1"/>
        <pt x="655" y="34" on="1"/>
        <pt x="648" y="0" on="1"/>
        <pt x="489" y="0" on="1"/>
        <pt x="452" y="33" on="1"/>
        <pt x="418" y="88" on="0"/>
        <pt x="361" y="233" on="0"/>
        <pt x="348" y="303" on="1"/>
        <pt x="272" y="303" on="1"/>
      </contour>
      <contour>
        <pt x="395" y="643" on="1"/>
        <pt x="379" y="643" on="0"/>
        <pt x="353" y="639" on="0"/>
        <pt x="342" y="637" on="1"/>
        <pt x="283" y="358" on="1"/>
        <pt x="341" y="358" on="1"/>
        <pt x="382" y="358" on="0"/>
        <pt x="443" y="389" on="0"/>
        <pt x="483" y="442" on="0"/>
        <pt x="503" y="510" on="0"/>
        <pt x="503" y="548" on="1"/>
        <pt x="504" y="599" on="0"/>
        <pt x="451" y="643" on="0"/>
      </contour>
    </TTGlyph>
    <TTGlyph name="S" xMin="15" yMin="-12" xMax="601" yMax="712">
      <contour>
        <pt x="140" y="83" on="1"/>
        <pt x="150" y="73" on="0"/>
        <pt x="202" y="53" on="0"/>
        <pt x="231" y="53" on="1"/>
        <pt x="262" y="53" on="0"/>
        <pt x="316" y="64" on="0"/>
        <pt x="355" y="88" on="0"/>
        <pt x="377" y="127" on="0"/>
        <pt x="377" y="155" on="1"/>
        <pt x="377" y="191" on="0"/>
        <pt x="339" y="242" on="0"/>
        <pt x="283" y="284" on="0"/>
        <pt x="216" y="325" on="0"/>
        <pt x="160" y="377" on="0"/>
        <pt x="122" y="447" on="0"/>
        <pt x="122" y="498" on="1"/>
        <pt x="122" y="551" on="0"/>
        <pt x="164" y="631" on="0"/>
        <pt x="238" y="685" on="0"/>
        <pt x="340" y="712" on="0"/>
        <pt x="401" y="712" on="1"/>
        <pt x="462" y="712" on="0"/>
        <pt x="563" y="695" on="0"/>
        <pt x="601" y="677" on="1"/>
        <pt x="596" y="657" on="0"/>
        <pt x="580" y="605" on="0"/>
        <pt x="561" y="554" on="0"/>
        <pt x="542" y="509" on="0"/>
        <pt x="535" y="494" on="1"/>
        <pt x="494" y="494" on="1"/>
        <pt x="477" y="631" on="1"/>
        <pt x="463" y="639" on="0"/>
        <pt x="416" y="647" on="0"/>
        <pt x="391" y="647" on="1"/>
        <pt x="365" y="647" on="0"/>
        <pt x="320" y="636" on="0"/>
        <pt x="287" y="613" on="0"/>
        <pt x="267" y="577" on="0"/>
        <pt x="267" y="552" on="1"/>
        <pt x="267" y="517" on="0"/>
        <pt x="306" y="465" on="0"/>
        <pt x="363" y="422" on="0"/>
        <pt x="431" y="379" on="0"/>
        <pt x="488" y="326" on="0"/>
        <pt x="527" y="256" on="0"/>
        <pt x="527" y="207" on="1"/>
        <pt x="527" y="101" on="0"/>
        <pt x="370" y="-12" on="0"/>
        <pt x="224" y="-12" on="1"/>
        <pt x="192" y="-12" on="0"/>
        <pt x="127" y="-4" on="0"/>
        <pt x="69" y="10" on="0"/>
        <pt x="25" y="26" on="0"/>
        <pt x="15" y="35" on="1"/>
        <pt x="21" y="59" on="0"/>
        <pt x="39" y="112" on="0"/>
        <pt x="59" y="165" on="0"/>
        <pt x="80" y="212" on="0"/>
        <pt x="89" y="230" on="1"/>
        <pt x="130" y="230" on="1"/>
      </contour>
    </TTGlyph>
    <TTGlyph name="T" xMin="91" yMin="0" xMax="756" yMax="700">
      <contour>
        <pt x="461" y="0" on="1"/>
        <pt x="117" y="0" on="1"/>
        <pt x="125" y="38" on="1"/>
        <pt x="147" y="47" on="0"/>
        <pt x="201" y="63" on="0"/>
        <pt x="228" y="67" on="1"/>
        <pt x="349" y="635" on="1"/>
        <pt x="233" y="635" on="1"/>
        <pt x="132" y="464" on="1"/>
        <pt x="91" y="464" on="1"/>
        <pt x="91" y="484" on="0"/>
        <pt x="96" y="546" on="0"/>
        <pt x="103" y="612" on="0"/>
        <pt x="113" y="677" on="0"/>
        <pt x="119" y="700" on="1"/>
        <pt x="756" y="700" on="1"/>
        <pt x="751" y="676" on="0"/>
        <pt x="734" y="612" on="0"/>
        <pt x="714" y="546" on="0"/>
        <pt x="693" y="485" on="0"/>
        <pt x="684" y="464" on="1"/>
        <pt x="642" y="464" on="1"/>
        <pt x="615" y="635" on="1"/>
        <pt x="499" y="635" on="1"/>
        <pt x="378" y="67" on="1"/>
        <pt x="403" y="62" on="0"/>
        <pt x="451" y="48" on="0"/>
        <pt x="469" y="38" on="1"/>
      </contour>
    </TTGlyph>
    <TTGlyph name="Thorn" xMin="-24" yMin="0" xMax="652" yMax="700">
      <contour>
        <pt x="221" y="63" on="1"/>
        <pt x="247" y="60" on="0"/>
        <pt x="298" y="43" on="0"/>
        <pt x="315" y="33" on="1"/>
        <pt x="309" y="0" on="1"/>
        <pt x="-24" y="0" on="1"/>
        <pt x="-18" y="33" on="1"/>
        <pt x="26" y="54" on="0"/>
        <pt x="71" y="62" on="1"/>
        <pt x="193" y="638" on="1"/>
        <pt x="173" y="641" on="0"/>
        <pt x="133" y="657" on="0"/>
        <pt x="117" y="667" on="1"/>
        <pt x="124" y="700" on="1"/>
        <pt x="437" y="700" on="1"/>
        <pt x="430" y="667" on="1"/>
        <pt x="410" y="656" on="0"/>
        <pt x="363" y="641" on="0"/>
        <pt x="343" y="638" on="1"/>
        <pt x="334" y="593" on="1"/>
        <pt x="355" y="595" on="0"/>
        <pt x="402" y="598" on="0"/>
        <pt x="421" y="598" on="1"/>
        <pt x="530" y="598" on="0"/>
        <pt x="652" y="518" on="0"/>
        <pt x="652" y="434" on="1"/>
        <pt x="652" y="373" on="0"/>
        <pt x="603" y="276" on="0"/>
        <pt x="516" y="208" on="0"/>
        <pt x="395" y="172" on="0"/>
        <pt x="324" y="172" on="1"/>
        <pt x="319" y="172" on="0"/>
        <pt x="297" y="172" on="0"/>
        <pt x="272" y="173" on="0"/>
        <pt x="250" y="174" on="0"/>
        <pt x="245" y="175" on="1"/>
      </contour>
      <contour>
        <pt x="375" y="533" on="1"/>
        <pt x="355" y="533" on="0"/>
        <pt x="331" y="530" on="0"/>
        <pt x="320" y="527" on="1"/>
        <pt x="258" y="241" on="1"/>
        <pt x="267" y="238" on="0"/>
        <pt x="303" y="237" on="0"/>
        <pt x="314" y="237" on="1"/>
        <pt x="354" y="237" on="0"/>
        <pt x="417" y="265" on="0"/>
        <pt x="462" y="316" on="0"/>
        <pt x="486" y="385" on="0"/>
        <pt x="486" y="426" on="1"/>
        <pt x="486" y="478" on="0"/>
        <pt x="437" y="533" on="0"/>
      </contour>
    </TTGlyph>
    <TTGlyph name="U" xMin="76" yMin="-9" xMax="815" yMax="700">
      <contour>
        <pt x="112" y="700" on="1"/>
        <pt x="420" y="700" on="1"/>
        <pt x="412" y="662" on="1"/>
        <pt x="376" y="641" on="0"/>
        <pt x="330" y="633" on="1"/>
        <pt x="251" y="260" on="1"/>
        <pt x="231" y="162" on="0"/>
        <pt x="301" y="74" on="0"/>
        <pt x="376" y="74" on="1"/>
        <pt x="446" y="74" on="0"/>
        <pt x="540" y="155" on="0"/>
        <pt x="561" y="253" on="1"/>
        <pt x="640" y="628" on="1"/>
        <pt x="617" y="633" on="0"/>
        <pt x="572" y="651" on="0"/>
        <pt x="559" y="662" on="1"/>
        <pt x="567" y="700" on="1"/>
        <pt x="815" y="700" on="1"/>
        <pt x="807" y="662" on="1"/>
        <pt x="789" y="649" on="0"/>
        <pt x="740" y="633" on="0"/>
        <pt x="717" y="628" on="1"/>
        <pt x="637" y="252" on="1"/>
        <pt x="610" y="123" on="0"/>
        <pt x="467" y="-9" on="0"/>
        <pt x="334" y="-9" on="1"/>
        <pt x="191" y="-9" on="0"/>
        <pt x="76" y="141" on="0"/>
        <pt x="104" y="271" on="1"/>
        <pt x="180" y="633" on="1"/>
        <pt x="160" y="637" on="0"/>
        <pt x="117" y="651" on="0"/>
        <pt x="104" y="662" on="1"/>
      </contour>
    </TTGlyph>
    <TTGlyph name="Uacute" xMin="76" yMin="-9" xMax="815" yMax="899">
      <component glyphName="U" x="0" y="0" flags="0x204"/>
      <component glyphName="uniF6C9" x="108" y="0" flags="0x4"/>
    </TTGlyph>
    <TTGlyph name="Ucircumflex" xMin="76" yMin="-9" xMax="815" yMax="895">
      <component glyphName="U" x="0" y="0" flags="0x204"/>
      <component glyphName="uniF408" x="58" y="0" flags="0x4"/>
    </TTGlyph>
    <TTGlyph name="Udieresis" xMin="76" yMin="-9" xMax="815" yMax="857">
      <component glyphName="U" x="0" y="0" flags="0x204"/>
      <component glyphName="uniF6CB" x="83" y="0" flags="0x4"/>
    </TTGlyph>
    <TTGlyph name="Ugrave" xMin="76" yMin="-9" xMax="815" yMax="901">
      <component glyphName="U" x="0" y="0" flags="0x204"/>
      <component glyphName="uniF6CE" x="104" y="0" flags="0x4"/>
    </TTGlyph>
    <TTGlyph name="V" xMin="96" yMin="-12" xMax="836" yMax="700">
      <contour>
        <pt x="652" y="633" on="1"/>
        <pt x="629" y="638" on="0"/>
        <pt x="588" y="652" on="0"/>
        <pt x="574" y="662" on="1"/>
        <pt x="582" y="700" on="1"/>
        <pt x="836" y="700" on="1"/>
        <pt x="828" y="662" on="1"/>
        <pt x="814" y="654" on="0"/>
        <pt x="773" y="638" on="0"/>
        <pt x="750" y="633" on="1"/>
        <pt x="386" y="0" on="1"/>
        <pt x="286" y="-12" on="1"/>
        <pt x="165" y="633" on="1"/>
        <pt x="144" y="638" on="0"/>
        <pt x="107" y="653" on="0"/>
        <pt x="96" y="662" on="1"/>
        <pt x="104" y="700" on="1"/>
        <pt x="434" y="700" on="1"/>
        <pt x="426" y="662" on="1"/>
        <pt x="408" y="653" on="0"/>
        <pt x="362" y="638" on="0"/>
        <pt x="338" y="633" on="1"/>
        <pt x="395" y="239" on="1"/>
        <pt x="398" y="145" on="1"/>
        <pt x="400" y="145" on="1"/>
        <pt x="442" y="241" on="1"/>
      </contour>
    </TTGlyph>
    <TTGlyph name="W" xMin="96" yMin="-12" xMax="1136" yMax="700">
      <contour>
        <pt x="955" y="633" on="1"/>
        <pt x="935" y="636" on="0"/>
        <pt x="893" y="651" on="0"/>
        <pt x="876" y="662" on="1"/>
        <pt x="884" y="700" on="1"/>
        <pt x="1136" y="700" on="1"/>
        <pt x="1128" y="662" on="1"/>
        <pt x="1110" y="651" on="0"/>
        <pt x="1068" y="637" on="0"/>
        <pt x="1049" y="633" on="1"/>
        <pt x="738" y="0" on="1"/>
        <pt x="631" y="-12" on="1"/>
        <pt x="579" y="472" on="1"/>
        <pt x="328" y="0" on="1"/>
        <pt x="221" y="-12" on="1"/>
        <pt x="163" y="633" on="1"/>
        <pt x="122" y="642" on="0"/>
        <pt x="96" y="662" on="1"/>
        <pt x="104" y="700" on="1"/>
        <pt x="425" y="700" on="1"/>
        <pt x="417" y="662" on="1"/>
        <pt x="398" y="652" on="0"/>
        <pt x="352" y="638" on="0"/>
        <pt x="329" y="633" on="1"/>
        <pt x="346" y="279" on="1"/>
        <pt x="341" y="149" on="1"/>
        <pt x="343" y="149" on="1"/>
        <pt x="405" y="284" on="1"/>
        <pt x="627" y="700" on="1"/>
        <pt x="687" y="700" on="1"/>
        <pt x="739" y="289" on="1"/>
        <pt x="747" y="159" on="1"/>
        <pt x="749" y="159" on="1"/>
        <pt x="801" y="291" on="1"/>
      </contour>
    </TTGlyph>
    <TTGlyph name="X" xMin="-36" yMin="0" xMax="787" yMax="700">
      <contour>
        <pt x="539" y="700" on="1"/>
        <pt x="787" y="700" on="1"/>
        <pt x="779" y="662" on="1"/>
        <pt x="763" y="652" on="0"/>
        <pt x="726" y="638" on="0"/>
        <pt x="705" y="633" on="1"/>
        <pt x="470" y="371" on="1"/>
        <pt x="610" y="67" on="1"/>
        <pt x="632" y="62" on="0"/>
        <pt x="666" y="48" on="0"/>
        <pt x="680" y="38" on="1"/>
        <pt x="673" y="0" on="1"/>
        <pt x="350" y="0" on="1"/>
        <pt x="357" y="38" on="1"/>
        <pt x="375" y="47" on="0"/>
        <pt x="413" y="62" on="0"/>
        <pt x="435" y="67" on="1"/>
        <pt x="342" y="286" on="1"/>
        <pt x="160" y="66" on="1"/>
        <pt x="180" y="61" on="0"/>
        <pt x="213" y="49" on="0"/>
        <pt x="228" y="38" on="1"/>
        <pt x="220" y="0" on="1"/>
        <pt x="-36" y="0" on="1"/>
        <pt x="-28" y="38" on="1"/>
        <pt x="-11" y="49" on="0"/>
        <pt x="26" y="62" on="0"/>
        <pt x="46" y="67" on="1"/>
        <pt x="309" y="353" on="1"/>
        <pt x="183" y="633" on="1"/>
        <pt x="165" y="638" on="0"/>
        <pt x="135" y="652" on="0"/>
        <pt x="121" y="662" on="1"/>
        <pt x="129" y="700" on="1"/>
        <pt x="445" y="700" on="1"/>
        <pt x="437" y="662" on="1"/>
        <pt x="423" y="654" on="0"/>
        <pt x="385" y="639" on="0"/>
        <pt x="359" y="633" on="1"/>
        <pt x="436" y="433" on="1"/>
        <pt x="601" y="633" on="1"/>
        <pt x="582" y="638" on="0"/>
        <pt x="545" y="653" on="0"/>
        <pt x="531" y="662" on="1"/>
      </contour>
    </TTGlyph>
    <TTGlyph name="Y" xMin="96" yMin="0" xMax="803" yMax="700">
      <contour>
        <pt x="554" y="700" on="1"/>
        <pt x="803" y="700" on="1"/>
        <pt x="795" y="662" on="1"/>
        <pt x="778" y="652" on="0"/>
        <pt x="738" y="637" on="0"/>
        <pt x="718" y="633" on="1"/>
        <pt x="451" y="293" on="1"/>
        <pt x="403" y="67" on="1"/>
        <pt x="422" y="64" on="0"/>
        <pt x="458" y="48" on="0"/>
        <pt x="473" y="38" on="1"/>
        <pt x="465" y="0" on="1"/>
        <pt x="157" y="0" on="1"/>
        <pt x="165" y="38" on="1"/>
        <pt x="184" y="47" on="0"/>
        <pt x="230" y="63" on="0"/>
        <pt x="253" y="67" on="1"/>
        <pt x="301" y="292" on="1"/>
        <pt x="171" y="633" on="1"/>
        <pt x="149" y="637" on="0"/>
        <pt x="110" y="652" on="0"/>
        <pt x="96" y="662" on="1"/>
        <pt x="104" y="700" on="1"/>
        <pt x="429" y="700" on="1"/>
        <pt x="421" y="662" on="1"/>
        <pt x="407" y="654" on="0"/>
        <pt x="367" y="638" on="0"/>
        <pt x="341" y="633" on="1"/>
        <pt x="428" y="364" on="1"/>
        <pt x="619" y="633" on="1"/>
        <pt x="598" y="638" on="0"/>
        <pt x="560" y="653" on="0"/>
        <pt x="546" y="662" on="1"/>
      </contour>
    </TTGlyph>
    <TTGlyph name="Yacute" xMin="96" yMin="0" xMax="803" yMax="899">
      <component glyphName="Y" x="0" y="0" flags="0x204"/>
      <component glyphName="uniF6C9" x="74" y="0" flags="0x4"/>
    </TTGlyph>
    <TTGlyph name="Z" xMin="5" yMin="0" xMax="674" yMax="700">
      <contour>
        <pt x="539" y="211" on="1"/>
        <pt x="580" y="211" on="1"/>
        <pt x="580" y="190" on="0"/>
        <pt x="576" y="136" on="0"/>
        <pt x="570" y="80" on="0"/>
        <pt x="561" y="24" on="0"/>
        <pt x="556" y="0" on="1"/>
        <pt x="5" y="0" on="1"/>
        <pt x="5" y="65" on="1"/>
        <pt x="496" y="635" on="1"/>
        <pt x="266" y="635" on="1"/>
        <pt x="177" y="492" on="1"/>
        <pt x="135" y="492" on="1"/>
        <pt x="135" y="514" on="0"/>
        <pt x="138" y="570" on="0"/>
        <pt x="145" y="627" on="0"/>
        <pt x="153" y="680" on="0"/>
        <pt x="158" y="700" on="1"/>
        <pt x="674" y="700" on="1"/>
        <pt x="674" y="635" on="1"/>
        <pt x="182" y="65" on="1"/>
        <pt x="446" y="65" on="1"/>
      </contour>
    </TTGlyph>
    <TTGlyph name="a" xMin="28" yMin="-12" xMax="543" yMax="510">
      <contour>
        <pt x="215" y="68" on="1"/>
        <pt x="234" y="68" on="0"/>
        <pt x="275" y="102" on="0"/>
        <pt x="312" y="153" on="0"/>
        <pt x="343" y="214" on="0"/>
        <pt x="354" y="240" on="1"/>
        <pt x="391" y="438" on="1"/>
        <pt x="379" y="446" on="0"/>
        <pt x="358" y="453" on="0"/>
        <pt x="341" y="453" on="1"/>
        <pt x="301" y="453" on="0"/>
        <pt x="237" y="400" on="0"/>
        <pt x="193" y="315" on="0"/>
        <pt x="170" y="209" on="0"/>
        <pt x="170" y="156" on="1"/>
        <pt x="170" y="110" on="0"/>
        <pt x="192" y="68" on="0"/>
      </contour>
      <contour>
        <pt x="339" y="159" on="1"/>
        <pt x="326" y="127" on="0"/>
        <pt x="287" y="66" on="0"/>
        <pt x="237" y="18" on="0"/>
        <pt x="177" y="-12" on="0"/>
        <pt x="142" y="-12" on="1"/>
        <pt x="90" y="-12" on="0"/>
        <pt x="28" y="64" on="0"/>
        <pt x="28" y="139" on="1"/>
        <pt x="28" y="217" on="0"/>
        <pt x="71" y="352" on="0"/>
        <pt x="150" y="453" on="0"/>
        <pt x="262" y="510" on="0"/>
        <pt x="331" y="510" on="1"/>
        <pt x="357" y="510" on="0"/>
        <pt x="394" y="498" on="0"/>
        <pt x="415" y="489" on="1"/>
        <pt x="441" y="499" on="0"/>
        <pt x="501" y="509" on="0"/>
        <pt x="543" y="509" on="1"/>
        <pt x="459" y="69" on="1"/>
        <pt x="529" y="69" on="1"/>
        <pt x="529" y="35" on="1"/>
        <pt x="519" y="27" on="0"/>
        <pt x="486" y="11" on="0"/>
        <pt x="447" y="-1" on="0"/>
        <pt x="406" y="-9" on="0"/>
        <pt x="388" y="-9" on="1"/>
        <pt x="353" y="-9" on="0"/>
        <pt x="323" y="21" on="0"/>
        <pt x="323" y="37" on="1"/>
        <pt x="323" y="55" on="0"/>
        <pt x="333" y="114" on="0"/>
        <pt x="343" y="159" on="1"/>
      </contour>
    </TTGlyph>
    <TTGlyph name="aacute" xMin="28" yMin="-12" xMax="543" yMax="765">
      <component glyphName="a" x="0" y="0" flags="0x204"/>
      <component glyphName="acute" x="49" y="0" flags="0x4"/>
    </TTGlyph>
    <TTGlyph name="acircumflex" xMin="28" yMin="-12" xMax="543" yMax="794">
      <component glyphName="a" x="0" y="0" flags="0x204"/>
      <component glyphName="circumflex" x="35" y="0" flags="0x4"/>
    </TTGlyph>
    <TTGlyph name="acute" xMin="239" yMin="562" xMax="480" yMax="765">
      <contour>
        <pt x="357" y="763" on="1"/>
        <pt x="365" y="765" on="0"/>
        <pt x="402" y="764" on="0"/>
        <pt x="442" y="758" on="0"/>
        <pt x="475" y="747" on="0"/>
        <pt x="480" y="741" on="1"/>
        <pt x="480" y="717" on="1"/>
        <pt x="279" y="562" on="1"/>
        <pt x="239" y="584" on="1"/>
      </contour>
    </TTGlyph>
    <TTGlyph name="adieresis" xMin="28" yMin="-12" xMax="543" yMax="729">
      <component glyphName="a" x="0" y="0" flags="0x204"/>
      <component glyphName="dieresis" x="0" y="0" flags="0x4"/>
    </TTGlyph>
    <TTGlyph name="ae" xMin="19" yMin="-12" xMax="763" yMax="512">
      <component glyphName="uni04D5" x="0" y="0" flags="0x204"/>
    </TTGlyph>
    <TTGlyph name="agrave" xMin="28" yMin="-12" xMax="543" yMax="765">
      <component glyphName="a" x="0" y="0" flags="0x204"/>
      <component glyphName="grave" x="37" y="0" flags="0x4"/>
    </TTGlyph>
    <TTGlyph name="ampersand" xMin="65" yMin="-12" xMax="850" yMax="712">
      <contour>
        <pt x="477" y="116" on="1"/>
        <pt x="451" y="143" on="0"/>
        <pt x="400" y="213" on="0"/>
        <pt x="357" y="285" on="0"/>
        <pt x="323" y="353" on="0"/>
        <pt x="314" y="377" on="1"/>
        <pt x="272" y="340" on="0"/>
        <pt x="224" y="248" on="0"/>
        <pt x="223" y="195" on="1"/>
        <pt x="223" y="168" on="0"/>
        <pt x="240" y="120" on="0"/>
        <pt x="272" y="84" on="0"/>
        <pt x="320" y="63" on="0"/>
        <pt x="351" y="63" on="1"/>
        <pt x="381" y="63" on="0"/>
        <pt x="449" y="88" on="0"/>
      </contour>
      <contour>
        <pt x="369" y="563" on="1"/>
        <pt x="369" y="532" on="0"/>
        <pt x="391" y="475" on="0"/>
        <pt x="408" y="448" on="1"/>
        <pt x="447" y="474" on="0"/>
        <pt x="502" y="549" on="0"/>
        <pt x="502" y="592" on="1"/>
        <pt x="502" y="618" on="0"/>
        <pt x="480" y="657" on="0"/>
        <pt x="451" y="657" on="1"/>
        <pt x="416" y="657" on="0"/>
        <pt x="369" y="603" on="0"/>
      </contour>
      <contour>
        <pt x="600" y="0" on="1"/>
        <pt x="582" y="12" on="0"/>
        <pt x="535" y="45" on="0"/>
        <pt x="515" y="71" on="1"/>
        <pt x="496" y="55" on="0"/>
        <pt x="446" y="25" on="0"/>
        <pt x="388" y="2" on="0"/>
        <pt x="325" y="-12" on="0"/>
        <pt x="293" y="-12" on="1"/>
        <pt x="229" y="-12" on="0"/>
        <pt x="142" y="19" on="0"/>
        <pt x="88" y="69" on="0"/>
        <pt x="65" y="132" on="0"/>
        <pt x="65" y="164" on="1"/>
        <pt x="65" y="212" on="0"/>
        <pt x="110" y="296" on="0"/>
        <pt x="176" y="365" on="0"/>
        <pt x="252" y="418" on="0"/>
        <pt x="284" y="434" on="1"/>
        <pt x="266" y="461" on="0"/>
        <pt x="248" y="522" on="0"/>
        <pt x="248" y="551" on="1"/>
        <pt x="248" y="587" on="0"/>
        <pt x="279" y="646" on="0"/>
        <pt x="332" y="689" on="0"/>
        <pt x="404" y="712" on="0"/>
        <pt x="445" y="712" on="1"/>
        <pt x="520" y="712" on="0"/>
        <pt x="588" y="650" on="0"/>
        <pt x="588" y="598" on="1"/>
        <pt x="588" y="568" on="0"/>
        <pt x="559" y="511" on="0"/>
        <pt x="512" y="461" on="0"/>
        <pt x="455" y="418" on="0"/>
        <pt x="428" y="403" on="1"/>
        <pt x="478" y="307" on="0"/>
        <pt x="573" y="201" on="1"/>
        <pt x="583" y="212" on="0"/>
        <pt x="614" y="264" on="0"/>
        <pt x="643" y="330" on="0"/>
        <pt x="662" y="404" on="0"/>
        <pt x="661" y="437" on="1"/>
        <pt x="646" y="440" on="0"/>
        <pt x="625" y="452" on="0"/>
        <pt x="614" y="461" on="1"/>
        <pt x="622" y="500" on="1"/>
        <pt x="850" y="500" on="1"/>
        <pt x="841" y="461" on="1"/>
        <pt x="811" y="445" on="0"/>
        <pt x="770" y="437" on="1"/>
        <pt x="756" y="394" on="0"/>
        <pt x="718" y="310" on="0"/>
        <pt x="676" y="236" on="0"/>
        <pt x="633" y="178" on="0"/>
        <pt x="615" y="162" on="1"/>
        <pt x="644" y="131" on="0"/>
        <pt x="705" y="83" on="0"/>
        <pt x="736" y="63" on="1"/>
        <pt x="782" y="39" on="1"/>
        <pt x="774" y="0" on="1"/>
      </contour>
    </TTGlyph>
    <TTGlyph name="aring" xMin="28" yMin="-12" xMax="543" yMax="780">
      <component glyphName="a" x="0" y="0" flags="0x204"/>
      <component glyphName="ring" x="41" y="0" flags="0x4"/>
    </TTGlyph>
    <TTGlyph name="asciicircum" xMin="97" yMin="434" xMax="499" yMax="711">
      <contour>
        <pt x="283" y="711" on="1"/>
        <pt x="329" y="711" on="1"/>
        <pt x="499" y="434" on="1"/>
        <pt x="379" y="434" on="1"/>
        <pt x="300" y="569" on="1"/>
        <pt x="282" y="622" on="1"/>
        <pt x="256" y="568" on="1"/>
        <pt x="167" y="434" on="1"/>
        <pt x="97" y="434" on="1"/>
      </contour>
    </TTGlyph>
    <TTGlyph name="asciitilde" xMin="81" yMin="272" xMax="515" yMax="431">
      <contour>
        <pt x="81" y="312" on="1"/>
        <pt x="107" y="370" on="0"/>
        <pt x="187" y="431" on="0"/>
        <pt x="224" y="431" on="1"/>
        <pt x="249" y="431" on="0"/>
        <pt x="297" y="410" on="0"/>
        <pt x="343" y="384" on="0"/>
        <pt x="390" y="363" on="0"/>
        <pt x="415" y="363" on="1"/>
        <pt x="433" y="363" on="0"/>
        <pt x="472" y="378" on="0"/>
        <pt x="492" y="397" on="1"/>
        <pt x="515" y="367" on="1"/>
        <pt x="492" y="319" on="0"/>
        <pt x="427" y="272" on="0"/>
        <pt x="392" y="272" on="1"/>
        <pt x="366" y="272" on="0"/>
        <pt x="317" y="293" on="0"/>
        <pt x="269" y="319" on="0"/>
        <pt x="221" y="340" on="0"/>
        <pt x="197" y="340" on="1"/>
        <pt x="175" y="340" on="0"/>
        <pt x="130" y="316" on="0"/>
        <pt x="107" y="285" on="1"/>
      </contour>
    </TTGlyph>
    <TTGlyph name="asterisk" xMin="116" yMin="377" xMax="475" yMax="750">
      <contour>
        <pt x="122" y="597" on="1"/>
        <pt x="116" y="605" on="0"/>
        <pt x="124" y="638" on="0"/>
        <pt x="142" y="671" on="0"/>
        <pt x="168" y="696" on="0"/>
        <pt x="180" y="697" on="1"/>
        <pt x="270" y="591" on="1"/>
        <pt x="270" y="576" on="0"/>
        <pt x="258" y="569" on="1"/>
      </contour>
      <contour>
        <pt x="182" y="429" on="1"/>
        <pt x="171" y="429" on="0"/>
        <pt x="146" y="454" on="0"/>
        <pt x="126" y="487" on="0"/>
        <pt x="117" y="521" on="0"/>
        <pt x="122" y="530" on="1"/>
        <pt x="257" y="556" on="1"/>
        <pt x="270" y="549" on="0"/>
        <pt x="270" y="535" on="1"/>
      </contour>
      <contour>
        <pt x="356" y="395" on="1"/>
        <pt x="351" y="387" on="0"/>
        <pt x="319" y="378" on="0"/>
        <pt x="300" y="378" on="1"/>
        <pt x="280" y="377" on="0"/>
        <pt x="247" y="385" on="0"/>
        <pt x="242" y="393" on="1"/>
        <pt x="285" y="524" on="1"/>
        <pt x="298" y="532" on="0"/>
        <pt x="312" y="524" on="1"/>
      </contour>
      <contour>
        <pt x="469" y="530" on="1"/>
        <pt x="475" y="519" on="0"/>
        <pt x="469" y="485" on="0"/>
        <pt x="451" y="453" on="0"/>
        <pt x="426" y="430" on="0"/>
        <pt x="414" y="430" on="1"/>
        <pt x="327" y="533" on="1"/>
        <pt x="327" y="546" on="0"/>
        <pt x="339" y="554" on="1"/>
      </contour>
      <contour>
        <pt x="417" y="696" on="1"/>
        <pt x="429" y="697" on="0"/>
        <pt x="451" y="676" on="0"/>
        <pt x="468" y="645" on="0"/>
        <pt x="475" y="610" on="0"/>
        <pt x="471" y="598" on="1"/>
        <pt x="337" y="568" on="1"/>
        <pt x="325" y="577" on="0"/>
        <pt x="325" y="590" on="1"/>
      </contour>
      <contour>
        <pt x="241" y="731" on="1"/>
        <pt x="246" y="741" on="0"/>
        <pt x="278" y="750" on="0"/>
        <pt x="297" y="750" on="1"/>
        <pt x="316" y="750" on="0"/>
        <pt x="348" y="741" on="0"/>
        <pt x="353" y="731" on="1"/>
        <pt x="311" y="600" on="1"/>
        <pt x="298" y="592" on="0"/>
        <pt x="284" y="600" on="1"/>
      </contour>
    </TTGlyph>
    <TTGlyph name="at" xMin="76" yMin="-180" xMax="982" yMax="712">
      <contour>
        <pt x="642" y="465" on="1"/>
        <pt x="666" y="476" on="0"/>
        <pt x="733" y="486" on="0"/>
        <pt x="767" y="485" on="1"/>
        <pt x="718" y="207" on="1"/>
        <pt x="706" y="143" on="0"/>
        <pt x="709" y="80" on="0"/>
        <pt x="737" y="80" on="1"/>
        <pt x="760" y="80" on="0"/>
        <pt x="819" y="110" on="0"/>
        <pt x="871" y="171" on="0"/>
        <pt x="907" y="264" on="0"/>
        <pt x="907" y="326" on="1"/>
        <pt x="907" y="402" on="0"/>
        <pt x="852" y="522" on="0"/>
        <pt x="755" y="604" on="0"/>
        <pt x="622" y="647" on="0"/>
        <pt x="545" y="647" on="1"/>
        <pt x="458" y="647" on="0"/>
        <pt x="313" y="586" on="0"/>
        <pt x="209" y="478" on="0"/>
        <pt x="151" y="329" on="0"/>
        <pt x="151" y="242" on="1"/>
        <pt x="151" y="153" on="0"/>
        <pt x="210" y="20" on="0"/>
        <pt x="314" y="-70" on="0"/>
        <pt x="457" y="-115" on="0"/>
        <pt x="541" y="-115" on="1"/>
        <pt x="570" y="-115" on="0"/>
        <pt x="644" y="-101" on="0"/>
        <pt x="674" y="-87" on="1"/>
        <pt x="690" y="-144" on="1"/>
        <pt x="655" y="-164" on="0"/>
        <pt x="571" y="-180" on="0"/>
        <pt x="520" y="-180" on="1"/>
        <pt x="431" y="-180" on="0"/>
        <pt x="270" y="-128" on="0"/>
        <pt x="148" y="-24" on="0"/>
        <pt x="76" y="132" on="0"/>
        <pt x="76" y="236" on="1"/>
        <pt x="76" y="345" on="0"/>
        <pt x="151" y="521" on="0"/>
        <pt x="280" y="645" on="0"/>
        <pt x="452" y="712" on="0"/>
        <pt x="550" y="712" on="1"/>
        <pt x="645" y="712" on="0"/>
        <pt x="804" y="659" on="0"/>
        <pt x="918" y="560" on="0"/>
        <pt x="982" y="417" on="0"/>
        <pt x="982" y="326" on="1"/>
        <pt x="982" y="256" on="0"/>
        <pt x="931" y="141" on="0"/>
        <pt x="849" y="58" on="0"/>
        <pt x="745" y="13" on="0"/>
        <pt x="692" y="13" on="1"/>
        <pt x="662" y="13" on="0"/>
        <pt x="618" y="28" on="0"/>
        <pt x="590" y="64" on="0"/>
        <pt x="581" y="122" on="0"/>
        <pt x="587" y="165" on="1"/>
        <pt x="583" y="165" on="1"/>
        <pt x="574" y="138" on="0"/>
        <pt x="539" y="83" on="0"/>
        <pt x="494" y="40" on="0"/>
        <pt x="440" y="13" on="0"/>
        <pt x="412" y="13" on="1"/>
        <pt x="344" y="13" on="0"/>
        <pt x="275" y="101" on="0"/>
        <pt x="275" y="169" on="1"/>
        <pt x="275" y="228" on="0"/>
        <pt x="314" y="344" on="0"/>
        <pt x="383" y="435" on="0"/>
        <pt x="479" y="492" on="0"/>
        <pt x="536" y="492" on="1"/>
        <pt x="571" y="492" on="0"/>
        <pt x="618" y="479" on="0"/>
      </contour>
      <contour>
        <pt x="622" y="415" on="1"/>
        <pt x="611" y="423" on="0"/>
        <pt x="587" y="430" on="0"/>
        <pt x="570" y="430" on="1"/>
        <pt x="536" y="430" on="0"/>
        <pt x="478" y="378" on="0"/>
        <pt x="436" y="299" on="0"/>
        <pt x="412" y="206" on="0"/>
        <pt x="412" y="166" on="1"/>
        <pt x="412" y="132" on="0"/>
        <pt x="436" y="93" on="0"/>
        <pt x="465" y="93" on="1"/>
        <pt x="482" y="93" on="0"/>
        <pt x="517" y="121" on="0"/>
        <pt x="550" y="166" on="0"/>
        <pt x="581" y="223" on="0"/>
        <pt x="594" y="251" on="1"/>
      </contour>
    </TTGlyph>
    <TTGlyph name="atilde" xMin="28" yMin="-12" xMax="543" yMax="726">
      <component glyphName="a" x="0" y="0" flags="0x204"/>
      <component glyphName="tilde" x="82" y="0" flags="0x4"/>
    </TTGlyph>
    <TTGlyph name="b" xMin="24" yMin="-12" xMax="537" yMax="752">
      <contour>
        <pt x="145" y="669" on="1"/>
        <pt x="79" y="682" on="1"/>
        <pt x="79" y="714" on="1"/>
        <pt x="98" y="721" on="0"/>
        <pt x="154" y="734" on="0"/>
        <pt x="211" y="744" on="0"/>
        <pt x="264" y="751" on="0"/>
        <pt x="280" y="752" on="1"/>
        <pt x="301" y="741" on="1"/>
        <pt x="224" y="362" on="1"/>
        <pt x="229" y="362" on="1"/>
        <pt x="245" y="392" on="0"/>
        <pt x="285" y="446" on="0"/>
        <pt x="332" y="488" on="0"/>
        <pt x="384" y="512" on="0"/>
        <pt x="414" y="512" on="1"/>
        <pt x="440" y="512" on="0"/>
        <pt x="485" y="493" on="0"/>
        <pt x="518" y="454" on="0"/>
        <pt x="537" y="393" on="0"/>
        <pt x="537" y="351" on="1"/>
        <pt x="537" y="277" on="0"/>
        <pt x="497" y="146" on="0"/>
        <pt x="418" y="46" on="0"/>
        <pt x="301" y="-12" on="0"/>
        <pt x="225" y="-12" on="1"/>
        <pt x="193" y="-12" on="0"/>
        <pt x="132" y="-4" on="0"/>
        <pt x="79" y="10" on="0"/>
        <pt x="37" y="30" on="0"/>
        <pt x="24" y="41" on="1"/>
      </contour>
      <contour>
        <pt x="341" y="432" on="1"/>
        <pt x="320" y="432" on="0"/>
        <pt x="281" y="398" on="0"/>
        <pt x="248" y="350" on="0"/>
        <pt x="222" y="298" on="0"/>
        <pt x="214" y="280" on="1"/>
        <pt x="171" y="65" on="1"/>
        <pt x="182" y="55" on="0"/>
        <pt x="216" y="45" on="0"/>
        <pt x="233" y="45" on="1"/>
        <pt x="267" y="45" on="0"/>
        <pt x="326" y="95" on="0"/>
        <pt x="370" y="177" on="0"/>
        <pt x="395" y="284" on="0"/>
        <pt x="395" y="341" on="1"/>
        <pt x="395" y="383" on="0"/>
        <pt x="369" y="432" on="0"/>
      </contour>
    </TTGlyph>
    <TTGlyph name="backslash" xMin="-56" yMin="-134" xMax="416" yMax="715">
      <contour>
        <pt x="416" y="-104" on="1"/>
        <pt x="359" y="-134" on="1"/>
        <pt x="-56" y="686" on="1"/>
        <pt x="2" y="715" on="1"/>
      </contour>
    </TTGlyph>
    <TTGlyph name="bar" xMin="114" yMin="-130" xMax="184" yMax="700">
      <contour>
        <pt x="114" y="700" on="1"/>
        <pt x="184" y="700" on="1"/>
        <pt x="184" y="-130" on="1"/>
        <pt x="114" y="-130" on="1"/>
      </contour>
    </TTGlyph>
    <TTGlyph name="braceleft" xMin="41" yMin="-230" xMax="442" yMax="700">
      <contour>
        <pt x="98" y="102" on="1"/>
        <pt x="103" y="125" on="0"/>
        <pt x="103" y="141" on="1"/>
        <pt x="103" y="174" on="0"/>
        <pt x="71" y="211" on="0"/>
        <pt x="41" y="211" on="1"/>
        <pt x="51" y="259" on="1"/>
        <pt x="70" y="259" on="0"/>
        <pt x="103" y="275" on="0"/>
        <pt x="130" y="304" on="0"/>
        <pt x="149" y="342" on="0"/>
        <pt x="154" y="364" on="1"/>
        <pt x="203" y="594" on="1"/>
        <pt x="213" y="642" on="0"/>
        <pt x="273" y="700" on="0"/>
        <pt x="321" y="700" on="1"/>
        <pt x="442" y="700" on="1"/>
        <pt x="431" y="645" on="1"/>
        <pt x="396" y="645" on="1"/>
        <pt x="369" y="645" on="0"/>
        <pt x="338" y="617" on="0"/>
        <pt x="331" y="585" on="1"/>
        <pt x="284" y="365" on="1"/>
        <pt x="277" y="332" on="0"/>
        <pt x="246" y="286" on="0"/>
        <pt x="208" y="257" on="0"/>
        <pt x="166" y="242" on="0"/>
        <pt x="148" y="240" on="1"/>
        <pt x="146" y="234" on="1"/>
        <pt x="161" y="232" on="0"/>
        <pt x="191" y="219" on="0"/>
        <pt x="216" y="195" on="0"/>
        <pt x="232" y="160" on="0"/>
        <pt x="232" y="136" on="1"/>
        <pt x="232" y="121" on="0"/>
        <pt x="229" y="105" on="1"/>
        <pt x="182" y="-115" on="1"/>
        <pt x="179" y="-129" on="0"/>
        <pt x="179" y="-138" on="1"/>
        <pt x="179" y="-175" on="0"/>
        <pt x="222" y="-175" on="1"/>
        <pt x="256" y="-175" on="1"/>
        <pt x="245" y="-230" on="1"/>
        <pt x="124" y="-230" on="1"/>
        <pt x="87" y="-230" on="0"/>
        <pt x="46" y="-194" on="0"/>
        <pt x="46" y="-158" on="1"/>
        <pt x="46" y="-141" on="0"/>
        <pt x="50" y="-125" on="1"/>
      </contour>
    </TTGlyph>
    <TTGlyph name="braceright" xMin="-67" yMin="-230" xMax="334" yMax="700">
      <contour>
        <pt x="277" y="369" on="1"/>
        <pt x="272" y="346" on="0"/>
        <pt x="272" y="330" on="1"/>
        <pt x="272" y="260" on="0"/>
        <pt x="334" y="260" on="1"/>
        <pt x="323" y="212" on="1"/>
        <pt x="285" y="212" on="0"/>
        <pt x="230" y="151" on="0"/>
        <pt x="221" y="107" on="1"/>
        <pt x="172" y="-124" on="1"/>
        <pt x="162" y="-172" on="0"/>
        <pt x="102" y="-230" on="0"/>
        <pt x="54" y="-230" on="1"/>
        <pt x="-67" y="-230" on="1"/>
        <pt x="-56" y="-175" on="1"/>
        <pt x="-21" y="-175" on="1"/>
        <pt x="6" y="-175" on="0"/>
        <pt x="37" y="-147" on="0"/>
        <pt x="44" y="-115" on="1"/>
        <pt x="91" y="106" on="1"/>
        <pt x="98" y="139" on="0"/>
        <pt x="126" y="185" on="0"/>
        <pt x="161" y="214" on="0"/>
        <pt x="200" y="229" on="0"/>
        <pt x="218" y="231" on="1"/>
        <pt x="219" y="237" on="1"/>
        <pt x="205" y="238" on="0"/>
        <pt x="177" y="251" on="0"/>
        <pt x="155" y="273" on="0"/>
        <pt x="142" y="307" on="0"/>
        <pt x="142" y="330" on="1"/>
        <pt x="142" y="349" on="0"/>
        <pt x="146" y="366" on="1"/>
        <pt x="193" y="585" on="1"/>
        <pt x="195" y="591" on="0"/>
        <pt x="195" y="602" on="0"/>
        <pt x="195" y="607" on="1"/>
        <pt x="196" y="645" on="0"/>
        <pt x="152" y="645" on="1"/>
        <pt x="118" y="645" on="1"/>
        <pt x="130" y="700" on="1"/>
        <pt x="252" y="700" on="1"/>
        <pt x="289" y="700" on="0"/>
        <pt x="329" y="663" on="0"/>
        <pt x="329" y="628" on="1"/>
        <pt x="329" y="611" on="0"/>
        <pt x="325" y="595" on="1"/>
      </contour>
    </TTGlyph>
    <TTGlyph name="bracketleft" xMin="-18" yMin="-230" xMax="413" yMax="700">
      <contour>
        <pt x="179" y="700" on="1"/>
        <pt x="413" y="700" on="1"/>
        <pt x="401" y="645" on="1"/>
        <pt x="297" y="645" on="1"/>
        <pt x="123" y="-175" on="1"/>
        <pt x="227" y="-175" on="1"/>
        <pt x="216" y="-230" on="1"/>
        <pt x="-18" y="-230" on="1"/>
      </contour>
    </TTGlyph>
    <TTGlyph name="bracketright" xMin="-71" yMin="-230" xMax="359" yMax="700">
      <contour>
        <pt x="162" y="-230" on="1"/>
        <pt x="-71" y="-230" on="1"/>
        <pt x="-60" y="-175" on="1"/>
        <pt x="43" y="-175" on="1"/>
        <pt x="217" y="645" on="1"/>
        <pt x="113" y="645" on="1"/>
        <pt x="125" y="700" on="1"/>
        <pt x="359" y="700" on="1"/>
      </contour>
    </TTGlyph>
    <TTGlyph name="brokenbar" xMin="97" yMin="-130" xMax="167" yMax="700">
      <contour>
        <pt x="97" y="190" on="1"/>
        <pt x="167" y="190" on="1"/>
        <pt x="167" y="-130" on="1"/>
        <pt x="97" y="-130" on="1"/>
      </contour>
      <contour>
        <pt x="167" y="380" on="1"/>
        <pt x="97" y="380" on="1"/>
        <pt x="97" y="700" on="1"/>
        <pt x="167" y="700" on="1"/>
      </contour>
    </TTGlyph>
    <TTGlyph name="bullet" xMin="105" yMin="156" xMax="415" yMax="466">
      <contour>
        <pt x="105" y="311" on="1"/>
        <pt x="105" y="345" on="0"/>
        <pt x="129" y="403" on="0"/>
        <pt x="171" y="443" on="0"/>
        <pt x="227" y="466" on="0"/>
        <pt x="259" y="466" on="1"/>
        <pt x="292" y="466" on="0"/>
        <pt x="349" y="445" on="0"/>
        <pt x="391" y="405" on="0"/>
        <pt x="415" y="347" on="0"/>
        <pt x="415" y="311" on="1"/>
        <pt x="415" y="275" on="0"/>
        <pt x="391" y="217" on="0"/>
        <pt x="349" y="177" on="0"/>
        <pt x="292" y="156" on="0"/>
        <pt x="259" y="156" on="1"/>
        <pt x="227" y="156" on="0"/>
        <pt x="171" y="177" on="0"/>
        <pt x="129" y="217" on="0"/>
        <pt x="105" y="275" on="0"/>
      </contour>
    </TTGlyph>
    <TTGlyph name="c" xMin="27" yMin="-12" xMax="451" yMax="512">
      <contour>
        <pt x="412" y="109" on="1"/>
        <pt x="399" y="88" on="0"/>
        <pt x="357" y="44" on="0"/>
        <pt x="302" y="10" on="0"/>
        <pt x="236" y="-12" on="0"/>
        <pt x="199" y="-12" on="1"/>
        <pt x="120" y="-12" on="0"/>
        <pt x="27" y="82" on="0"/>
        <pt x="27" y="166" on="1"/>
        <pt x="27" y="236" on="0"/>
        <pt x="70" y="362" on="0"/>
        <pt x="148" y="457" on="0"/>
        <pt x="259" y="512" on="0"/>
        <pt x="327" y="512" on="1"/>
        <pt x="372" y="512" on="0"/>
        <pt x="439" y="493" on="0"/>
        <pt x="450" y="480" on="1"/>
        <pt x="451" y="469" on="0"/>
        <pt x="442" y="436" on="0"/>
        <pt x="424" y="403" on="0"/>
        <pt x="399" y="374" on="0"/>
        <pt x="386" y="368" on="1"/>
        <pt x="325" y="455" on="1"/>
        <pt x="298" y="455" on="0"/>
        <pt x="243" y="418" on="0"/>
        <pt x="199" y="349" on="0"/>
        <pt x="171" y="252" on="0"/>
        <pt x="171" y="191" on="1"/>
        <pt x="171" y="130" on="0"/>
        <pt x="221" y="73" on="0"/>
        <pt x="263" y="73" on="1"/>
        <pt x="283" y="73" on="0"/>
        <pt x="320" y="86" on="0"/>
        <pt x="352" y="104" on="0"/>
        <pt x="379" y="125" on="0"/>
        <pt x="389" y="134" on="1"/>
      </contour>
    </TTGlyph>
    <TTGlyph name="ccedilla" xMin="27" yMin="-257" xMax="451" yMax="512">
      <contour>
        <pt x="412" y="109" on="1"/>
        <pt x="400" y="90" on="0"/>
        <pt x="365" y="52" on="0"/>
        <pt x="319" y="19" on="0"/>
        <pt x="264" y="-5" on="0"/>
        <pt x="233" y="-10" on="1"/>
        <pt x="197" y="-68" on="1"/>
        <pt x="251" y="-71" on="0"/>
        <pt x="294" y="-106" on="0"/>
        <pt x="295" y="-139" on="1"/>
        <pt x="295" y="-170" on="0"/>
        <pt x="255" y="-214" on="0"/>
        <pt x="192" y="-243" on="0"/>
        <pt x="115" y="-257" on="0"/>
        <pt x="80" y="-257" on="1"/>
        <pt x="80" y="-218" on="1"/>
        <pt x="97" y="-215" on="0"/>
        <pt x="130" y="-205" on="0"/>
        <pt x="155" y="-190" on="0"/>
        <pt x="170" y="-170" on="0"/>
        <pt x="170" y="-157" on="1"/>
        <pt x="169" y="-140" on="0"/>
        <pt x="149" y="-117" on="0"/>
        <pt x="117" y="-114" on="1"/>
        <pt x="172" y="-10" on="1"/>
        <pt x="104" y="-2" on="0"/>
        <pt x="27" y="89" on="0"/>
        <pt x="27" y="166" on="1"/>
        <pt x="27" y="236" on="0"/>
        <pt x="70" y="362" on="0"/>
        <pt x="148" y="457" on="0"/>
        <pt x="259" y="512" on="0"/>
        <pt x="327" y="512" on="1"/>
        <pt x="372" y="512" on="0"/>
        <pt x="439" y="493" on="0"/>
        <pt x="450" y="480" on="1"/>
        <pt x="451" y="469" on="0"/>
        <pt x="442" y="436" on="0"/>
        <pt x="424" y="403" on="0"/>
        <pt x="399" y="374" on="0"/>
        <pt x="386" y="368" on="1"/>
        <pt x="325" y="455" on="1"/>
        <pt x="298" y="455" on="0"/>
        <pt x="243" y="418" on="0"/>
        <pt x="199" y="349" on="0"/>
        <pt x="171" y="252" on="0"/>
        <pt x="171" y="191" on="1"/>
        <pt x="171" y="130" on="0"/>
        <pt x="221" y="73" on="0"/>
        <pt x="263" y="73" on="1"/>
        <pt x="283" y="73" on="0"/>
        <pt x="320" y="86" on="0"/>
        <pt x="352" y="104" on="0"/>
        <pt x="379" y="125" on="0"/>
        <pt x="389" y="134" on="1"/>
      </contour>
    </TTGlyph>
    <TTGlyph name="cedilla" xMin="70" yMin="-257" xMax="285" yMax="1">
      <contour>
        <pt x="187" y="-68" on="1"/>
        <pt x="241" y="-71" on="0"/>
        <pt x="284" y="-106" on="0"/>
        <pt x="285" y="-139" on="1"/>
        <pt x="285" y="-170" on="0"/>
        <pt x="245" y="-214" on="0"/>
        <pt x="182" y="-243" on="0"/>
        <pt x="105" y="-257" on="0"/>
        <pt x="70" y="-257" on="1"/>
        <pt x="70" y="-218" on="1"/>
        <pt x="87" y="-215" on="0"/>
        <pt x="120" y="-205" on="0"/>
        <pt x="145" y="-190" on="0"/>
        <pt x="160" y="-170" on="0"/>
        <pt x="160" y="-157" on="1"/>
        <pt x="159" y="-140" on="0"/>
        <pt x="139" y="-117" on="0"/>
        <pt x="107" y="-114" on="1"/>
        <pt x="168" y="1" on="1"/>
        <pt x="230" y="1" on="1"/>
      </contour>
    </TTGlyph>
    <TTGlyph name="cent" xMin="47" yMin="-170" xMax="560" yMax="660">
      <contour>
        <pt x="475" y="109" on="1"/>
        <pt x="449" y="68" on="0"/>
        <pt x="366" y="8" on="0"/>
        <pt x="312" y="-3" on="1"/>
        <pt x="278" y="-170" on="1"/>
        <pt x="201" y="-170" on="1"/>
        <pt x="235" y="-11" on="1"/>
        <pt x="150" y="-6" on="0"/>
        <pt x="47" y="89" on="0"/>
        <pt x="47" y="175" on="1"/>
        <pt x="47" y="240" on="0"/>
        <pt x="90" y="355" on="0"/>
        <pt x="169" y="444" on="0"/>
        <pt x="279" y="501" on="0"/>
        <pt x="345" y="508" on="1"/>
        <pt x="378" y="660" on="1"/>
        <pt x="455" y="660" on="1"/>
        <pt x="423" y="509" on="1"/>
        <pt x="431" y="508" on="0"/>
        <pt x="444" y="508" on="0"/>
        <pt x="452" y="506" on="1"/>
        <pt x="483" y="504" on="0"/>
        <pt x="545" y="491" on="0"/>
        <pt x="559" y="480" on="1"/>
        <pt x="560" y="469" on="0"/>
        <pt x="551" y="436" on="0"/>
        <pt x="533" y="403" on="0"/>
        <pt x="508" y="374" on="0"/>
        <pt x="494" y="368" on="1"/>
        <pt x="433" y="455" on="1"/>
        <pt x="418" y="455" on="0"/>
        <pt x="403" y="452" on="1"/>
        <pt x="322" y="74" on="1"/>
        <pt x="370" y="79" on="0"/>
        <pt x="432" y="117" on="0"/>
        <pt x="451" y="134" on="1"/>
      </contour>
      <contour>
        <pt x="191" y="184" on="1"/>
        <pt x="191" y="139" on="0"/>
        <pt x="229" y="86" on="0"/>
        <pt x="260" y="77" on="1"/>
        <pt x="337" y="434" on="1"/>
        <pt x="304" y="419" on="0"/>
        <pt x="250" y="371" on="0"/>
        <pt x="212" y="306" on="0"/>
        <pt x="191" y="228" on="0"/>
      </contour>
    </TTGlyph>
    <TTGlyph name="circumflex" xMin="179" yMin="577" xMax="455" yMax="794">
      <contour>
        <pt x="221" y="577" on="1"/>
        <pt x="179" y="602" on="1"/>
        <pt x="339" y="788" on="1"/>
        <pt x="342" y="791" on="0"/>
        <pt x="357" y="794" on="0"/>
        <pt x="365" y="794" on="1"/>
        <pt x="382" y="794" on="0"/>
        <pt x="391" y="788" on="1"/>
        <pt x="455" y="603" on="1"/>
        <pt x="414" y="577" on="1"/>
        <pt x="339" y="675" on="1"/>
      </contour>
    </TTGlyph>
    <TTGlyph name="colon" xMin="56" yMin="-8" xMax="276" yMax="509">
      <contour>
        <pt x="106" y="429" on="1"/>
        <pt x="106" y="465" on="0"/>
        <pt x="152" y="509" on="0"/>
        <pt x="190" y="509" on="1"/>
        <pt x="228" y="509" on="0"/>
        <pt x="276" y="465" on="0"/>
        <pt x="276" y="429" on="1"/>
        <pt x="276" y="393" on="0"/>
        <pt x="228" y="350" on="0"/>
        <pt x="190" y="350" on="1"/>
        <pt x="152" y="350" on="0"/>
        <pt x="106" y="393" on="0"/>
      </contour>
      <contour>
        <pt x="56" y="71" on="1"/>
        <pt x="56" y="107" on="0"/>
        <pt x="102" y="151" on="0"/>
        <pt x="140" y="151" on="1"/>
        <pt x="178" y="151" on="0"/>
        <pt x="226" y="107" on="0"/>
        <pt x="226" y="71" on="1"/>
        <pt x="226" y="35" on="0"/>
        <pt x="178" y="-8" on="0"/>
        <pt x="140" y="-8" on="1"/>
        <pt x="102" y="-8" on="0"/>
        <pt x="56" y="35" on="0"/>
      </contour>
    </TTGlyph>
    <TTGlyph name="comma" xMin="-22" yMin="-175" xMax="202" yMax="153">
      <contour>
        <pt x="-22" y="-131" on="1"/>
        <pt x="-1" y="-125" on="0"/>
        <pt x="36" y="-101" on="0"/>
        <pt x="65" y="-71" on="0"/>
        <pt x="84" y="-37" on="0"/>
        <pt x="87" y="-21" on="1"/>
        <pt x="78" y="-3" on="0"/>
        <pt x="42" y="19" on="0"/>
        <pt x="22" y="26" on="1"/>
        <pt x="21" y="47" on="0"/>
        <pt x="37" y="89" on="0"/>
        <pt x="64" y="125" on="0"/>
        <pt x="98" y="150" on="0"/>
        <pt x="113" y="153" on="1"/>
        <pt x="155" y="151" on="0"/>
        <pt x="202" y="105" on="0"/>
        <pt x="202" y="56" on="1"/>
        <pt x="202" y="15" on="0"/>
        <pt x="163" y="-62" on="0"/>
        <pt x="103" y="-124" on="0"/>
        <pt x="28" y="-167" on="0"/>
        <pt x="-9" y="-175" on="1"/>
      </contour>
    </TTGlyph>
    <TTGlyph name="copyright" xMin="65" yMin="-62" xMax="773" yMax="642">
      <contour>
        <pt x="65" y="290" on="1"/>
        <pt x="65" y="373" on="0"/>
        <pt x="124" y="504" on="0"/>
        <pt x="223" y="594" on="0"/>
        <pt x="350" y="642" on="0"/>
        <pt x="419" y="642" on="1"/>
        <pt x="488" y="642" on="0"/>
        <pt x="615" y="594" on="0"/>
        <pt x="714" y="504" on="0"/>
        <pt x="773" y="373" on="0"/>
        <pt x="773" y="290" on="1"/>
        <pt x="773" y="207" on="0"/>
        <pt x="714" y="76" on="0"/>
        <pt x="615" y="-14" on="0"/>
        <pt x="488" y="-62" on="0"/>
        <pt x="419" y="-62" on="1"/>
        <pt x="347" y="-62" on="0"/>
        <pt x="218" y="-14" on="0"/>
        <pt x="121" y="76" on="0"/>
        <pt x="65" y="207" on="0"/>
      </contour>
      <contour>
        <pt x="132" y="290" on="1"/>
        <pt x="132" y="223" on="0"/>
        <pt x="178" y="115" on="0"/>
        <pt x="256" y="39" on="0"/>
        <pt x="360" y="-2" on="0"/>
        <pt x="419" y="-2" on="1"/>
        <pt x="480" y="-2" on="0"/>
        <pt x="585" y="39" on="0"/>
        <pt x="662" y="115" on="0"/>
        <pt x="706" y="223" on="0"/>
        <pt x="706" y="290" on="1"/>
        <pt x="706" y="359" on="0"/>
        <pt x="658" y="467" on="0"/>
        <pt x="579" y="542" on="0"/>
        <pt x="475" y="582" on="0"/>
        <pt x="419" y="582" on="1"/>
        <pt x="356" y="582" on="0"/>
        <pt x="251" y="541" on="0"/>
        <pt x="175" y="465" on="0"/>
        <pt x="132" y="357" on="0"/>
      </contour>
      <contour>
        <pt x="525" y="220" on="1"/>
        <pt x="559" y="220" on="1"/>
        <pt x="561" y="212" on="0"/>
        <pt x="566" y="187" on="0"/>
        <pt x="569" y="157" on="0"/>
        <pt x="570" y="127" on="0"/>
        <pt x="569" y="115" on="1"/>
        <pt x="552" y="101" on="0"/>
        <pt x="480" y="82" on="0"/>
        <pt x="440" y="82" on="1"/>
        <pt x="391" y="82" on="0"/>
        <pt x="310" y="109" on="0"/>
        <pt x="251" y="162" on="0"/>
        <pt x="218" y="240" on="0"/>
        <pt x="218" y="291" on="1"/>
        <pt x="218" y="343" on="0"/>
        <pt x="255" y="421" on="0"/>
        <pt x="314" y="473" on="0"/>
        <pt x="389" y="500" on="0"/>
        <pt x="427" y="500" on="1"/>
        <pt x="475" y="500" on="0"/>
        <pt x="545" y="483" on="0"/>
        <pt x="566" y="470" on="1"/>
        <pt x="567" y="461" on="0"/>
        <pt x="565" y="431" on="0"/>
        <pt x="561" y="398" on="0"/>
        <pt x="556" y="366" on="0"/>
        <pt x="553" y="356" on="1"/>
        <pt x="519" y="356" on="1"/>
        <pt x="489" y="439" on="1"/>
        <pt x="482" y="444" on="0"/>
        <pt x="458" y="445" on="0"/>
        <pt x="445" y="445" on="1"/>
        <pt x="400" y="445" on="0"/>
        <pt x="353" y="369" on="0"/>
        <pt x="353" y="291" on="1"/>
        <pt x="353" y="258" on="0"/>
        <pt x="364" y="201" on="0"/>
        <pt x="388" y="160" on="0"/>
        <pt x="426" y="137" on="0"/>
        <pt x="453" y="137" on="1"/>
        <pt x="469" y="137" on="0"/>
        <pt x="493" y="142" on="0"/>
        <pt x="497" y="146" on="1"/>
      </contour>
    </TTGlyph>
    <TTGlyph name="currency" xMin="34" yMin="100" xMax="525" yMax="592">
      <contour>
        <pt x="34" y="178" on="1"/>
        <pt x="108" y="252" on="1"/>
        <pt x="148" y="266" on="1"/>
        <pt x="135" y="283" on="0"/>
        <pt x="125" y="320" on="0"/>
        <pt x="125" y="346" on="1"/>
        <pt x="125" y="393" on="0"/>
        <pt x="148" y="425" on="1"/>
        <pt x="108" y="440" on="1"/>
        <pt x="34" y="514" on="1"/>
        <pt x="112" y="592" on="1"/>
        <pt x="186" y="518" on="1"/>
        <pt x="201" y="478" on="1"/>
        <pt x="217" y="489" on="0"/>
        <pt x="254" y="501" on="0"/>
        <pt x="279" y="501" on="1"/>
        <pt x="332" y="500" on="0"/>
        <pt x="360" y="479" on="1"/>
        <pt x="375" y="518" on="1"/>
        <pt x="448" y="590" on="1"/>
        <pt x="525" y="513" on="1"/>
        <pt x="452" y="440" on="1"/>
        <pt x="414" y="426" on="1"/>
        <pt x="423" y="409" on="0"/>
        <pt x="433" y="371" on="0"/>
        <pt x="434" y="345" on="1"/>
        <pt x="435" y="323" on="0"/>
        <pt x="424" y="283" on="0"/>
        <pt x="414" y="266" on="1"/>
        <pt x="452" y="252" on="1"/>
        <pt x="525" y="178" on="1"/>
        <pt x="447" y="100" on="1"/>
        <pt x="374" y="173" on="1"/>
        <pt x="360" y="212" on="1"/>
        <pt x="345" y="203" on="0"/>
        <pt x="303" y="191" on="0"/>
        <pt x="280" y="191" on="1"/>
        <pt x="254" y="192" on="0"/>
        <pt x="216" y="203" on="0"/>
        <pt x="199" y="212" on="1"/>
        <pt x="186" y="174" on="1"/>
        <pt x="112" y="100" on="1"/>
      </contour>
      <contour>
        <pt x="279" y="263" on="1"/>
        <pt x="315" y="264" on="0"/>
        <pt x="364" y="310" on="0"/>
        <pt x="364" y="346" on="1"/>
        <pt x="364" y="382" on="0"/>
        <pt x="315" y="429" on="0"/>
        <pt x="279" y="429" on="1"/>
        <pt x="243" y="430" on="0"/>
        <pt x="194" y="382" on="0"/>
        <pt x="195" y="346" on="1"/>
        <pt x="194" y="310" on="0"/>
        <pt x="243" y="264" on="0"/>
      </contour>
    </TTGlyph>
    <TTGlyph name="d" xMin="29" yMin="-12" xMax="589" yMax="752">
      <contour>
        <pt x="215" y="68" on="1"/>
        <pt x="236" y="68" on="0"/>
        <pt x="277" y="103" on="0"/>
        <pt x="314" y="155" on="0"/>
        <pt x="345" y="215" on="0"/>
        <pt x="356" y="240" on="1"/>
        <pt x="392" y="437" on="1"/>
        <pt x="379" y="445" on="0"/>
        <pt x="356" y="452" on="0"/>
        <pt x="340" y="452" on="1"/>
        <pt x="302" y="452" on="0"/>
        <pt x="239" y="401" on="0"/>
        <pt x="195" y="318" on="0"/>
        <pt x="171" y="211" on="0"/>
        <pt x="171" y="155" on="1"/>
        <pt x="171" y="68" on="0"/>
      </contour>
      <contour>
        <pt x="340" y="159" on="1"/>
        <pt x="325" y="124" on="0"/>
        <pt x="284" y="62" on="0"/>
        <pt x="235" y="16" on="0"/>
        <pt x="177" y="-12" on="0"/>
        <pt x="145" y="-12" on="1"/>
        <pt x="94" y="-12" on="0"/>
        <pt x="29" y="66" on="0"/>
        <pt x="29" y="145" on="1"/>
        <pt x="29" y="216" on="0"/>
        <pt x="68" y="347" on="0"/>
        <pt x="143" y="448" on="0"/>
        <pt x="252" y="509" on="0"/>
        <pt x="322" y="509" on="1"/>
        <pt x="355" y="509" on="0"/>
        <pt x="386" y="501" on="0"/>
        <pt x="403" y="493" on="1"/>
        <pt x="437" y="669" on="1"/>
        <pt x="368" y="682" on="1"/>
        <pt x="368" y="716" on="1"/>
        <pt x="383" y="722" on="0"/>
        <pt x="435" y="734" on="0"/>
        <pt x="494" y="744" on="0"/>
        <pt x="551" y="751" on="0"/>
        <pt x="569" y="752" on="1"/>
        <pt x="589" y="741" on="1"/>
        <pt x="460" y="69" on="1"/>
        <pt x="532" y="69" on="1"/>
        <pt x="532" y="35" on="1"/>
        <pt x="522" y="27" on="0"/>
        <pt x="489" y="11" on="0"/>
        <pt x="450" y="-1" on="0"/>
        <pt x="408" y="-9" on="0"/>
        <pt x="390" y="-9" on="1"/>
        <pt x="355" y="-9" on="0"/>
        <pt x="325" y="23" on="0"/>
        <pt x="325" y="40" on="1"/>
        <pt x="325" y="57" on="0"/>
        <pt x="335" y="121" on="0"/>
        <pt x="344" y="159" on="1"/>
      </contour>
    </TTGlyph>
    <TTGlyph name="degree" xMin="122" yMin="430" xMax="410" yMax="712">
      <contour>
        <pt x="122" y="571" on="1"/>
        <pt x="122" y="602" on="0"/>
        <pt x="145" y="654" on="0"/>
        <pt x="184" y="691" on="0"/>
        <pt x="237" y="712" on="0"/>
        <pt x="266" y="712" on="1"/>
        <pt x="295" y="712" on="0"/>
        <pt x="348" y="694" on="0"/>
        <pt x="387" y="659" on="0"/>
        <pt x="410" y="606" on="0"/>
        <pt x="410" y="571" on="1"/>
        <pt x="410" y="538" on="0"/>
        <pt x="387" y="486" on="0"/>
        <pt x="348" y="449" on="0"/>
        <pt x="295" y="430" on="0"/>
        <pt x="266" y="430" on="1"/>
        <pt x="237" y="430" on="0"/>
        <pt x="184" y="449" on="0"/>
        <pt x="145" y="486" on="0"/>
        <pt x="122" y="538" on="0"/>
      </contour>
      <contour>
        <pt x="191" y="571" on="1"/>
        <pt x="191" y="533" on="0"/>
        <pt x="236" y="490" on="0"/>
        <pt x="266" y="490" on="1"/>
        <pt x="298" y="490" on="0"/>
        <pt x="341" y="530" on="0"/>
        <pt x="341" y="571" on="1"/>
        <pt x="341" y="610" on="0"/>
        <pt x="298" y="652" on="0"/>
        <pt x="266" y="652" on="1"/>
        <pt x="233" y="652" on="0"/>
        <pt x="191" y="609" on="0"/>
      </contour>
    </TTGlyph>
    <TTGlyph name="dieresis" xMin="175" yMin="591" xMax="540" yMax="729">
      <contour>
        <pt x="175" y="659" on="1"/>
        <pt x="175" y="691" on="0"/>
        <pt x="215" y="729" on="0"/>
        <pt x="248" y="729" on="1"/>
        <pt x="280" y="729" on="0"/>
        <pt x="321" y="691" on="0"/>
        <pt x="321" y="659" on="1"/>
        <pt x="321" y="629" on="0"/>
        <pt x="280" y="591" on="0"/>
        <pt x="248" y="591" on="1"/>
        <pt x="215" y="591" on="0"/>
        <pt x="175" y="629" on="0"/>
      </contour>
      <contour>
        <pt x="394" y="659" on="1"/>
        <pt x="394" y="691" on="0"/>
        <pt x="434" y="729" on="0"/>
        <pt x="466" y="729" on="1"/>
        <pt x="499" y="729" on="0"/>
        <pt x="540" y="691" on="0"/>
        <pt x="540" y="659" on="1"/>
        <pt x="540" y="629" on="0"/>
        <pt x="499" y="591" on="0"/>
        <pt x="466" y="591" on="1"/>
        <pt x="434" y="591" on="0"/>
        <pt x="394" y="629" on="0"/>
      </contour>
    </TTGlyph>
    <TTGlyph name="divide" xMin="55" yMin="76" xMax="505" yMax="616">
      <contour>
        <pt x="55" y="386" on="1"/>
        <pt x="505" y="386" on="1"/>
        <pt x="505" y="306" on="1"/>
        <pt x="55" y="306" on="1"/>
      </contour>
      <contour>
        <pt x="195" y="536" on="1"/>
        <pt x="195" y="572" on="0"/>
        <pt x="241" y="616" on="0"/>
        <pt x="279" y="616" on="1"/>
        <pt x="317" y="616" on="0"/>
        <pt x="365" y="572" on="0"/>
        <pt x="365" y="536" on="1"/>
        <pt x="365" y="500" on="0"/>
        <pt x="317" y="457" on="0"/>
        <pt x="279" y="457" on="1"/>
        <pt x="241" y="457" on="0"/>
        <pt x="195" y="500" on="0"/>
      </contour>
      <contour>
        <pt x="195" y="155" on="1"/>
        <pt x="195" y="191" on="0"/>
        <pt x="241" y="235" on="0"/>
        <pt x="279" y="235" on="1"/>
        <pt x="317" y="235" on="0"/>
        <pt x="365" y="191" on="0"/>
        <pt x="365" y="155" on="1"/>
        <pt x="365" y="119" on="0"/>
        <pt x="317" y="76" on="0"/>
        <pt x="279" y="76" on="1"/>
        <pt x="241" y="76" on="0"/>
        <pt x="195" y="119" on="0"/>
      </contour>
    </TTGlyph>
    <TTGlyph name="dollar" xMin="13" yMin="-70" xMax="578" yMax="760">
      <contour>
        <pt x="198" y="-12" on="1"/>
        <pt x="171" y="-11" on="0"/>
        <pt x="113" y="0" on="0"/>
        <pt x="62" y="14" on="0"/>
        <pt x="22" y="31" on="0"/>
        <pt x="13" y="39" on="1"/>
        <pt x="25" y="85" on="0"/>
        <pt x="56" y="152" on="0"/>
        <pt x="72" y="175" on="1"/>
        <pt x="113" y="175" on="1"/>
        <pt x="143" y="78" on="1"/>
        <pt x="151" y="70" on="0"/>
        <pt x="186" y="55" on="0"/>
        <pt x="212" y="53" on="1"/>
        <pt x="264" y="297" on="1"/>
        <pt x="237" y="315" on="0"/>
        <pt x="183" y="352" on="0"/>
        <pt x="138" y="399" on="0"/>
        <pt x="110" y="460" on="0"/>
        <pt x="110" y="502" on="1"/>
        <pt x="110" y="546" on="0"/>
        <pt x="144" y="619" on="0"/>
        <pt x="207" y="674" on="0"/>
        <pt x="296" y="707" on="0"/>
        <pt x="351" y="710" on="1"/>
        <pt x="362" y="760" on="1"/>
        <pt x="432" y="760" on="1"/>
        <pt x="421" y="711" on="1"/>
        <pt x="469" y="709" on="0"/>
        <pt x="546" y="692" on="0"/>
        <pt x="578" y="677" on="1"/>
        <pt x="569" y="636" on="0"/>
        <pt x="540" y="584" on="0"/>
        <pt x="526" y="564" on="1"/>
        <pt x="484" y="564" on="1"/>
        <pt x="444" y="636" on="1"/>
        <pt x="427" y="641" on="0"/>
        <pt x="408" y="644" on="1"/>
        <pt x="360" y="419" on="1"/>
        <pt x="387" y="402" on="0"/>
        <pt x="441" y="365" on="0"/>
        <pt x="486" y="316" on="0"/>
        <pt x="514" y="252" on="0"/>
        <pt x="514" y="207" on="1"/>
        <pt x="514" y="164" on="0"/>
        <pt x="481" y="90" on="0"/>
        <pt x="419" y="33" on="0"/>
        <pt x="327" y="-4" on="0"/>
        <pt x="269" y="-10" on="1"/>
        <pt x="256" y="-70" on="1"/>
        <pt x="186" y="-70" on="1"/>
      </contour>
      <contour>
        <pt x="255" y="548" on="1"/>
        <pt x="255" y="516" on="0"/>
        <pt x="284" y="473" on="0"/>
        <pt x="307" y="455" on="1"/>
        <pt x="348" y="644" on="1"/>
        <pt x="306" y="638" on="0"/>
        <pt x="255" y="589" on="0"/>
      </contour>
      <contour>
        <pt x="364" y="155" on="1"/>
        <pt x="364" y="188" on="0"/>
        <pt x="337" y="236" on="0"/>
        <pt x="315" y="256" on="1"/>
        <pt x="273" y="57" on="1"/>
        <pt x="310" y="65" on="0"/>
        <pt x="364" y="113" on="0"/>
      </contour>
    </TTGlyph>
    <TTGlyph name="dotaccent" xMin="191" yMin="597" xMax="355" yMax="739">
      <contour>
        <pt x="191" y="667" on="1"/>
        <pt x="191" y="701" on="0"/>
        <pt x="237" y="739" on="0"/>
        <pt x="272" y="739" on="1"/>
        <pt x="310" y="739" on="0"/>
        <pt x="355" y="701" on="0"/>
        <pt x="355" y="667" on="1"/>
        <pt x="355" y="635" on="0"/>
        <pt x="310" y="597" on="0"/>
        <pt x="272" y="597" on="1"/>
        <pt x="237" y="597" on="0"/>
        <pt x="191" y="635" on="0"/>
      </contour>
    </TTGlyph>
    <TTGlyph name="dotlessi" xMin="42" yMin="-9" xMax="274" yMax="512">
      <contour>
        <pt x="59" y="442" on="1"/>
        <pt x="59" y="476" on="1"/>
        <pt x="74" y="482" on="0"/>
        <pt x="124" y="495" on="0"/>
        <pt x="180" y="505" on="0"/>
        <pt x="235" y="512" on="0"/>
        <pt x="256" y="512" on="1"/>
        <pt x="274" y="500" on="1"/>
        <pt x="184" y="69" on="1"/>
        <pt x="254" y="69" on="1"/>
        <pt x="254" y="35" on="1"/>
        <pt x="241" y="26" on="0"/>
        <pt x="206" y="10" on="0"/>
        <pt x="167" y="-2" on="0"/>
        <pt x="127" y="-9" on="0"/>
        <pt x="109" y="-9" on="1"/>
        <pt x="71" y="-9" on="0"/>
        <pt x="42" y="20" on="0"/>
        <pt x="42" y="37" on="1"/>
        <pt x="42" y="57" on="0"/>
        <pt x="48" y="95" on="0"/>
        <pt x="53" y="118" on="1"/>
        <pt x="121" y="428" on="1"/>
      </contour>
    </TTGlyph>
    <TTGlyph name="e" xMin="27" yMin="-12" xMax="462" yMax="512">
      <contour>
        <pt x="429" y="109" on="1"/>
        <pt x="418" y="89" on="0"/>
        <pt x="376" y="46" on="0"/>
        <pt x="320" y="11" on="0"/>
        <pt x="252" y="-12" on="0"/>
        <pt x="215" y="-12" on="1"/>
        <pt x="126" y="-12" on="0"/>
        <pt x="27" y="85" on="0"/>
        <pt x="27" y="174" on="1"/>
        <pt x="27" y="243" on="0"/>
        <pt x="71" y="365" on="0"/>
        <pt x="150" y="458" on="0"/>
        <pt x="259" y="512" on="0"/>
        <pt x="324" y="512" on="1"/>
        <pt x="384" y="512" on="0"/>
        <pt x="462" y="457" on="0"/>
        <pt x="462" y="409" on="1"/>
        <pt x="462" y="341" on="0"/>
        <pt x="327" y="253" on="0"/>
        <pt x="176" y="242" on="1"/>
        <pt x="173" y="228" on="0"/>
        <pt x="170" y="199" on="0"/>
        <pt x="170" y="186" on="1"/>
        <pt x="170" y="129" on="0"/>
        <pt x="228" y="68" on="0"/>
        <pt x="273" y="68" on="1"/>
        <pt x="292" y="68" on="0"/>
        <pt x="330" y="80" on="0"/>
        <pt x="365" y="100" on="0"/>
        <pt x="394" y="123" on="0"/>
        <pt x="405" y="134" on="1"/>
      </contour>
      <contour>
        <pt x="301" y="455" on="1"/>
        <pt x="267" y="455" on="0"/>
        <pt x="204" y="381" on="0"/>
        <pt x="183" y="293" on="1"/>
        <pt x="257" y="295" on="0"/>
        <pt x="348" y="357" on="0"/>
        <pt x="348" y="407" on="1"/>
        <pt x="348" y="427" on="0"/>
        <pt x="327" y="455" on="0"/>
      </contour>
    </TTGlyph>
    <TTGlyph name="eacute" xMin="27" yMin="-12" xMax="496" yMax="765">
      <component glyphName="e" x="0" y="0" flags="0x204"/>
      <component glyphName="acute" x="16" y="0" flags="0x4"/>
    </TTGlyph>
    <TTGlyph name="ecircumflex" xMin="27" yMin="-12" xMax="462" yMax="794">
      <component glyphName="e" x="0" y="0" flags="0x204"/>
      <component glyphName="circumflex" x="2" y="0" flags="0x4"/>
    </TTGlyph>
    <TTGlyph name="edieresis" xMin="27" yMin="-12" xMax="504" yMax="729">
      <component glyphName="e" x="0" y="0" flags="0x204"/>
      <component glyphName="dieresis" x="-36" y="0" flags="0x4"/>
    </TTGlyph>
    <TTGlyph name="egrave" xMin="27" yMin="-12" xMax="462" yMax="765">
      <component glyphName="e" x="0" y="0" flags="0x204"/>
      <component glyphName="grave" x="29" y="0" flags="0x4"/>
    </TTGlyph>
    <TTGlyph name="eight" xMin="8" yMin="-12" xMax="562" yMax="712">
      <contour>
        <pt x="8" y="137" on="1"/>
        <pt x="8" y="173" on="0"/>
        <pt x="37" y="238" on="0"/>
        <pt x="90" y="291" on="0"/>
        <pt x="165" y="332" on="0"/>
        <pt x="212" y="345" on="1"/>
        <pt x="165" y="380" on="0"/>
        <pt x="117" y="453" on="0"/>
        <pt x="117" y="506" on="1"/>
        <pt x="117" y="548" on="0"/>
        <pt x="150" y="623" on="0"/>
        <pt x="214" y="679" on="0"/>
        <pt x="308" y="712" on="0"/>
        <pt x="369" y="712" on="1"/>
        <pt x="465" y="712" on="0"/>
        <pt x="562" y="637" on="0"/>
        <pt x="562" y="571" on="1"/>
        <pt x="562" y="540" on="0"/>
        <pt x="536" y="483" on="0"/>
        <pt x="490" y="433" on="0"/>
        <pt x="423" y="395" on="0"/>
        <pt x="383" y="383" on="1"/>
        <pt x="419" y="360" on="0"/>
        <pt x="466" y="317" on="0"/>
        <pt x="495" y="273" on="0"/>
        <pt x="506" y="224" on="0"/>
        <pt x="506" y="196" on="1"/>
        <pt x="506" y="154" on="0"/>
        <pt x="468" y="79" on="0"/>
        <pt x="396" y="22" on="0"/>
        <pt x="291" y="-12" on="0"/>
        <pt x="225" y="-12" on="1"/>
        <pt x="123" y="-12" on="0"/>
        <pt x="8" y="63" on="0"/>
      </contour>
      <contour>
        <pt x="365" y="170" on="1"/>
        <pt x="365" y="192" on="0"/>
        <pt x="347" y="230" on="0"/>
        <pt x="315" y="265" on="0"/>
        <pt x="271" y="299" on="0"/>
        <pt x="245" y="318" on="1"/>
        <pt x="218" y="301" on="0"/>
        <pt x="181" y="257" on="0"/>
        <pt x="158" y="210" on="0"/>
        <pt x="148" y="164" on="0"/>
        <pt x="148" y="145" on="1"/>
        <pt x="148" y="97" on="0"/>
        <pt x="204" y="48" on="0"/>
        <pt x="242" y="48" on="1"/>
        <pt x="276" y="48" on="0"/>
        <pt x="323" y="71" on="0"/>
        <pt x="352" y="106" on="0"/>
        <pt x="365" y="149" on="0"/>
      </contour>
      <contour>
        <pt x="253" y="535" on="1"/>
        <pt x="253" y="499" on="0"/>
        <pt x="307" y="431" on="0"/>
        <pt x="348" y="406" on="1"/>
        <pt x="392" y="445" on="0"/>
        <pt x="431" y="529" on="0"/>
        <pt x="431" y="571" on="1"/>
        <pt x="431" y="606" on="0"/>
        <pt x="395" y="652" on="0"/>
        <pt x="354" y="652" on="1"/>
        <pt x="330" y="652" on="0"/>
        <pt x="292" y="633" on="0"/>
        <pt x="266" y="601" on="0"/>
        <pt x="253" y="559" on="0"/>
      </contour>
    </TTGlyph>
    <TTGlyph name="ellipsis" xMin="24" yMin="-8" xMax="844" yMax="151">
      <component glyphName="period" x="650" y="0" flags="0x4"/>
      <component glyphName="period" x="325" y="0" flags="0x4"/>
      <component glyphName="period" x="0" y="0" flags="0x4"/>
    </TTGlyph>
    <TTGlyph name="emdash" xMin="67" yMin="237" xMax="829" yMax="327">
      <contour>
        <pt x="87" y="327" on="1"/>
        <pt x="829" y="327" on="1"/>
        <pt x="809" y="237" on="1"/>
        <pt x="67" y="237" on="1"/>
      </contour>
    </TTGlyph>
    <TTGlyph name="endash" xMin="67" yMin="237" xMax="569" yMax="327">
      <contour>
        <pt x="87" y="327" on="1"/>
        <pt x="569" y="327" on="1"/>
        <pt x="549" y="237" on="1"/>
        <pt x="67" y="237" on="1"/>
      </contour>
    </TTGlyph>
    <TTGlyph name="equal" xMin="55" yMin="219" xMax="505" yMax="469">
      <contour>
        <pt x="55" y="469" on="1"/>
        <pt x="505" y="469" on="1"/>
        <pt x="505" y="389" on="1"/>
        <pt x="55" y="389" on="1"/>
      </contour>
      <contour>
        <pt x="55" y="299" on="1"/>
        <pt x="505" y="299" on="1"/>
        <pt x="505" y="219" on="1"/>
        <pt x="55" y="219" on="1"/>
      </contour>
    </TTGlyph>
    <TTGlyph name="eth" xMin="21" yMin="-12" xMax="559" yMax="750">
      <contour>
        <pt x="240" y="614" on="1"/>
        <pt x="334" y="654" on="1"/>
        <pt x="315" y="679" on="0"/>
        <pt x="266" y="713" on="0"/>
        <pt x="238" y="722" on="1"/>
        <pt x="238" y="750" on="1"/>
        <pt x="365" y="750" on="1"/>
        <pt x="382" y="744" on="0"/>
        <pt x="421" y="717" on="0"/>
        <pt x="441" y="696" on="1"/>
        <pt x="536" y="736" on="1"/>
        <pt x="559" y="683" on="1"/>
        <pt x="476" y="647" on="1"/>
        <pt x="496" y="613" on="0"/>
        <pt x="520" y="522" on="0"/>
        <pt x="520" y="462" on="1"/>
        <pt x="520" y="362" on="0"/>
        <pt x="473" y="189" on="0"/>
        <pt x="387" y="61" on="0"/>
        <pt x="265" y="-12" on="0"/>
        <pt x="191" y="-12" on="1"/>
        <pt x="154" y="-12" on="0"/>
        <pt x="91" y="13" on="0"/>
        <pt x="46" y="59" on="0"/>
        <pt x="21" y="127" on="0"/>
        <pt x="21" y="171" on="1"/>
        <pt x="21" y="243" on="0"/>
        <pt x="68" y="366" on="0"/>
        <pt x="148" y="455" on="0"/>
        <pt x="254" y="506" on="0"/>
        <pt x="312" y="506" on="1"/>
        <pt x="332" y="506" on="0"/>
        <pt x="372" y="498" on="0"/>
        <pt x="383" y="490" on="1"/>
        <pt x="383" y="522" on="0"/>
        <pt x="372" y="578" on="0"/>
        <pt x="362" y="601" on="1"/>
        <pt x="264" y="560" on="1"/>
      </contour>
      <contour>
        <pt x="315" y="449" on="1"/>
        <pt x="274" y="449" on="0"/>
        <pt x="216" y="393" on="0"/>
        <pt x="180" y="306" on="0"/>
        <pt x="163" y="202" on="0"/>
        <pt x="163" y="154" on="1"/>
        <pt x="163" y="132" on="0"/>
        <pt x="169" y="92" on="0"/>
        <pt x="182" y="62" on="0"/>
        <pt x="206" y="45" on="0"/>
        <pt x="224" y="45" on="1"/>
        <pt x="254" y="45" on="0"/>
        <pt x="308" y="106" on="0"/>
        <pt x="350" y="211" on="0"/>
        <pt x="376" y="351" on="0"/>
        <pt x="378" y="431" on="1"/>
        <pt x="363" y="441" on="0"/>
        <pt x="331" y="449" on="0"/>
      </contour>
    </TTGlyph>
    <TTGlyph name="exclam" xMin="72" yMin="-8" xMax="350" yMax="701">
      <contour>
        <pt x="158" y="218" on="1"/>
        <pt x="146" y="412" on="1"/>
        <pt x="200" y="690" on="1"/>
        <pt x="211" y="695" on="0"/>
        <pt x="254" y="701" on="0"/>
        <pt x="277" y="701" on="1"/>
        <pt x="300" y="701" on="0"/>
        <pt x="340" y="695" on="0"/>
        <pt x="350" y="690" on="1"/>
        <pt x="290" y="412" on="1"/>
        <pt x="202" y="218" on="1"/>
      </contour>
      <contour>
        <pt x="72" y="71" on="1"/>
        <pt x="72" y="107" on="0"/>
        <pt x="118" y="151" on="0"/>
        <pt x="156" y="151" on="1"/>
        <pt x="194" y="151" on="0"/>
        <pt x="242" y="107" on="0"/>
        <pt x="242" y="71" on="1"/>
        <pt x="242" y="35" on="0"/>
        <pt x="194" y="-8" on="0"/>
        <pt x="156" y="-8" on="1"/>
        <pt x="118" y="-8" on="0"/>
        <pt x="72" y="35" on="0"/>
      </contour>
    </TTGlyph>
    <TTGlyph name="exclamdown" xMin="18" yMin="-197" xMax="298" yMax="512">
      <contour>
        <pt x="210" y="286" on="1"/>
        <pt x="222" y="92" on="1"/>
        <pt x="168" y="-186" on="1"/>
        <pt x="156" y="-192" on="0"/>
        <pt x="114" y="-197" on="0"/>
        <pt x="91" y="-197" on="1"/>
        <pt x="68" y="-197" on="0"/>
        <pt x="27" y="-192" on="0"/>
        <pt x="18" y="-186" on="1"/>
        <pt x="78" y="92" on="1"/>
        <pt x="166" y="286" on="1"/>
      </contour>
      <contour>
        <pt x="128" y="432" on="1"/>
        <pt x="128" y="468" on="0"/>
        <pt x="174" y="512" on="0"/>
        <pt x="212" y="512" on="1"/>
        <pt x="250" y="512" on="0"/>
        <pt x="298" y="468" on="0"/>
        <pt x="298" y="432" on="1"/>
        <pt x="298" y="396" on="0"/>
        <pt x="250" y="353" on="0"/>
        <pt x="212" y="353" on="1"/>
        <pt x="174" y="353" on="0"/>
        <pt x="128" y="396" on="0"/>
      </contour>
    </TTGlyph>
    <TTGlyph name="f" xMin="-73" yMin="-212" xMax="492" yMax="752">
      <contour>
        <pt x="113" y="437" on="1"/>
        <pt x="42" y="437" on="1"/>
        <pt x="42" y="476" on="1"/>
        <pt x="62" y="487" on="0"/>
        <pt x="107" y="504" on="0"/>
        <pt x="127" y="509" on="1"/>
        <pt x="134" y="544" on="1"/>
        <pt x="147" y="606" on="0"/>
        <pt x="192" y="687" on="0"/>
        <pt x="252" y="734" on="0"/>
        <pt x="328" y="752" on="0"/>
        <pt x="372" y="752" on="1"/>
        <pt x="404" y="752" on="0"/>
        <pt x="470" y="741" on="0"/>
        <pt x="490" y="730" on="1"/>
        <pt x="492" y="716" on="0"/>
        <pt x="485" y="683" on="0"/>
        <pt x="470" y="653" on="0"/>
        <pt x="450" y="629" on="0"/>
        <pt x="438" y="623" on="1"/>
        <pt x="366" y="699" on="1"/>
        <pt x="352" y="696" on="0"/>
        <pt x="325" y="683" on="0"/>
        <pt x="301" y="653" on="0"/>
        <pt x="278" y="597" on="0"/>
        <pt x="269" y="550" on="1"/>
        <pt x="260" y="500" on="1"/>
        <pt x="370" y="500" on="1"/>
        <pt x="372" y="489" on="0"/>
        <pt x="368" y="450" on="0"/>
        <pt x="357" y="437" on="1"/>
        <pt x="247" y="437" on="1"/>
        <pt x="185" y="43" on="1"/>
        <pt x="175" y="-28" on="0"/>
        <pt x="113" y="-122" on="0"/>
        <pt x="38" y="-179" on="0"/>
        <pt x="-38" y="-207" on="0"/>
        <pt x="-62" y="-212" on="1"/>
        <pt x="-73" y="-178" on="1"/>
        <pt x="-61" y="-172" on="0"/>
        <pt x="-25" y="-145" on="0"/>
        <pt x="11" y="-97" on="0"/>
        <pt x="42" y="-26" on="0"/>
        <pt x="50" y="24" on="1"/>
      </contour>
    </TTGlyph>
    <TTGlyph name="fi" xMin="-73" yMin="-212" xMax="570" yMax="752">
      <contour>
        <pt x="325" y="500" on="1"/>
        <pt x="344" y="500" on="0"/>
        <pt x="399" y="501" on="0"/>
        <pt x="458" y="504" on="0"/>
        <pt x="513" y="509" on="0"/>
        <pt x="531" y="512" on="1"/>
        <pt x="549" y="500" on="1"/>
        <pt x="466" y="69" on="1"/>
        <pt x="536" y="69" on="1"/>
        <pt x="536" y="35" on="1"/>
        <pt x="523" y="26" on="0"/>
        <pt x="489" y="10" on="0"/>
        <pt x="450" y="-2" on="0"/>
        <pt x="410" y="-9" on="0"/>
        <pt x="392" y="-9" on="1"/>
        <pt x="354" y="-9" on="0"/>
        <pt x="324" y="20" on="0"/>
        <pt x="324" y="37" on="1"/>
        <pt x="324" y="57" on="0"/>
        <pt x="330" y="95" on="0"/>
        <pt x="335" y="118" on="1"/>
        <pt x="397" y="432" on="1"/>
        <pt x="247" y="437" on="1"/>
        <pt x="185" y="43" on="1"/>
        <pt x="175" y="-28" on="0"/>
        <pt x="113" y="-122" on="0"/>
        <pt x="38" y="-179" on="0"/>
        <pt x="-38" y="-207" on="0"/>
        <pt x="-62" y="-212" on="1"/>
        <pt x="-73" y="-178" on="1"/>
        <pt x="-61" y="-172" on="0"/>
        <pt x="-25" y="-145" on="0"/>
        <pt x="11" y="-97" on="0"/>
        <pt x="42" y="-26" on="0"/>
        <pt x="50" y="24" on="1"/>
        <pt x="113" y="437" on="1"/>
        <pt x="42" y="437" on="1"/>
        <pt x="42" y="476" on="1"/>
        <pt x="62" y="487" on="0"/>
        <pt x="107" y="504" on="0"/>
        <pt x="127" y="509" on="1"/>
        <pt x="134" y="544" on="1"/>
        <pt x="147" y="606" on="0"/>
        <pt x="195" y="687" on="0"/>
        <pt x="262" y="734" on="0"/>
        <pt x="347" y="752" on="0"/>
        <pt x="397" y="752" on="1"/>
        <pt x="452" y="752" on="0"/>
        <pt x="546" y="723" on="0"/>
        <pt x="570" y="706" on="1"/>
        <pt x="569" y="692" on="0"/>
        <pt x="557" y="657" on="0"/>
        <pt x="534" y="625" on="0"/>
        <pt x="502" y="600" on="0"/>
        <pt x="481" y="594" on="1"/>
        <pt x="396" y="699" on="1"/>
        <pt x="379" y="698" on="0"/>
        <pt x="342" y="686" on="0"/>
        <pt x="308" y="654" on="0"/>
        <pt x="278" y="597" on="0"/>
        <pt x="269" y="550" on="1"/>
        <pt x="260" y="500" on="1"/>
      </contour>
    </TTGlyph>
    <TTGlyph name="five" xMin="7" yMin="-12" xMax="606" yMax="755">
      <contour>
        <pt x="572" y="755" on="1"/>
        <pt x="606" y="755" on="1"/>
        <pt x="603" y="740" on="0"/>
        <pt x="591" y="692" on="0"/>
        <pt x="574" y="642" on="0"/>
        <pt x="556" y="597" on="0"/>
        <pt x="549" y="585" on="1"/>
        <pt x="276" y="585" on="1"/>
        <pt x="227" y="442" on="1"/>
        <pt x="293" y="442" on="1"/>
        <pt x="346" y="442" on="0"/>
        <pt x="426" y="416" on="0"/>
        <pt x="479" y="369" on="0"/>
        <pt x="506" y="305" on="0"/>
        <pt x="506" y="267" on="1"/>
        <pt x="506" y="208" on="0"/>
        <pt x="467" y="107" on="0"/>
        <pt x="388" y="31" on="0"/>
        <pt x="267" y="-12" on="0"/>
        <pt x="185" y="-12" on="1"/>
        <pt x="123" y="-12" on="0"/>
        <pt x="30" y="25" on="0"/>
        <pt x="7" y="48" on="1"/>
        <pt x="69" y="147" on="1"/>
        <pt x="98" y="147" on="1"/>
        <pt x="104" y="140" on="0"/>
        <pt x="118" y="118" on="0"/>
        <pt x="132" y="94" on="0"/>
        <pt x="145" y="70" on="0"/>
        <pt x="150" y="61" on="1"/>
        <pt x="159" y="57" on="0"/>
        <pt x="185" y="53" on="0"/>
        <pt x="199" y="53" on="1"/>
        <pt x="244" y="53" on="0"/>
        <pt x="309" y="82" on="0"/>
        <pt x="351" y="131" on="0"/>
        <pt x="371" y="194" on="0"/>
        <pt x="371" y="228" on="1"/>
        <pt x="371" y="287" on="0"/>
        <pt x="291" y="337" on="0"/>
        <pt x="222" y="336" on="1"/>
        <pt x="134" y="335" on="1"/>
        <pt x="252" y="700" on="1"/>
        <pt x="513" y="700" on="1"/>
      </contour>
    </TTGlyph>
    <TTGlyph name="fl" xMin="-73" yMin="-212" xMax="604" yMax="752">
      <contour>
        <pt x="346" y="118" on="1"/>
        <pt x="364" y="210" on="0"/>
        <pt x="393" y="355" on="0"/>
        <pt x="414" y="467" on="0"/>
        <pt x="430" y="547" on="0"/>
        <pt x="435" y="575" on="1"/>
        <pt x="447" y="640" on="0"/>
        <pt x="450" y="662" on="1"/>
        <pt x="436" y="675" on="0"/>
        <pt x="405" y="694" on="0"/>
        <pt x="384" y="694" on="1"/>
        <pt x="366" y="694" on="0"/>
        <pt x="333" y="684" on="0"/>
        <pt x="303" y="654" on="0"/>
        <pt x="278" y="597" on="0"/>
        <pt x="269" y="550" on="1"/>
        <pt x="260" y="500" on="1"/>
        <pt x="355" y="500" on="1"/>
        <pt x="357" y="489" on="0"/>
        <pt x="353" y="450" on="0"/>
        <pt x="342" y="437" on="1"/>
        <pt x="247" y="437" on="1"/>
        <pt x="233" y="344" on="0"/>
        <pt x="204" y="161" on="0"/>
        <pt x="189" y="68" on="1"/>
        <pt x="177" y="-12" on="0"/>
        <pt x="117" y="-114" on="0"/>
        <pt x="43" y="-177" on="0"/>
        <pt x="-34" y="-206" on="0"/>
        <pt x="-62" y="-212" on="1"/>
        <pt x="-73" y="-178" on="1"/>
        <pt x="-61" y="-172" on="0"/>
        <pt x="-25" y="-145" on="0"/>
        <pt x="11" y="-97" on="0"/>
        <pt x="42" y="-26" on="0"/>
        <pt x="50" y="24" on="1"/>
        <pt x="113" y="437" on="1"/>
        <pt x="42" y="437" on="1"/>
        <pt x="42" y="476" on="1"/>
        <pt x="62" y="487" on="0"/>
        <pt x="107" y="504" on="0"/>
        <pt x="127" y="509" on="1"/>
        <pt x="134" y="544" on="1"/>
        <pt x="157" y="654" on="0"/>
        <pt x="271" y="752" on="0"/>
        <pt x="365" y="752" on="1"/>
        <pt x="385" y="752" on="0"/>
        <pt x="419" y="748" on="0"/>
        <pt x="452" y="743" on="0"/>
        <pt x="486" y="740" on="0"/>
        <pt x="504" y="742" on="1"/>
        <pt x="525" y="746" on="0"/>
        <pt x="567" y="751" on="0"/>
        <pt x="584" y="752" on="1"/>
        <pt x="604" y="741" on="1"/>
        <pt x="479" y="69" on="1"/>
        <pt x="549" y="69" on="1"/>
        <pt x="549" y="35" on="1"/>
        <pt x="539" y="27" on="0"/>
        <pt x="505" y="11" on="0"/>
        <pt x="464" y="-1" on="0"/>
        <pt x="420" y="-9" on="0"/>
        <pt x="400" y="-9" on="1"/>
        <pt x="366" y="-9" on="0"/>
        <pt x="335" y="20" on="0"/>
        <pt x="335" y="37" on="1"/>
        <pt x="335" y="57" on="0"/>
        <pt x="341" y="95" on="0"/>
      </contour>
    </TTGlyph>
    <TTGlyph name="four" xMin="-14" yMin="0" xMax="560" yMax="712">
      <contour>
        <pt x="461" y="0" on="1"/>
        <pt x="152" y="0" on="1"/>
        <pt x="161" y="43" on="1"/>
        <pt x="212" y="60" on="0"/>
        <pt x="258" y="67" on="1"/>
        <pt x="282" y="180" on="1"/>
        <pt x="-14" y="180" on="1"/>
        <pt x="-5" y="225" on="1"/>
        <pt x="482" y="712" on="1"/>
        <pt x="536" y="712" on="1"/>
        <pt x="437" y="245" on="1"/>
        <pt x="560" y="245" on="1"/>
        <pt x="546" y="180" on="1"/>
        <pt x="423" y="180" on="1"/>
        <pt x="399" y="67" on="1"/>
        <pt x="436" y="59" on="0"/>
        <pt x="470" y="43" on="1"/>
      </contour>
      <contour>
        <pt x="341" y="458" on="1"/>
        <pt x="369" y="528" on="1"/>
        <pt x="366" y="528" on="1"/>
        <pt x="312" y="458" on="1"/>
        <pt x="129" y="271" on="1"/>
        <pt x="82" y="238" on="1"/>
        <pt x="155" y="245" on="1"/>
        <pt x="296" y="245" on="1"/>
      </contour>
    </TTGlyph>
    <TTGlyph name="fraction" xMin="-198" yMin="-13" xMax="514" yMax="715">
      <contour>
        <pt x="466" y="715" on="1"/>
        <pt x="514" y="673" on="1"/>
        <pt x="-151" y="-13" on="1"/>
        <pt x="-198" y="30" on="1"/>
      </contour>
    </TTGlyph>
    <TTGlyph name="g" xMin="-59" yMin="-212" xMax="587" yMax="536">
      <contour>
        <pt x="294" y="512" on="1"/>
        <pt x="351" y="512" on="0"/>
        <pt x="424" y="486" on="0"/>
        <pt x="441" y="472" on="1"/>
        <pt x="451" y="481" on="0"/>
        <pt x="485" y="500" on="0"/>
        <pt x="524" y="517" on="0"/>
        <pt x="563" y="531" on="0"/>
        <pt x="579" y="536" on="1"/>
        <pt x="584" y="527" on="0"/>
        <pt x="587" y="497" on="0"/>
        <pt x="584" y="466" on="0"/>
        <pt x="574" y="438" on="0"/>
        <pt x="566" y="429" on="1"/>
        <pt x="467" y="440" on="1"/>
        <pt x="472" y="432" on="0"/>
        <pt x="479" y="406" on="0"/>
        <pt x="479" y="390" on="1"/>
        <pt x="479" y="354" on="0"/>
        <pt x="445" y="289" on="0"/>
        <pt x="380" y="241" on="0"/>
        <pt x="289" y="212" on="0"/>
        <pt x="232" y="212" on="1"/>
        <pt x="215" y="212" on="0"/>
        <pt x="194" y="213" on="0"/>
        <pt x="181" y="216" on="1"/>
        <pt x="176" y="212" on="0"/>
        <pt x="163" y="203" on="0"/>
        <pt x="150" y="193" on="0"/>
        <pt x="141" y="180" on="0"/>
        <pt x="141" y="172" on="1"/>
        <pt x="141" y="157" on="0"/>
        <pt x="191" y="141" on="0"/>
        <pt x="265" y="129" on="0"/>
        <pt x="353" y="113" on="0"/>
        <pt x="427" y="83" on="0"/>
        <pt x="477" y="32" on="0"/>
        <pt x="477" y="-10" on="1"/>
        <pt x="477" y="-56" on="0"/>
        <pt x="418" y="-130" on="0"/>
        <pt x="323" y="-183" on="0"/>
        <pt x="204" y="-212" on="0"/>
        <pt x="143" y="-212" on="1"/>
        <pt x="93" y="-212" on="0"/>
        <pt x="17" y="-193" on="0"/>
        <pt x="-34" y="-160" on="0"/>
        <pt x="-59" y="-118" on="0"/>
        <pt x="-59" y="-95" on="1"/>
        <pt x="-59" y="-43" on="0"/>
        <pt x="31" y="28" on="0"/>
        <pt x="100" y="51" on="1"/>
        <pt x="74" y="62" on="0"/>
        <pt x="43" y="93" on="0"/>
        <pt x="43" y="117" on="1"/>
        <pt x="43" y="132" on="0"/>
        <pt x="61" y="164" on="0"/>
        <pt x="89" y="194" on="0"/>
        <pt x="123" y="219" on="0"/>
        <pt x="140" y="227" on="1"/>
        <pt x="125" y="230" on="0"/>
        <pt x="92" y="248" on="0"/>
        <pt x="65" y="275" on="0"/>
        <pt x="47" y="312" on="0"/>
        <pt x="47" y="333" on="1"/>
        <pt x="47" y="372" on="0"/>
        <pt x="81" y="438" on="0"/>
        <pt x="145" y="485" on="0"/>
        <pt x="236" y="512" on="0"/>
      </contour>
      <contour>
        <pt x="190" y="-155" on="1"/>
        <pt x="217" y="-155" on="0"/>
        <pt x="268" y="-142" on="0"/>
        <pt x="308" y="-117" on="0"/>
        <pt x="333" y="-79" on="0"/>
        <pt x="333" y="-53" on="1"/>
        <pt x="333" y="-29" on="0"/>
        <pt x="294" y="0" on="0"/>
        <pt x="234" y="19" on="0"/>
        <pt x="163" y="31" on="0"/>
        <pt x="131" y="39" on="1"/>
        <pt x="103" y="18" on="0"/>
        <pt x="75" y="-40" on="0"/>
        <pt x="75" y="-69" on="1"/>
        <pt x="75" y="-109" on="0"/>
        <pt x="137" y="-155" on="0"/>
      </contour>
      <contour>
        <pt x="282" y="457" on="1"/>
        <pt x="258" y="457" on="0"/>
        <pt x="222" y="437" on="0"/>
        <pt x="198" y="403" on="0"/>
        <pt x="186" y="357" on="0"/>
        <pt x="186" y="331" on="1"/>
        <pt x="186" y="296" on="0"/>
        <pt x="221" y="267" on="0"/>
        <pt x="241" y="267" on="1"/>
        <pt x="265" y="267" on="0"/>
        <pt x="301" y="287" on="0"/>
        <pt x="325" y="320" on="0"/>
        <pt x="337" y="364" on="0"/>
        <pt x="337" y="389" on="1"/>
        <pt x="337" y="419" on="0"/>
        <pt x="309" y="457" on="0"/>
      </contour>
    </TTGlyph>
    <TTGlyph name="germandbls" xMin="-73" yMin="-212" xMax="630" yMax="752">
      <contour>
        <pt x="300" y="376" on="1"/>
        <pt x="300" y="421" on="0"/>
        <pt x="333" y="489" on="0"/>
        <pt x="387" y="539" on="0"/>
        <pt x="456" y="573" on="0"/>
        <pt x="493" y="584" on="1"/>
        <pt x="504" y="635" on="0"/>
        <pt x="458" y="695" on="0"/>
        <pt x="410" y="695" on="1"/>
        <pt x="390" y="695" on="0"/>
        <pt x="346" y="683" on="0"/>
        <pt x="307" y="652" on="0"/>
        <pt x="276" y="595" on="0"/>
        <pt x="269" y="550" on="1"/>
        <pt x="185" y="43" on="1"/>
        <pt x="175" y="-28" on="0"/>
        <pt x="113" y="-122" on="0"/>
        <pt x="38" y="-179" on="0"/>
        <pt x="-38" y="-207" on="0"/>
        <pt x="-62" y="-212" on="1"/>
        <pt x="-73" y="-178" on="1"/>
        <pt x="-61" y="-172" on="0"/>
        <pt x="-25" y="-145" on="0"/>
        <pt x="11" y="-97" on="0"/>
        <pt x="42" y="-26" on="0"/>
        <pt x="50" y="24" on="1"/>
        <pt x="113" y="437" on="1"/>
        <pt x="42" y="437" on="1"/>
        <pt x="42" y="476" on="1"/>
        <pt x="62" y="487" on="0"/>
        <pt x="107" y="504" on="0"/>
        <pt x="127" y="509" on="1"/>
        <pt x="134" y="544" on="1"/>
        <pt x="146" y="606" on="0"/>
        <pt x="211" y="687" on="0"/>
        <pt x="295" y="734" on="0"/>
        <pt x="388" y="752" on="0"/>
        <pt x="429" y="752" on="1"/>
        <pt x="526" y="752" on="0"/>
        <pt x="624" y="682" on="0"/>
        <pt x="629" y="622" on="1"/>
        <pt x="630" y="611" on="0"/>
        <pt x="627" y="588" on="0"/>
        <pt x="625" y="575" on="1"/>
        <pt x="594" y="570" on="0"/>
        <pt x="529" y="549" on="0"/>
        <pt x="476" y="511" on="0"/>
        <pt x="442" y="457" on="0"/>
        <pt x="442" y="419" on="1"/>
        <pt x="442" y="395" on="0"/>
        <pt x="467" y="358" on="0"/>
        <pt x="503" y="323" on="0"/>
        <pt x="547" y="287" on="0"/>
        <pt x="583" y="245" on="0"/>
        <pt x="608" y="193" on="0"/>
        <pt x="608" y="159" on="1"/>
        <pt x="608" y="121" on="0"/>
        <pt x="574" y="58" on="0"/>
        <pt x="515" y="13" on="0"/>
        <pt x="433" y="-12" on="0"/>
        <pt x="385" y="-12" on="1"/>
        <pt x="334" y="-12" on="0"/>
        <pt x="264" y="7" on="0"/>
        <pt x="244" y="21" on="1"/>
        <pt x="244" y="52" on="0"/>
        <pt x="268" y="109" on="0"/>
        <pt x="292" y="126" on="1"/>
        <pt x="378" y="45" on="1"/>
        <pt x="394" y="45" on="0"/>
        <pt x="425" y="58" on="0"/>
        <pt x="449" y="79" on="0"/>
        <pt x="463" y="108" on="0"/>
        <pt x="463" y="125" on="1"/>
        <pt x="463" y="150" on="0"/>
        <pt x="439" y="188" on="0"/>
        <pt x="403" y="222" on="0"/>
        <pt x="360" y="255" on="0"/>
        <pt x="324" y="294" on="0"/>
        <pt x="300" y="343" on="0"/>
      </contour>
    </TTGlyph>
    <TTGlyph name="grave" xMin="146" yMin="567" xMax="357" yMax="765">
      <contour>
        <pt x="357" y="589" on="1"/>
        <pt x="312" y="567" on="1"/>
        <pt x="146" y="712" on="1"/>
        <pt x="146" y="741" on="1"/>
        <pt x="152" y="747" on="0"/>
        <pt x="192" y="758" on="0"/>
        <pt x="237" y="764" on="0"/>
        <pt x="277" y="765" on="0"/>
        <pt x="284" y="763" on="1"/>
      </contour>
    </TTGlyph>
    <TTGlyph name="greater" xMin="59" yMin="103" xMax="499" yMax="590">
      <contour>
        <pt x="499" y="369" on="1"/>
        <pt x="499" y="338" on="1"/>
        <pt x="114" y="103" on="1"/>
        <pt x="79" y="168" on="1"/>
        <pt x="292" y="296" on="1"/>
        <pt x="373" y="330" on="1"/>
        <pt x="293" y="361" on="1"/>
        <pt x="59" y="497" on="1"/>
        <pt x="115" y="590" on="1"/>
      </contour>
    </TTGlyph>
    <TTGlyph name="guillemotleft" xMin="38" yMin="39" xMax="514" yMax="482">
      <contour>
        <pt x="254" y="259" on="1"/>
        <pt x="479" y="481" on="1"/>
        <pt x="514" y="445" on="1"/>
        <pt x="364" y="256" on="1"/>
        <pt x="442" y="77" on="1"/>
        <pt x="392" y="41" on="1"/>
      </contour>
      <contour>
        <pt x="38" y="259" on="1"/>
        <pt x="325" y="482" on="1"/>
        <pt x="356" y="446" on="1"/>
        <pt x="168" y="255" on="1"/>
        <pt x="284" y="76" on="1"/>
        <pt x="237" y="39" on="1"/>
      </contour>
    </TTGlyph>
    <TTGlyph name="guillemotright" xMin="26" yMin="39" xMax="502" yMax="482">
      <contour>
        <pt x="286" y="262" on="1"/>
        <pt x="61" y="40" on="1"/>
        <pt x="26" y="76" on="1"/>
        <pt x="176" y="265" on="1"/>
        <pt x="98" y="444" on="1"/>
        <pt x="148" y="480" on="1"/>
      </contour>
      <contour>
        <pt x="502" y="262" on="1"/>
        <pt x="215" y="39" on="1"/>
        <pt x="184" y="75" on="1"/>
        <pt x="372" y="266" on="1"/>
        <pt x="256" y="445" on="1"/>
        <pt x="303" y="482" on="1"/>
      </contour>
    </TTGlyph>
    <TTGlyph name="guilsinglleft" xMin="38" yMin="44" xMax="319" yMax="482">
      <contour>
        <pt x="38" y="259" on="1"/>
        <pt x="289" y="482" on="1"/>
        <pt x="319" y="445" on="1"/>
        <pt x="172" y="255" on="1"/>
        <pt x="247" y="77" on="1"/>
        <pt x="203" y="44" on="1"/>
      </contour>
    </TTGlyph>
    <TTGlyph name="guilsinglright" xMin="26" yMin="44" xMax="309" yMax="482">
      <contour>
        <pt x="55" y="44" on="1"/>
        <pt x="26" y="82" on="1"/>
        <pt x="176" y="274" on="1"/>
        <pt x="104" y="450" on="1"/>
        <pt x="148" y="482" on="1"/>
        <pt x="309" y="266" on="1"/>
      </contour>
    </TTGlyph>
    <TTGlyph name="h" xMin="21" yMin="-9" xMax="535" yMax="752">
      <contour>
        <pt x="90" y="682" on="1"/>
        <pt x="90" y="714" on="1"/>
        <pt x="105" y="720" on="0"/>
        <pt x="152" y="733" on="0"/>
        <pt x="207" y="744" on="0"/>
        <pt x="265" y="752" on="0"/>
        <pt x="291" y="752" on="1"/>
        <pt x="312" y="743" on="1"/>
        <pt x="228" y="354" on="1"/>
        <pt x="233" y="354" on="1"/>
        <pt x="252" y="386" on="0"/>
        <pt x="299" y="444" on="0"/>
        <pt x="351" y="487" on="0"/>
        <pt x="409" y="512" on="0"/>
        <pt x="439" y="512" on="1"/>
        <pt x="485" y="512" on="0"/>
        <pt x="535" y="459" on="0"/>
        <pt x="535" y="420" on="1"/>
        <pt x="535" y="393" on="0"/>
        <pt x="525" y="331" on="0"/>
        <pt x="518" y="302" on="1"/>
        <pt x="461" y="69" on="1"/>
        <pt x="535" y="69" on="1"/>
        <pt x="535" y="35" on="1"/>
        <pt x="515" y="19" on="0"/>
        <pt x="438" y="-9" on="0"/>
        <pt x="389" y="-9" on="1"/>
        <pt x="356" y="-9" on="0"/>
        <pt x="326" y="18" on="0"/>
        <pt x="326" y="37" on="1"/>
        <pt x="326" y="55" on="0"/>
        <pt x="335" y="93" on="0"/>
        <pt x="340" y="118" on="1"/>
        <pt x="377" y="285" on="1"/>
        <pt x="384" y="316" on="0"/>
        <pt x="395" y="367" on="0"/>
        <pt x="395" y="390" on="1"/>
        <pt x="395" y="408" on="0"/>
        <pt x="380" y="432" on="0"/>
        <pt x="365" y="432" on="1"/>
        <pt x="342" y="432" on="0"/>
        <pt x="296" y="399" on="0"/>
        <pt x="256" y="353" on="0"/>
        <pt x="225" y="303" on="0"/>
        <pt x="218" y="286" on="1"/>
        <pt x="159" y="0" on="1"/>
        <pt x="21" y="0" on="1"/>
        <pt x="156" y="669" on="1"/>
      </contour>
    </TTGlyph>
    <TTGlyph name="hyphen" xMin="63" yMin="237" xMax="370" yMax="327">
      <contour>
        <pt x="83" y="327" on="1"/>
        <pt x="370" y="327" on="1"/>
        <pt x="350" y="237" on="1"/>
        <pt x="63" y="237" on="1"/>
      </contour>
    </TTGlyph>
    <TTGlyph name="i" xMin="42" yMin="-9" xMax="306" yMax="739">
      <component glyphName="dotlessi" x="0" y="0" flags="0x204"/>
      <component glyphName="dotaccent" x="-49" y="0" flags="0x4"/>
    </TTGlyph>
    <TTGlyph name="iacute" xMin="42" yMin="-9" xMax="388" yMax="765">
      <component glyphName="dotlessi" x="0" y="0" flags="0x204"/>
      <component glyphName="acute" x="-92" y="0" flags="0x4"/>
    </TTGlyph>
    <TTGlyph name="icircumflex" xMin="42" yMin="-9" xMax="357" yMax="794">
      <component glyphName="dotlessi" x="0" y="0" flags="0x204"/>
      <component glyphName="circumflex" x="-98" y="0" flags="0x4"/>
    </TTGlyph>
    <TTGlyph name="idieresis" xMin="35" yMin="-9" xMax="400" yMax="729">
      <component glyphName="dotlessi" x="0" y="0" flags="0x204"/>
      <component glyphName="dieresis" x="-140" y="0" flags="0x4"/>
    </TTGlyph>
    <TTGlyph name="igrave" xMin="42" yMin="-9" xMax="274" yMax="765">
      <component glyphName="dotlessi" x="0" y="0" flags="0x204"/>
      <component glyphName="grave" x="-94" y="0" flags="0x4"/>
    </TTGlyph>
    <TTGlyph name="j" xMin="-81" yMin="-212" xMax="306" yMax="739">
      <component glyphName="uni0237" x="0" y="0" flags="0x204"/>
      <component glyphName="dotaccent" x="-49" y="0" flags="0x4"/>
    </TTGlyph>
    <TTGlyph name="k" xMin="21" yMin="-9" xMax="545" yMax="752">
      <contour>
        <pt x="315" y="45" on="1"/>
        <pt x="287" y="93" on="0"/>
        <pt x="254" y="187" on="0"/>
        <pt x="239" y="229" on="1"/>
        <pt x="206" y="239" on="1"/>
        <pt x="161" y="0" on="1"/>
        <pt x="21" y="0" on="1"/>
        <pt x="154" y="669" on="1"/>
        <pt x="87" y="682" on="1"/>
        <pt x="87" y="716" on="1"/>
        <pt x="101" y="722" on="0"/>
        <pt x="147" y="735" on="0"/>
        <pt x="201" y="745" on="0"/>
        <pt x="260" y="752" on="0"/>
        <pt x="288" y="752" on="1"/>
        <pt x="309" y="741" on="1"/>
        <pt x="216" y="283" on="1"/>
        <pt x="248" y="283" on="1"/>
        <pt x="265" y="296" on="0"/>
        <pt x="301" y="332" on="0"/>
        <pt x="333" y="368" on="0"/>
        <pt x="358" y="403" on="0"/>
        <pt x="365" y="415" on="1"/>
        <pt x="366" y="422" on="0"/>
        <pt x="367" y="446" on="0"/>
        <pt x="366" y="471" on="0"/>
        <pt x="365" y="494" on="0"/>
        <pt x="364" y="500" on="1"/>
        <pt x="381" y="506" on="0"/>
        <pt x="433" y="513" on="0"/>
        <pt x="460" y="513" on="1"/>
        <pt x="487" y="513" on="0"/>
        <pt x="534" y="506" on="0"/>
        <pt x="545" y="500" on="1"/>
        <pt x="532" y="467" on="0"/>
        <pt x="481" y="403" on="0"/>
        <pt x="422" y="347" on="0"/>
        <pt x="365" y="302" on="0"/>
        <pt x="347" y="289" on="1"/>
        <pt x="354" y="270" on="0"/>
        <pt x="383" y="212" on="0"/>
        <pt x="419" y="149" on="0"/>
        <pt x="459" y="90" on="0"/>
        <pt x="476" y="69" on="1"/>
        <pt x="530" y="69" on="1"/>
        <pt x="530" y="35" on="1"/>
        <pt x="520" y="27" on="0"/>
        <pt x="489" y="11" on="0"/>
        <pt x="453" y="-1" on="0"/>
        <pt x="415" y="-9" on="0"/>
        <pt x="397" y="-9" on="1"/>
        <pt x="373" y="-9" on="0"/>
        <pt x="332" y="13" on="0"/>
      </contour>
    </TTGlyph>
    <TTGlyph name="l" xMin="33" yMin="-9" xMax="307" yMax="752">
      <contour>
        <pt x="153" y="669" on="1"/>
        <pt x="85" y="682" on="1"/>
        <pt x="85" y="716" on="1"/>
        <pt x="99" y="722" on="0"/>
        <pt x="147" y="734" on="0"/>
        <pt x="203" y="745" on="0"/>
        <pt x="262" y="752" on="0"/>
        <pt x="287" y="752" on="1"/>
        <pt x="307" y="741" on="1"/>
        <pt x="176" y="69" on="1"/>
        <pt x="247" y="69" on="1"/>
        <pt x="247" y="35" on="1"/>
        <pt x="237" y="27" on="0"/>
        <pt x="203" y="11" on="0"/>
        <pt x="162" y="-1" on="0"/>
        <pt x="118" y="-9" on="0"/>
        <pt x="98" y="-9" on="1"/>
        <pt x="64" y="-9" on="0"/>
        <pt x="33" y="20" on="0"/>
        <pt x="33" y="37" on="1"/>
        <pt x="33" y="57" on="0"/>
        <pt x="39" y="95" on="0"/>
        <pt x="44" y="118" on="1"/>
      </contour>
    </TTGlyph>
    <TTGlyph name="less" xMin="61" yMin="103" xMax="501" yMax="590">
      <contour>
        <pt x="61" y="324" on="1"/>
        <pt x="61" y="355" on="1"/>
        <pt x="446" y="590" on="1"/>
        <pt x="482" y="525" on="1"/>
        <pt x="269" y="397" on="1"/>
        <pt x="187" y="363" on="1"/>
        <pt x="268" y="332" on="1"/>
        <pt x="501" y="195" on="1"/>
        <pt x="445" y="103" on="1"/>
      </contour>
    </TTGlyph>
    <TTGlyph name="logicalnot" xMin="55" yMin="185" xMax="489" yMax="401">
      <contour>
        <pt x="55" y="401" on="1"/>
        <pt x="489" y="401" on="1"/>
        <pt x="489" y="185" on="1"/>
        <pt x="409" y="185" on="1"/>
        <pt x="409" y="311" on="1"/>
        <pt x="55" y="311" on="1"/>
      </contour>
    </TTGlyph>
    <TTGlyph name="m" xMin="28" yMin="-9" xMax="803" yMax="512">
      <contour>
        <pt x="645" y="300" on="1"/>
        <pt x="650" y="323" on="0"/>
        <pt x="662" y="376" on="0"/>
        <pt x="662" y="391" on="1"/>
        <pt x="662" y="410" on="0"/>
        <pt x="649" y="432" on="0"/>
        <pt x="632" y="432" on="1"/>
        <pt x="615" y="432" on="0"/>
        <pt x="579" y="407" on="0"/>
        <pt x="545" y="366" on="0"/>
        <pt x="514" y="314" on="0"/>
        <pt x="502" y="287" on="1"/>
        <pt x="437" y="0" on="1"/>
        <pt x="303" y="0" on="1"/>
        <pt x="364" y="281" on="1"/>
        <pt x="371" y="312" on="0"/>
        <pt x="381" y="370" on="0"/>
        <pt x="381" y="395" on="1"/>
        <pt x="381" y="432" on="0"/>
        <pt x="353" y="432" on="1"/>
        <pt x="339" y="432" on="0"/>
        <pt x="303" y="406" on="0"/>
        <pt x="267" y="365" on="0"/>
        <pt x="235" y="313" on="0"/>
        <pt x="226" y="286" on="1"/>
        <pt x="168" y="0" on="1"/>
        <pt x="28" y="0" on="1"/>
        <pt x="117" y="429" on="1"/>
        <pt x="60" y="442" on="1"/>
        <pt x="60" y="476" on="1"/>
        <pt x="76" y="484" on="0"/>
        <pt x="123" y="498" on="0"/>
        <pt x="175" y="507" on="0"/>
        <pt x="229" y="512" on="0"/>
        <pt x="252" y="512" on="1"/>
        <pt x="273" y="500" on="1"/>
        <pt x="234" y="354" on="1"/>
        <pt x="238" y="354" on="1"/>
        <pt x="253" y="381" on="0"/>
        <pt x="296" y="438" on="0"/>
        <pt x="350" y="483" on="0"/>
        <pt x="412" y="512" on="0"/>
        <pt x="444" y="512" on="1"/>
        <pt x="456" y="512" on="0"/>
        <pt x="482" y="504" on="0"/>
        <pt x="505" y="483" on="0"/>
        <pt x="519" y="447" on="0"/>
        <pt x="519" y="419" on="1"/>
        <pt x="519" y="405" on="0"/>
        <pt x="514" y="369" on="0"/>
        <pt x="510" y="354" on="1"/>
        <pt x="527" y="385" on="0"/>
        <pt x="573" y="443" on="0"/>
        <pt x="626" y="486" on="0"/>
        <pt x="685" y="512" on="0"/>
        <pt x="717" y="512" on="1"/>
        <pt x="755" y="512" on="0"/>
        <pt x="803" y="464" on="0"/>
        <pt x="803" y="422" on="1"/>
        <pt x="803" y="390" on="0"/>
        <pt x="791" y="332" on="0"/>
        <pt x="784" y="300" on="1"/>
        <pt x="727" y="69" on="1"/>
        <pt x="797" y="69" on="1"/>
        <pt x="797" y="35" on="1"/>
        <pt x="787" y="27" on="0"/>
        <pt x="752" y="11" on="0"/>
        <pt x="712" y="-1" on="0"/>
        <pt x="670" y="-9" on="0"/>
        <pt x="652" y="-9" on="1"/>
        <pt x="616" y="-9" on="0"/>
        <pt x="588" y="20" on="0"/>
        <pt x="588" y="38" on="1"/>
        <pt x="588" y="67" on="0"/>
        <pt x="602" y="118" on="1"/>
      </contour>
    </TTGlyph>
    <TTGlyph name="macron" xMin="194" yMin="619" xMax="503" yMax="689">
      <contour>
        <pt x="194" y="619" on="1"/>
        <pt x="209" y="689" on="1"/>
        <pt x="503" y="689" on="1"/>
        <pt x="488" y="619" on="1"/>
      </contour>
    </TTGlyph>
    <TTGlyph name="minus" xMin="55" yMin="304" xMax="505" yMax="384">
      <contour>
        <pt x="55" y="384" on="1"/>
        <pt x="505" y="384" on="1"/>
        <pt x="505" y="304" on="1"/>
        <pt x="55" y="304" on="1"/>
      </contour>
    </TTGlyph>
    <TTGlyph name="mu" xMin="44" yMin="-208" xMax="640" yMax="512">
      <contour>
        <pt x="163" y="13" on="1"/>
        <pt x="180" y="-161" on="1"/>
        <pt x="172" y="-200" on="1"/>
        <pt x="134" y="-208" on="0"/>
        <pt x="71" y="-208" on="0"/>
        <pt x="44" y="-200" on="1"/>
        <pt x="177" y="429" on="1"/>
        <pt x="118" y="437" on="1"/>
        <pt x="124" y="476" on="1"/>
        <pt x="141" y="482" on="0"/>
        <pt x="190" y="494" on="0"/>
        <pt x="242" y="504" on="0"/>
        <pt x="290" y="511" on="0"/>
        <pt x="306" y="512" on="1"/>
        <pt x="339" y="506" on="1"/>
        <pt x="331" y="469" on="0"/>
        <pt x="316" y="402" on="0"/>
        <pt x="300" y="334" on="0"/>
        <pt x="284" y="263" on="0"/>
        <pt x="275" y="222" on="1"/>
        <pt x="258" y="140" on="0"/>
        <pt x="265" y="68" on="0"/>
        <pt x="297" y="68" on="1"/>
        <pt x="328" y="68" on="0"/>
        <pt x="409" y="148" on="0"/>
        <pt x="442" y="223" on="1"/>
        <pt x="489" y="457" on="1"/>
        <pt x="640" y="506" on="1"/>
        <pt x="554" y="70" on="1"/>
        <pt x="623" y="66" on="1"/>
        <pt x="617" y="28" on="1"/>
        <pt x="594" y="16" on="0"/>
        <pt x="523" y="-8" on="0"/>
        <pt x="491" y="-10" on="1"/>
        <pt x="481" y="-11" on="0"/>
        <pt x="464" y="-10" on="0"/>
        <pt x="456" y="-8" on="1"/>
        <pt x="407" y="11" on="1"/>
        <pt x="431" y="154" on="1"/>
        <pt x="427" y="154" on="1"/>
        <pt x="392" y="78" on="0"/>
        <pt x="289" y="-12" on="0"/>
        <pt x="228" y="-12" on="1"/>
        <pt x="208" y="-12" on="0"/>
        <pt x="179" y="2" on="0"/>
        <pt x="168" y="13" on="1"/>
      </contour>
    </TTGlyph>
    <TTGlyph name="multiply" xMin="91" yMin="154" xMax="468" yMax="531">
      <contour>
        <pt x="91" y="213" on="1"/>
        <pt x="222" y="344" on="1"/>
        <pt x="93" y="473" on="1"/>
        <pt x="150" y="529" on="1"/>
        <pt x="279" y="401" on="1"/>
        <pt x="409" y="531" on="1"/>
        <pt x="466" y="475" on="1"/>
        <pt x="335" y="344" on="1"/>
        <pt x="468" y="211" on="1"/>
        <pt x="411" y="154" on="1"/>
        <pt x="278" y="287" on="1"/>
        <pt x="148" y="157" on="1"/>
      </contour>
    </TTGlyph>
    <TTGlyph name="n" xMin="28" yMin="-9" xMax="542" yMax="512">
      <contour>
        <pt x="384" y="285" on="1"/>
        <pt x="391" y="316" on="0"/>
        <pt x="402" y="364" on="0"/>
        <pt x="402" y="390" on="1"/>
        <pt x="402" y="407" on="0"/>
        <pt x="387" y="432" on="0"/>
        <pt x="368" y="432" on="1"/>
        <pt x="349" y="432" on="0"/>
        <pt x="308" y="403" on="0"/>
        <pt x="269" y="360" on="0"/>
        <pt x="236" y="308" on="0"/>
        <pt x="226" y="286" on="1"/>
        <pt x="166" y="0" on="1"/>
        <pt x="28" y="0" on="1"/>
        <pt x="114" y="429" on="1"/>
        <pt x="55" y="442" on="1"/>
        <pt x="57" y="476" on="1"/>
        <pt x="71" y="483" on="0"/>
        <pt x="115" y="496" on="0"/>
        <pt x="167" y="506" on="0"/>
        <pt x="222" y="512" on="0"/>
        <pt x="247" y="512" on="1"/>
        <pt x="267" y="500" on="1"/>
        <pt x="236" y="354" on="1"/>
        <pt x="241" y="354" on="1"/>
        <pt x="259" y="387" on="0"/>
        <pt x="307" y="445" on="0"/>
        <pt x="361" y="487" on="0"/>
        <pt x="421" y="512" on="0"/>
        <pt x="452" y="512" on="1"/>
        <pt x="494" y="512" on="0"/>
        <pt x="542" y="458" on="0"/>
        <pt x="542" y="413" on="1"/>
        <pt x="542" y="390" on="0"/>
        <pt x="532" y="331" on="0"/>
        <pt x="525" y="302" on="1"/>
        <pt x="470" y="69" on="1"/>
        <pt x="542" y="69" on="1"/>
        <pt x="542" y="35" on="1"/>
        <pt x="532" y="27" on="0"/>
        <pt x="499" y="11" on="0"/>
        <pt x="460" y="-1" on="0"/>
        <pt x="418" y="-9" on="0"/>
        <pt x="399" y="-9" on="1"/>
        <pt x="365" y="-9" on="0"/>
        <pt x="334" y="17" on="0"/>
        <pt x="334" y="34" on="1"/>
        <pt x="334" y="55" on="0"/>
        <pt x="344" y="103" on="0"/>
        <pt x="349" y="125" on="1"/>
      </contour>
    </TTGlyph>
    <TTGlyph name="nine" xMin="29" yMin="-12" xMax="556" yMax="718">
      <contour>
        <pt x="48" y="438" on="1"/>
        <pt x="48" y="491" on="0"/>
        <pt x="85" y="592" on="0"/>
        <pt x="158" y="670" on="0"/>
        <pt x="270" y="718" on="0"/>
        <pt x="345" y="718" on="1"/>
        <pt x="392" y="718" on="0"/>
        <pt x="470" y="693" on="0"/>
        <pt x="525" y="641" on="0"/>
        <pt x="556" y="563" on="0"/>
        <pt x="556" y="511" on="1"/>
        <pt x="556" y="425" on="0"/>
        <pt x="485" y="258" on="0"/>
        <pt x="350" y="117" on="0"/>
        <pt x="157" y="12" on="0"/>
        <pt x="35" y="-12" on="1"/>
        <pt x="29" y="31" on="1"/>
        <pt x="154" y="69" on="0"/>
        <pt x="326" y="230" on="0"/>
        <pt x="368" y="357" on="1"/>
        <pt x="345" y="326" on="0"/>
        <pt x="260" y="285" on="0"/>
        <pt x="207" y="285" on="1"/>
        <pt x="124" y="285" on="0"/>
        <pt x="48" y="369" on="0"/>
      </contour>
      <contour>
        <pt x="198" y="447" on="1"/>
        <pt x="198" y="399" on="0"/>
        <pt x="233" y="355" on="0"/>
        <pt x="277" y="355" on="1"/>
        <pt x="308" y="355" on="0"/>
        <pt x="366" y="389" on="0"/>
        <pt x="383" y="412" on="1"/>
        <pt x="386" y="419" on="0"/>
        <pt x="394" y="448" on="0"/>
        <pt x="401" y="483" on="0"/>
        <pt x="406" y="518" on="0"/>
        <pt x="406" y="533" on="1"/>
        <pt x="406" y="558" on="0"/>
        <pt x="399" y="604" on="0"/>
        <pt x="382" y="638" on="0"/>
        <pt x="352" y="658" on="0"/>
        <pt x="329" y="658" on="1"/>
        <pt x="296" y="658" on="0"/>
        <pt x="246" y="616" on="0"/>
        <pt x="214" y="553" on="0"/>
        <pt x="198" y="479" on="0"/>
      </contour>
    </TTGlyph>
    <TTGlyph name="ntilde" xMin="28" yMin="-9" xMax="542" yMax="726">
      <component glyphName="n" x="0" y="0" flags="0x204"/>
      <component glyphName="tilde" x="90" y="0" flags="0x4"/>
    </TTGlyph>
    <TTGlyph name="numbersign" xMin="24" yMin="58" xMax="566" yMax="642">
      <contour>
        <pt x="300" y="220" on="1"/>
        <pt x="176" y="220" on="1"/>
        <pt x="104" y="58" on="1"/>
        <pt x="33" y="58" on="1"/>
        <pt x="105" y="220" on="1"/>
        <pt x="24" y="220" on="1"/>
        <pt x="57" y="284" on="1"/>
        <pt x="134" y="284" on="1"/>
        <pt x="193" y="416" on="1"/>
        <pt x="116" y="416" on="1"/>
        <pt x="148" y="480" on="1"/>
        <pt x="222" y="480" on="1"/>
        <pt x="296" y="642" on="1"/>
        <pt x="366" y="642" on="1"/>
        <pt x="293" y="480" on="1"/>
        <pt x="417" y="480" on="1"/>
        <pt x="491" y="642" on="1"/>
        <pt x="561" y="642" on="1"/>
        <pt x="487" y="480" on="1"/>
        <pt x="566" y="480" on="1"/>
        <pt x="531" y="416" on="1"/>
        <pt x="458" y="416" on="1"/>
        <pt x="399" y="284" on="1"/>
        <pt x="475" y="284" on="1"/>
        <pt x="439" y="220" on="1"/>
        <pt x="370" y="220" on="1"/>
        <pt x="298" y="58" on="1"/>
        <pt x="228" y="58" on="1"/>
      </contour>
      <contour>
        <pt x="205" y="284" on="1"/>
        <pt x="329" y="284" on="1"/>
        <pt x="388" y="416" on="1"/>
        <pt x="264" y="416" on="1"/>
      </contour>
    </TTGlyph>
    <TTGlyph name="o" xMin="29" yMin="-12" xMax="520" yMax="512">
      <contour>
        <pt x="29" y="192" on="1"/>
        <pt x="29" y="246" on="0"/>
        <pt x="65" y="359" on="0"/>
        <pt x="139" y="452" on="0"/>
        <pt x="252" y="512" on="0"/>
        <pt x="328" y="512" on="1"/>
        <pt x="418" y="512" on="0"/>
        <pt x="520" y="414" on="0"/>
        <pt x="520" y="317" on="1"/>
        <pt x="520" y="251" on="0"/>
        <pt x="480" y="132" on="0"/>
        <pt x="404" y="41" on="0"/>
        <pt x="295" y="-12" on="0"/>
        <pt x="225" y="-12" on="1"/>
        <pt x="183" y="-12" on="0"/>
        <pt x="111" y="13" on="0"/>
        <pt x="58" y="64" on="0"/>
        <pt x="29" y="140" on="0"/>
      </contour>
      <contour>
        <pt x="311" y="455" on="1"/>
        <pt x="271" y="455" on="0"/>
        <pt x="218" y="395" on="0"/>
        <pt x="185" y="304" on="0"/>
        <pt x="171" y="198" on="0"/>
        <pt x="171" y="153" on="1"/>
        <pt x="171" y="102" on="0"/>
        <pt x="210" y="45" on="0"/>
        <pt x="244" y="45" on="1"/>
        <pt x="273" y="45" on="0"/>
        <pt x="322" y="94" on="0"/>
        <pt x="358" y="177" on="0"/>
        <pt x="378" y="284" on="0"/>
        <pt x="378" y="342" on="1"/>
        <pt x="378" y="397" on="0"/>
        <pt x="343" y="455" on="0"/>
      </contour>
    </TTGlyph>
    <TTGlyph name="oacute" xMin="29" yMin="-12" xMax="520" yMax="765">
      <component glyphName="o" x="0" y="0" flags="0x204"/>
      <component glyphName="acute" x="30" y="0" flags="0x4"/>
    </TTGlyph>
    <TTGlyph name="ocircumflex" xMin="29" yMin="-12" xMax="520" yMax="794">
      <component glyphName="o" x="0" y="0" flags="0x204"/>
      <component glyphName="circumflex" x="19" y="0" flags="0x4"/>
    </TTGlyph>
    <TTGlyph name="odieresis" xMin="29" yMin="-12" xMax="520" yMax="729">
      <component glyphName="o" x="0" y="0" flags="0x204"/>
      <component glyphName="dieresis" x="-24" y="0" flags="0x4"/>
    </TTGlyph>
    <TTGlyph name="oe" xMin="29" yMin="-12" xMax="796" yMax="512">
      <contour>
        <pt x="311" y="455" on="1"/>
        <pt x="271" y="455" on="0"/>
        <pt x="218" y="395" on="0"/>
        <pt x="185" y="304" on="0"/>
        <pt x="171" y="198" on="0"/>
        <pt x="171" y="153" on="1"/>
        <pt x="171" y="102" on="0"/>
        <pt x="210" y="45" on="0"/>
        <pt x="244" y="45" on="1"/>
        <pt x="273" y="45" on="0"/>
        <pt x="322" y="94" on="0"/>
        <pt x="357" y="177" on="0"/>
        <pt x="377" y="284" on="0"/>
        <pt x="377" y="342" on="1"/>
        <pt x="377" y="397" on="0"/>
        <pt x="343" y="455" on="0"/>
      </contour>
      <contour>
        <pt x="400" y="53" on="1"/>
        <pt x="365" y="18" on="0"/>
        <pt x="271" y="-12" on="0"/>
        <pt x="225" y="-12" on="1"/>
        <pt x="183" y="-12" on="0"/>
        <pt x="111" y="13" on="0"/>
        <pt x="58" y="64" on="0"/>
        <pt x="29" y="140" on="0"/>
        <pt x="29" y="192" on="1"/>
        <pt x="29" y="246" on="0"/>
        <pt x="65" y="359" on="0"/>
        <pt x="139" y="452" on="0"/>
        <pt x="252" y="512" on="0"/>
        <pt x="328" y="512" on="1"/>
        <pt x="377" y="512" on="0"/>
        <pt x="458" y="477" on="0"/>
        <pt x="479" y="443" on="1"/>
        <pt x="515" y="476" on="0"/>
        <pt x="609" y="512" on="0"/>
        <pt x="658" y="512" on="1"/>
        <pt x="718" y="512" on="0"/>
        <pt x="796" y="457" on="0"/>
        <pt x="796" y="409" on="1"/>
        <pt x="796" y="341" on="0"/>
        <pt x="662" y="253" on="0"/>
        <pt x="510" y="242" on="1"/>
        <pt x="508" y="228" on="0"/>
        <pt x="505" y="199" on="0"/>
        <pt x="505" y="186" on="1"/>
        <pt x="505" y="129" on="0"/>
        <pt x="563" y="68" on="0"/>
        <pt x="608" y="68" on="1"/>
        <pt x="627" y="68" on="0"/>
        <pt x="665" y="80" on="0"/>
        <pt x="699" y="100" on="0"/>
        <pt x="728" y="123" on="0"/>
        <pt x="739" y="134" on="1"/>
        <pt x="763" y="109" on="1"/>
        <pt x="752" y="89" on="0"/>
        <pt x="710" y="46" on="0"/>
        <pt x="654" y="11" on="0"/>
        <pt x="586" y="-12" on="0"/>
        <pt x="549" y="-12" on="1"/>
        <pt x="492" y="-12" on="0"/>
        <pt x="420" y="26" on="0"/>
      </contour>
      <contour>
        <pt x="635" y="455" on="1"/>
        <pt x="602" y="455" on="0"/>
        <pt x="539" y="381" on="0"/>
        <pt x="517" y="293" on="1"/>
        <pt x="592" y="295" on="0"/>
        <pt x="683" y="357" on="0"/>
        <pt x="683" y="407" on="1"/>
        <pt x="683" y="427" on="0"/>
        <pt x="661" y="455" on="0"/>
      </contour>
    </TTGlyph>
    <TTGlyph name="ograve" xMin="29" yMin="-12" xMax="520" yMax="765">
      <component glyphName="o" x="0" y="0" flags="0x204"/>
      <component glyphName="grave" x="33" y="0" flags="0x4"/>
    </TTGlyph>
    <TTGlyph name="one" xMin="80" yMin="0" xMax="477" yMax="712">
      <contour>
        <pt x="426" y="0" on="1"/>
        <pt x="80" y="0" on="1"/>
        <pt x="89" y="43" on="1"/>
        <pt x="141" y="65" on="0"/>
        <pt x="198" y="77" on="1"/>
        <pt x="296" y="536" on="1"/>
        <pt x="315" y="595" on="1"/>
        <pt x="286" y="587" on="0"/>
        <pt x="221" y="580" on="0"/>
        <pt x="189" y="581" on="1"/>
        <pt x="192" y="618" on="1"/>
        <pt x="249" y="632" on="0"/>
        <pt x="383" y="680" on="0"/>
        <pt x="443" y="712" on="1"/>
        <pt x="477" y="712" on="1"/>
        <pt x="342" y="77" on="1"/>
        <pt x="365" y="72" on="0"/>
        <pt x="412" y="55" on="0"/>
        <pt x="435" y="43" on="1"/>
      </contour>
    </TTGlyph>
    <TTGlyph name="one.numerator" xMin="82" yMin="282" xMax="403" yMax="709">
      <contour>
        <pt x="396" y="282" on="1"/>
        <pt x="82" y="282" on="1"/>
        <pt x="89" y="312" on="1"/>
        <pt x="119" y="326" on="0"/>
        <pt x="172" y="346" on="0"/>
        <pt x="198" y="351" on="1"/>
        <pt x="244" y="566" on="1"/>
        <pt x="259" y="611" on="1"/>
        <pt x="246" y="608" on="0"/>
        <pt x="216" y="604" on="0"/>
        <pt x="185" y="603" on="0"/>
        <pt x="156" y="604" on="0"/>
        <pt x="144" y="605" on="1"/>
        <pt x="153" y="647" on="1"/>
        <pt x="201" y="653" on="0"/>
        <pt x="306" y="689" on="0"/>
        <pt x="347" y="709" on="1"/>
        <pt x="387" y="709" on="1"/>
        <pt x="311" y="351" on="1"/>
        <pt x="362" y="339" on="0"/>
        <pt x="403" y="312" on="1"/>
      </contour>
    </TTGlyph>
    <TTGlyph name="onehalf" xMin="61" yMin="-13" xMax="986" yMax="715">
      <component glyphName="one.numerator" x="-21" y="0" flags="0x4"/>
      <component glyphName="fraction" x="369" y="0" flags="0x4"/>
      <component glyphName="uni2082" x="602" y="100" flags="0x4"/>
    </TTGlyph>
    <TTGlyph name="onequarter" xMin="61" yMin="-13" xMax="933" yMax="715">
      <component glyphName="one.numerator" x="-21" y="0" flags="0x4"/>
      <component glyphName="fraction" x="375" y="0" flags="0x4"/>
      <component glyphName="uni2084" x="527" y="100" flags="0x4"/>
    </TTGlyph>
    <TTGlyph name="onesuperior" xMin="101" yMin="386" xMax="422" yMax="813">
      <component glyphName="one.numerator" x="19" y="104" flags="0x204"/>
    </TTGlyph>
    <TTGlyph name="ordfeminine" xMin="26" yMin="378" xMax="433" yMax="711">
      <contour>
        <pt x="269" y="475" on="1"/>
        <pt x="262" y="461" on="0"/>
        <pt x="236" y="427" on="0"/>
        <pt x="201" y="398" on="0"/>
        <pt x="156" y="378" on="0"/>
        <pt x="129" y="378" on="1"/>
        <pt x="78" y="378" on="0"/>
        <pt x="26" y="438" on="0"/>
        <pt x="26" y="489" on="1"/>
        <pt x="26" y="540" on="0"/>
        <pt x="62" y="622" on="0"/>
        <pt x="122" y="680" on="0"/>
        <pt x="199" y="711" on="0"/>
        <pt x="240" y="711" on="1"/>
        <pt x="264" y="711" on="0"/>
        <pt x="311" y="699" on="0"/>
        <pt x="328" y="688" on="1"/>
        <pt x="415" y="710" on="1"/>
        <pt x="433" y="700" on="1"/>
        <pt x="380" y="445" on="1"/>
        <pt x="430" y="435" on="1"/>
        <pt x="429" y="407" on="1"/>
        <pt x="409" y="395" on="0"/>
        <pt x="335" y="378" on="0"/>
        <pt x="303" y="378" on="1"/>
        <pt x="280" y="378" on="0"/>
        <pt x="262" y="401" on="0"/>
        <pt x="264" y="418" on="1"/>
        <pt x="273" y="475" on="1"/>
      </contour>
      <contour>
        <pt x="187" y="446" on="1"/>
        <pt x="199" y="446" on="0"/>
        <pt x="228" y="463" on="0"/>
        <pt x="254" y="489" on="0"/>
        <pt x="277" y="520" on="0"/>
        <pt x="283" y="533" on="1"/>
        <pt x="304" y="635" on="1"/>
        <pt x="290" y="641" on="0"/>
        <pt x="267" y="651" on="0"/>
        <pt x="252" y="651" on="1"/>
        <pt x="232" y="651" on="0"/>
        <pt x="195" y="631" on="0"/>
        <pt x="165" y="594" on="0"/>
        <pt x="147" y="538" on="0"/>
        <pt x="147" y="502" on="1"/>
        <pt x="147" y="476" on="0"/>
        <pt x="167" y="446" on="0"/>
      </contour>
    </TTGlyph>
    <TTGlyph name="ordmasculine" xMin="26" yMin="372" xMax="420" yMax="712">
      <contour>
        <pt x="26" y="504" on="1"/>
        <pt x="26" y="547" on="0"/>
        <pt x="62" y="623" on="0"/>
        <pt x="125" y="680" on="0"/>
        <pt x="210" y="712" on="0"/>
        <pt x="259" y="712" on="1"/>
        <pt x="335" y="712" on="0"/>
        <pt x="420" y="641" on="0"/>
        <pt x="420" y="581" on="1"/>
        <pt x="420" y="531" on="0"/>
        <pt x="380" y="454" on="0"/>
        <pt x="314" y="400" on="0"/>
        <pt x="230" y="372" on="0"/>
        <pt x="187" y="372" on="1"/>
        <pt x="154" y="372" on="0"/>
        <pt x="95" y="390" on="0"/>
        <pt x="51" y="425" on="0"/>
        <pt x="26" y="474" on="0"/>
      </contour>
      <contour>
        <pt x="145" y="492" on="1"/>
        <pt x="145" y="465" on="0"/>
        <pt x="170" y="423" on="0"/>
        <pt x="200" y="423" on="1"/>
        <pt x="218" y="423" on="0"/>
        <pt x="254" y="445" on="0"/>
        <pt x="284" y="488" on="0"/>
        <pt x="302" y="554" on="0"/>
        <pt x="302" y="599" on="1"/>
        <pt x="302" y="622" on="0"/>
        <pt x="279" y="661" on="0"/>
        <pt x="248" y="661" on="1"/>
        <pt x="230" y="661" on="0"/>
        <pt x="193" y="637" on="0"/>
        <pt x="164" y="592" on="0"/>
        <pt x="145" y="530" on="0"/>
      </contour>
    </TTGlyph>
    <TTGlyph name="oslash" xMin="-13" yMin="-58" xMax="558" yMax="553">
      <contour>
        <pt x="29" y="192" on="1"/>
        <pt x="29" y="246" on="0"/>
        <pt x="65" y="359" on="0"/>
        <pt x="139" y="452" on="0"/>
        <pt x="252" y="512" on="0"/>
        <pt x="328" y="512" on="1"/>
        <pt x="397" y="512" on="0"/>
        <pt x="444" y="480" on="1"/>
        <pt x="510" y="553" on="1"/>
        <pt x="558" y="512" on="1"/>
        <pt x="489" y="436" on="1"/>
        <pt x="520" y="388" on="0"/>
        <pt x="520" y="317" on="1"/>
        <pt x="520" y="251" on="0"/>
        <pt x="480" y="132" on="0"/>
        <pt x="404" y="41" on="0"/>
        <pt x="295" y="-12" on="0"/>
        <pt x="225" y="-12" on="1"/>
        <pt x="153" y="-12" on="0"/>
        <pt x="106" y="22" on="1"/>
        <pt x="33" y="-58" on="1"/>
        <pt x="-13" y="-16" on="1"/>
        <pt x="62" y="66" on="1"/>
        <pt x="29" y="116" on="0"/>
      </contour>
      <contour>
        <pt x="244" y="45" on="1"/>
        <pt x="269" y="45" on="0"/>
        <pt x="312" y="83" on="0"/>
        <pt x="344" y="146" on="0"/>
        <pt x="365" y="229" on="0"/>
        <pt x="369" y="274" on="1"/>
        <pt x="371" y="284" on="0"/>
        <pt x="373" y="304" on="0"/>
        <pt x="374" y="315" on="1"/>
        <pt x="180" y="101" on="1"/>
        <pt x="195" y="45" on="0"/>
      </contour>
      <contour>
        <pt x="311" y="455" on="1"/>
        <pt x="276" y="455" on="0"/>
        <pt x="228" y="411" on="0"/>
        <pt x="197" y="343" on="0"/>
        <pt x="181" y="261" on="0"/>
        <pt x="178" y="223" on="1"/>
        <pt x="176" y="213" on="0"/>
        <pt x="175" y="195" on="0"/>
        <pt x="174" y="185" on="1"/>
        <pt x="369" y="400" on="1"/>
        <pt x="354" y="455" on="0"/>
      </contour>
    </TTGlyph>
    <TTGlyph name="otilde" xMin="29" yMin="-12" xMax="520" yMax="726">
      <component glyphName="o" x="0" y="0" flags="0x204"/>
      <component glyphName="tilde" x="77" y="0" flags="0x4"/>
    </TTGlyph>
    <TTGlyph name="p" xMin="-17" yMin="-200" xMax="548" yMax="512">
      <contour>
        <pt x="135" y="-133" on="1"/>
        <pt x="152" y="-136" on="0"/>
        <pt x="189" y="-153" on="0"/>
        <pt x="202" y="-162" on="1"/>
        <pt x="202" y="-200" on="1"/>
        <pt x="-4" y="-200" on="1"/>
        <pt x="-17" y="-187" on="1"/>
        <pt x="115" y="428" on="1"/>
        <pt x="57" y="442" on="1"/>
        <pt x="57" y="476" on="1"/>
        <pt x="73" y="483" on="0"/>
        <pt x="123" y="496" on="0"/>
        <pt x="177" y="506" on="0"/>
        <pt x="229" y="512" on="0"/>
        <pt x="249" y="512" on="1"/>
        <pt x="269" y="500" on="1"/>
        <pt x="236" y="362" on="1"/>
        <pt x="240" y="362" on="1"/>
        <pt x="256" y="393" on="0"/>
        <pt x="297" y="448" on="0"/>
        <pt x="344" y="489" on="0"/>
        <pt x="399" y="512" on="0"/>
        <pt x="430" y="512" on="1"/>
        <pt x="481" y="512" on="0"/>
        <pt x="548" y="432" on="0"/>
        <pt x="548" y="360" on="1"/>
        <pt x="548" y="279" on="0"/>
        <pt x="502" y="142" on="0"/>
        <pt x="423" y="43" on="0"/>
        <pt x="314" y="-12" on="0"/>
        <pt x="251" y="-12" on="1"/>
        <pt x="222" y="-12" on="0"/>
        <pt x="185" y="-3" on="0"/>
        <pt x="165" y="8" on="1"/>
      </contour>
      <contour>
        <pt x="353" y="432" on="1"/>
        <pt x="332" y="432" on="0"/>
        <pt x="293" y="401" on="0"/>
        <pt x="259" y="355" on="0"/>
        <pt x="231" y="301" on="0"/>
        <pt x="222" y="279" on="1"/>
        <pt x="178" y="62" on="1"/>
        <pt x="191" y="53" on="0"/>
        <pt x="216" y="45" on="0"/>
        <pt x="240" y="45" on="1"/>
        <pt x="274" y="45" on="0"/>
        <pt x="334" y="99" on="0"/>
        <pt x="379" y="185" on="0"/>
        <pt x="404" y="293" on="0"/>
        <pt x="404" y="346" on="1"/>
        <pt x="404" y="388" on="0"/>
        <pt x="378" y="432" on="0"/>
      </contour>
    </TTGlyph>
    <TTGlyph name="paragraph" xMin="101" yMin="-212" xMax="528" yMax="700">
      <contour>
        <pt x="452" y="94" on="1"/>
        <pt x="452" y="27" on="0"/>
        <pt x="432" y="-60" on="0"/>
        <pt x="393" y="-113" on="0"/>
        <pt x="336" y="-140" on="0"/>
        <pt x="299" y="-148" on="1"/>
        <pt x="279" y="-177" on="0"/>
        <pt x="220" y="-206" on="0"/>
        <pt x="189" y="-212" on="1"/>
        <pt x="173" y="-179" on="1"/>
        <pt x="195" y="-170" on="0"/>
        <pt x="234" y="-143" on="0"/>
        <pt x="262" y="-98" on="0"/>
        <pt x="279" y="-28" on="0"/>
        <pt x="279" y="24" on="1"/>
        <pt x="279" y="310" on="1"/>
        <pt x="247" y="310" on="0"/>
        <pt x="184" y="330" on="0"/>
        <pt x="133" y="375" on="0"/>
        <pt x="101" y="448" on="0"/>
        <pt x="101" y="500" on="1"/>
        <pt x="101" y="542" on="0"/>
        <pt x="126" y="615" on="0"/>
        <pt x="175" y="669" on="0"/>
        <pt x="251" y="700" on="0"/>
        <pt x="302" y="700" on="1"/>
        <pt x="528" y="700" on="1"/>
        <pt x="528" y="657" on="1"/>
        <pt x="511" y="649" on="0"/>
        <pt x="475" y="637" on="0"/>
        <pt x="452" y="633" on="1"/>
      </contour>
      <contour>
        <pt x="319" y="-111" on="1"/>
        <pt x="360" y="-98" on="0"/>
        <pt x="388" y="5" on="0"/>
        <pt x="388" y="94" on="1"/>
        <pt x="388" y="638" on="1"/>
        <pt x="344" y="638" on="1"/>
        <pt x="344" y="24" on="1"/>
        <pt x="344" y="-16" on="0"/>
        <pt x="333" y="-85" on="0"/>
      </contour>
    </TTGlyph>
    <TTGlyph name="parenleft" xMin="55" yMin="-210" xMax="469" yMax="702">
      <contour>
        <pt x="249" y="-210" on="1"/>
        <pt x="207" y="-181" on="0"/>
        <pt x="136" y="-113" on="0"/>
        <pt x="84" y="-31" on="0"/>
        <pt x="55" y="68" on="0"/>
        <pt x="55" y="128" on="1"/>
        <pt x="55" y="241" on="0"/>
        <pt x="128" y="424" on="0"/>
        <pt x="242" y="567" on="0"/>
        <pt x="381" y="670" on="0"/>
        <pt x="446" y="702" on="1"/>
        <pt x="469" y="671" on="1"/>
        <pt x="419" y="629" on="0"/>
        <pt x="320" y="519" on="0"/>
        <pt x="239" y="384" on="0"/>
        <pt x="189" y="223" on="0"/>
        <pt x="189" y="131" on="1"/>
        <pt x="189" y="86" on="0"/>
        <pt x="199" y="5" on="0"/>
        <pt x="223" y="-70" on="0"/>
        <pt x="261" y="-141" on="0"/>
        <pt x="289" y="-177" on="1"/>
      </contour>
    </TTGlyph>
    <TTGlyph name="parenright" xMin="-80" yMin="-210" xMax="332" yMax="702">
      <contour>
        <pt x="-80" y="-177" on="1"/>
        <pt x="-35" y="-141" on="0"/>
        <pt x="64" y="-33" on="0"/>
        <pt x="145" y="108" on="0"/>
        <pt x="198" y="277" on="0"/>
        <pt x="198" y="375" on="1"/>
        <pt x="198" y="417" on="0"/>
        <pt x="190" y="491" on="0"/>
        <pt x="167" y="561" on="0"/>
        <pt x="129" y="631" on="0"/>
        <pt x="99" y="671" on="1"/>
        <pt x="136" y="702" on="1"/>
        <pt x="236" y="636" on="0"/>
        <pt x="332" y="466" on="0"/>
        <pt x="332" y="355" on="1"/>
        <pt x="332" y="250" on="0"/>
        <pt x="263" y="71" on="0"/>
        <pt x="153" y="-73" on="0"/>
        <pt x="15" y="-178" on="0"/>
        <pt x="-55" y="-210" on="1"/>
      </contour>
    </TTGlyph>
    <TTGlyph name="percent" xMin="55" yMin="-13" xMax="770" yMax="715">
      <component glyphName="fraction" x="256" y="0" flags="0x4"/>
      <component glyphName="ordmasculine" x="29" y="0" flags="0x4"/>
      <component glyphName="ordmasculine" x="347" y="-383" flags="0x4"/>
    </TTGlyph>
    <TTGlyph name="period" xMin="24" yMin="-8" xMax="194" yMax="151">
      <contour>
        <pt x="24" y="71" on="1"/>
        <pt x="24" y="107" on="0"/>
        <pt x="70" y="151" on="0"/>
        <pt x="108" y="151" on="1"/>
        <pt x="146" y="151" on="0"/>
        <pt x="194" y="107" on="0"/>
        <pt x="194" y="71" on="1"/>
        <pt x="194" y="35" on="0"/>
        <pt x="146" y="-8" on="0"/>
        <pt x="108" y="-8" on="1"/>
        <pt x="70" y="-8" on="0"/>
        <pt x="24" y="35" on="0"/>
      </contour>
    </TTGlyph>
    <TTGlyph name="periodcentered" xMin="50" yMin="242" xMax="220" yMax="401">
      <component glyphName="period" x="26" y="250" flags="0x4"/>
    </TTGlyph>
    <TTGlyph name="perthousand" xMin="55" yMin="-13" xMax="1182" yMax="715">
      <component glyphName="ordmasculine" x="762" y="-383" flags="0x4"/>
      <component glyphName="fraction" x="256" y="0" flags="0x4"/>
      <component glyphName="ordmasculine" x="29" y="0" flags="0x4"/>
      <component glyphName="ordmasculine" x="347" y="-383" flags="0x4"/>
    </TTGlyph>
    <TTGlyph name="plus" xMin="55" yMin="102" xMax="505" yMax="580">
      <contour>
        <pt x="55" y="384" on="1"/>
        <pt x="240" y="384" on="1"/>
        <pt x="240" y="580" on="1"/>
        <pt x="320" y="580" on="1"/>
        <pt x="320" y="384" on="1"/>
        <pt x="505" y="384" on="1"/>
        <pt x="505" y="304" on="1"/>
        <pt x="320" y="304" on="1"/>
        <pt x="320" y="102" on="1"/>
        <pt x="240" y="102" on="1"/>
        <pt x="240" y="304" on="1"/>
        <pt x="55" y="304" on="1"/>
      </contour>
    </TTGlyph>
    <TTGlyph name="plusminus" xMin="55" yMin="164" xMax="505" yMax="700">
      <contour>
        <pt x="55" y="504" on="1"/>
        <pt x="240" y="504" on="1"/>
        <pt x="240" y="700" on="1"/>
        <pt x="320" y="700" on="1"/>
        <pt x="320" y="504" on="1"/>
        <pt x="505" y="504" on="1"/>
        <pt x="505" y="424" on="1"/>
        <pt x="320" y="424" on="1"/>
        <pt x="320" y="292" on="1"/>
        <pt x="240" y="292" on="1"/>
        <pt x="240" y="424" on="1"/>
        <pt x="55" y="424" on="1"/>
      </contour>
      <contour>
        <pt x="55" y="244" on="1"/>
        <pt x="505" y="244" on="1"/>
        <pt x="505" y="164" on="1"/>
        <pt x="55" y="164" on="1"/>
      </contour>
    </TTGlyph>
    <TTGlyph name="q" xMin="26" yMin="-200" xMax="538" yMax="510">
      <contour>
        <pt x="408" y="-132" on="1"/>
        <pt x="424" y="-135" on="0"/>
        <pt x="460" y="-151" on="0"/>
        <pt x="474" y="-162" on="1"/>
        <pt x="474" y="-200" on="1"/>
        <pt x="268" y="-200" on="1"/>
        <pt x="259" y="-192" on="1"/>
        <pt x="336" y="152" on="1"/>
        <pt x="332" y="152" on="1"/>
        <pt x="319" y="123" on="0"/>
        <pt x="282" y="65" on="0"/>
        <pt x="234" y="18" on="0"/>
        <pt x="175" y="-12" on="0"/>
        <pt x="140" y="-12" on="1"/>
        <pt x="88" y="-12" on="0"/>
        <pt x="26" y="70" on="0"/>
        <pt x="26" y="148" on="1"/>
        <pt x="26" y="220" on="0"/>
        <pt x="65" y="351" on="0"/>
        <pt x="146" y="451" on="0"/>
        <pt x="268" y="510" on="0"/>
        <pt x="351" y="510" on="1"/>
        <pt x="381" y="510" on="0"/>
        <pt x="440" y="503" on="0"/>
        <pt x="490" y="493" on="0"/>
        <pt x="528" y="481" on="0"/>
        <pt x="538" y="476" on="1"/>
      </contour>
      <contour>
        <pt x="218" y="68" on="1"/>
        <pt x="237" y="68" on="0"/>
        <pt x="275" y="101" on="0"/>
        <pt x="309" y="151" on="0"/>
        <pt x="339" y="210" on="0"/>
        <pt x="350" y="236" on="1"/>
        <pt x="390" y="442" on="1"/>
        <pt x="372" y="453" on="0"/>
        <pt x="337" y="453" on="1"/>
        <pt x="296" y="453" on="0"/>
        <pt x="234" y="400" on="0"/>
        <pt x="190" y="315" on="0"/>
        <pt x="168" y="209" on="0"/>
        <pt x="168" y="156" on="1"/>
        <pt x="168" y="68" on="0"/>
      </contour>
    </TTGlyph>
    <TTGlyph name="question" xMin="142" yMin="-8" xMax="546" yMax="712">
      <contour>
        <pt x="204" y="501" on="1"/>
        <pt x="170" y="501" on="1"/>
        <pt x="167" y="514" on="0"/>
        <pt x="158" y="553" on="0"/>
        <pt x="150" y="596" on="0"/>
        <pt x="147" y="641" on="0"/>
        <pt x="149" y="661" on="1"/>
        <pt x="192" y="684" on="0"/>
        <pt x="291" y="712" on="0"/>
        <pt x="357" y="712" on="1"/>
        <pt x="445" y="712" on="0"/>
        <pt x="546" y="640" on="0"/>
        <pt x="546" y="574" on="1"/>
        <pt x="546" y="524" on="0"/>
        <pt x="505" y="455" on="0"/>
        <pt x="443" y="401" on="0"/>
        <pt x="368" y="356" on="0"/>
        <pt x="301" y="307" on="0"/>
        <pt x="250" y="246" on="0"/>
        <pt x="243" y="203" on="1"/>
        <pt x="210" y="203" on="1"/>
        <pt x="205" y="251" on="0"/>
        <pt x="229" y="324" on="0"/>
        <pt x="271" y="384" on="0"/>
        <pt x="323" y="434" on="0"/>
        <pt x="369" y="484" on="0"/>
        <pt x="400" y="537" on="0"/>
        <pt x="400" y="569" on="1"/>
        <pt x="400" y="609" on="0"/>
        <pt x="358" y="647" on="0"/>
        <pt x="323" y="647" on="1"/>
        <pt x="299" y="647" on="0"/>
        <pt x="265" y="639" on="0"/>
        <pt x="255" y="633" on="1"/>
      </contour>
      <contour>
        <pt x="142" y="71" on="1"/>
        <pt x="142" y="107" on="0"/>
        <pt x="188" y="151" on="0"/>
        <pt x="226" y="151" on="1"/>
        <pt x="264" y="151" on="0"/>
        <pt x="312" y="107" on="0"/>
        <pt x="312" y="71" on="1"/>
        <pt x="312" y="35" on="0"/>
        <pt x="264" y="-8" on="0"/>
        <pt x="226" y="-8" on="1"/>
        <pt x="188" y="-8" on="0"/>
        <pt x="142" y="35" on="0"/>
      </contour>
    </TTGlyph>
</ttFont>
